SplineFontDB: 3.2
FontName: Arcticons-Regular
FullName: Arcticons Regular
FamilyName: Arcticons
Weight: Regular
Copyright: Copyright (c) 2021, Onno van den Dungen (info@onnno.nl)
UComments: "2021-1-4: Created with FontForge (http://fontforge.org)"
Version: 0.3
ItalicAngle: 0
UnderlinePosition: -100
UnderlineWidth: 50
Ascent: 800
Descent: 200
InvalidEm: 0
LayerCount: 2
Layer: 0 0 "Back" 1
Layer: 1 0 "Fore" 0
XUID: [1021 1006 975097195 5439]
FSType: 0
OS2Version: 0
OS2_WeightWidthSlopeOnly: 0
OS2_UseTypoMetrics: 1
CreationTime: 1609794084
ModificationTime: 1635173137
PfmFamily: 17
TTFWeight: 400
TTFWidth: 5
LineGap: 90
VLineGap: 0
OS2TypoAscent: 0
OS2TypoAOffset: 1
OS2TypoDescent: 0
OS2TypoDOffset: 1
OS2TypoLinegap: 90
OS2WinAscent: 0
OS2WinAOffset: 1
OS2WinDescent: 0
OS2WinDOffset: 1
HheadAscent: 0
HheadAOffset: 1
HheadDescent: 0
HheadDOffset: 1
OS2Vendor: 'PfEd'
Lookup: 1 0 0 "'ss01' Style Set 1 in Latin lookup 0" { "'ss01' Style Set 1 in Latin lookup 0-1"  } ['ss01' ('DFLT' <'dflt' > 'latn' <'dflt' > ) ]
Lookup: 4 0 1 "'standard ligatures'" { "'liga'-1"  } ['liga' ('DFLT' <'dflt' > 'latn' <'dflt' > ) ]
Lookup: 258 0 0 "kern" { "kern-1" [150,15,2] } ['kern' ('DFLT' <'dflt' > 'latn' <'dflt' > ) ]
Lookup: 258 0 0 "f_kern" { "f_kern-1" [150,15,2] } ['kern' ('DFLT' <'dflt' > 'latn' <'dflt' > ) ]
Lookup: 258 0 0 "T_kern" { "T_kern-1" [150,15,2] } ['    ' ('DFLT' <'dflt' > 'latn' <'dflt' > ) ]
Lookup: 258 0 0 "ligatures" { "fi-1" [150,15,0] "ffi" [150,15,0] "ff" [150,15,0] } []
MarkAttachClasses: 1
DEI: 91125
KernClass2: 1 1 "ffi"
 0 {}
KernClass2: 1 1 "fi-1"
 0 {}
LangName: 1033
OtfFeatName: 'ss02' 1033 "Alternatives"
OtfFeatName: 'ss01' 1033 "Default set"
Encoding: Custom
UnicodeInterp: none
NameList: AGL For New Fonts
DisplaySize: -48
AntiAlias: 1
FitToEm: 0
WinInfo: 54 27 9
BeginPrivate: 0
EndPrivate
Grid
-1000 -79 m 4
 2000 -79 l 1028
198.092285156 1300 m 0
 198.092285156 -700 l 1024
-1000 524.790771484 m 0
 2000 524.790771484 l 1024
-1000 717.642272949 m 0

StartChar: a
Encoding: 97 97 0
Width: 412
Flags: W
HStem: 75 21G<337.791 357.291> 75.21 71<141.687 268.701> 453.79 71<141.69 268.701>
VStem: 26.0703 71<192.31 407.698> 311.791 71<77.8125 111.15 189.352 410.648 488.85 522.188>
LayerCount: 2
Fore
SplineSet
347.791015625 75 m 0xb8
 327.791015625 75 311.791015625 91 311.791015625 111 c 2
 311.791015625 111.150390625 l 1
 281.938476562 88.5703125 244.759765625 75.2138671875 204.430664062 75.2099609375 c 0x78
 106.0703125 75.2099609375 26.0703125 155.23046875 26.0703125 253.5703125 c 2
 26.0703125 346.4296875 l 2
 26.0703125 444.790039062 106.081054688 524.790039062 204.430664062 524.790039062 c 0
 244.759765625 524.786132812 281.938476562 511.4296875 311.791015625 488.849609375 c 1
 311.791015625 489 l 2
 311.791015625 509 327.791015625 525 347.791015625 525 c 0
 366.791015625 525 382.791015625 509 382.791015625 489 c 2
 382.791015625 111 l 2
 382.791015625 91 366.791015625 75 347.791015625 75 c 0xb8
311.791015625 346.4296875 m 2
 311.791015625 405.68359375 263.684570312 453.790039062 204.430664062 453.790039062 c 0
 145.176757812 453.790039062 97.0703125 405.68359375 97.0703125 346.4296875 c 2
 97.0703125 253.5703125 l 2
 97.0703125 194.31640625 145.176757812 146.209960938 204.430664062 146.209960938 c 0
 263.684570312 146.209960938 311.791015625 194.31640625 311.791015625 253.5703125 c 2
 311.791015625 346.4296875 l 2
EndSplineSet
Validated: 1
EndChar

StartChar: b
Encoding: 98 98 1
Width: 410
Flags: W
HStem: 75.21 71<143.327 270.381> 75.21 21G<55.5532 75.145> 453.79 71<143.327 270.383> 697.64 20G<55.5532 75.146>
VStem: 29.8496 71<78.0019 110.721 188.251 411.749 489.279 714.848> 315 71<192.302 407.69>
LayerCount: 2
Fore
SplineSet
65.349609375 75.2099609375 m 0x7c
 45.7568359375 75.2099609375 29.849609375 91.1171875 29.849609375 110.709960938 c 2
 29.849609375 682.139648438 l 2
 29.849609375 701.733398438 45.7568359375 717.639648438 65.349609375 717.639648438 c 0
 84.9423828125 717.639648438 100.849609375 701.733398438 100.849609375 682.139648438 c 2
 100.849609375 489.279296875 l 1
 130.604492188 511.598632812 167.56640625 524.786132812 207.639648438 524.790039062 c 0
 306 524.790039062 386 444.76953125 386 346.4296875 c 2
 386 253.5703125 l 2
 386 155.209960938 305.989257812 75.2099609375 207.639648438 75.2099609375 c 0xbc
 167.56640625 75.2138671875 130.604492188 88.4013671875 100.849609375 110.720703125 c 1
 100.849609375 110.709960938 l 2
 100.84375 91.119140625 84.9404296875 75.2099609375 65.349609375 75.2099609375 c 0x7c
100.849609375 357.552734375 m 1
 100.849609375 242.447265625 l 1
 106.421875 188.412109375 152.141601562 146.209960938 207.639648438 146.209960938 c 0
 266.893554688 146.209960938 315 194.31640625 315 253.5703125 c 2
 315 346.4296875 l 2
 315 405.68359375 266.893554688 453.790039062 207.639648438 453.790039062 c 0
 152.141601562 453.790039062 106.421875 411.587890625 100.849609375 357.552734375 c 1
EndSplineSet
Validated: 1
EndChar

StartChar: c
Encoding: 99 99 2
Width: 385
Flags: W
HStem: 75.21 70.9902<139.619 267.024> 453.904 70.8857<139.597 266.9>
VStem: 24 71<192.302 407.69>
LayerCount: 2
Fore
SplineSet
202.350585938 75.2099609375 m 0
 104.009765625 75.2099609375 24 155.209960938 24 253.5703125 c 2
 24 346.4296875 l 2
 24 444.76953125 104 524.790039062 202.350585938 524.790039062 c 0
 268.484375 524.665039062 326.142578125 488.7890625 357.030273438 435.290039062 c 0
 360.026367188 430.084960938 361.740234375 424.049804688 361.740234375 417.618164062 c 0
 361.740234375 398.0234375 345.83203125 382.115234375 326.237304688 382.115234375 c 0
 313.075195312 382.115234375 301.62109375 389.217773438 295.490234375 399.870117188 c 0
 276.963867188 432.145507812 242.154296875 453.904296875 202.301757812 453.904296875 c 0
 143.046875 453.904296875 95.005859375 405.684570312 95 346.4296875 c 2
 95 253.5703125 l 2
 95 194.310546875 143.111328125 146.200195312 202.370117188 146.200195312 c 0
 242.30078125 146.200195312 277.102539062 167.928710938 295.600585938 200.309570312 c 0
 301.723632812 210.994140625 313.241210938 218.198242188 326.427734375 218.198242188 c 0
 346.0234375 218.198242188 361.93359375 202.2890625 361.93359375 182.693359375 c 0
 361.93359375 176.284179688 360.186523438 170.193359375 357.209960938 165 c 0
 326.373046875 111.328125 268.614257812 75.3154296875 202.350585938 75.2099609375 c 0
EndSplineSet
Validated: 1
EndChar

StartChar: d
Encoding: 100 100 3
Width: 410
Flags: W
HStem: 75.21 71<139.619 266.63> 75.21 21G<335.424 355.016> 453.79 71<139.617 266.63> 697.64 20G<335.424 355.017>
VStem: 24 71<192.302 407.69> 309.721 71<78.0019 111.15 189.352 410.648 488.85 714.848>
LayerCount: 2
Fore
SplineSet
345.220703125 75.2099609375 m 0x7c
 325.626953125 75.2099609375 309.720703125 91.1171875 309.720703125 110.709960938 c 2
 309.720703125 111.150390625 l 1
 279.868164062 88.5703125 242.689453125 75.2138671875 202.360351562 75.2099609375 c 0xbc
 104.010742188 75.2099609375 24 155.209960938 24 253.5703125 c 2
 24 346.4296875 l 2
 24 444.76953125 104 524.790039062 202.360351562 524.790039062 c 0
 242.689453125 524.786132812 279.868164062 511.4296875 309.720703125 488.849609375 c 1
 309.720703125 682.139648438 l 2
 309.720703125 701.733398438 325.626953125 717.639648438 345.220703125 717.639648438 c 0
 364.813476562 717.639648438 380.720703125 701.733398438 380.720703125 682.139648438 c 2
 380.720703125 110.709960938 l 2
 380.71484375 91.119140625 364.810546875 75.2099609375 345.220703125 75.2099609375 c 0x7c
309.720703125 253.5703125 m 2
 309.720703125 346.4296875 l 2
 309.720703125 405.68359375 261.614257812 453.790039062 202.360351562 453.790039062 c 0
 143.106445312 453.790039062 95 405.68359375 95 346.4296875 c 2
 95 253.5703125 l 2
 95 194.31640625 143.106445312 146.209960938 202.360351562 146.209960938 c 0
 261.614257812 146.209960938 309.720703125 194.31640625 309.720703125 253.5703125 c 2
EndSplineSet
Validated: 1
EndChar

StartChar: n
Encoding: 110 110 4
Width: 415
InSpiro: 1
Flags: W
HStem: 75.21 21G<55.9844 75.5762 341.703 361.295> 75.21 21G<55.9844 75.5762 341.703 361.295> 453.79 71<144.385 271.383>
VStem: 30.2793 71<78.0019 410.648 488.775 521.998> 316 71<78.0019 407.698>
LayerCount: 2
Fore
SplineSet
65.779296875 75.2099609375 m 0xb8
 46.189453125 75.2099609375 30.28515625 91.119140625 30.279296875 110.709960938 c 0
 30.279296875 489.290039062 l 0
 30.279296875 508.8828125 46.1865234375 524.790039062 65.779296875 524.790039062 c 0
 85.373046875 524.790039062 101.279296875 508.8828125 101.279296875 489.290039062 c 2
 101.279296875 488.775390625 l 1
 131.166015625 511.373046875 168.364257812 524.790039062 208.639648438 524.790039062 c 0
 307 524.790039062 387 444.790039062 387 346.4296875 c 2
 387 110.709960938 l 2
 386.994140625 91.119140625 371.08984375 75.2099609375 351.5 75.2099609375 c 0
 331.90625 75.2099609375 316 91.1171875 316 110.709960938 c 2
 316 346.4296875 l 2
 316 405.68359375 267.893554688 453.790039062 208.639648438 453.790039062 c 0
 149.385742188 453.790039062 101.279296875 405.68359375 101.279296875 346.4296875 c 2
 101.279296875 110.709960938 l 2
 101.279296875 91.1171875 85.373046875 75.2099609375 65.779296875 75.2099609375 c 0xb8
  Spiro
    65.7793 75.21 o
    47.8861 80.0509 o
    35.1231 92.815 o
    30.2793 110.71 o
    30.2793 489.29 o
    35.1198 507.186 o
    47.8835 519.95 o
    65.7793 524.79 o
    83.6756 519.95 o
    96.439 507.186 o
    101.279 489.29 [
    101.279 488.776 v
    133.412 508.14 o
    169.584 520.483 o
    208.64 524.79 o
    298.518 500.453 o
    362.663 436.308 o
    387 346.43 [
    387 110.71 ]
    382.156 92.815 o
    369.393 80.0509 o
    351.5 75.21 o
    333.604 80.0505 o
    320.84 92.8141 o
    316 110.71 [
    316 346.43 ]
    301.361 400.551 o
    262.761 439.151 o
    208.64 453.79 o
    154.518 439.151 o
    115.918 400.551 o
    101.279 346.43 [
    101.279 110.71 ]
    96.439 92.8141 o
    83.6756 80.0505 o
    0 0 z
  EndSpiro
EndSplineSet
Validated: 1
EndChar

StartChar: e
Encoding: 101 101 5
Width: 405
Flags: W
HStem: 75.21 70.9932<139.901 267.382> 264.5 71<95.2793 310> 453.79 71<139.896 265.383>
VStem: 24.2793 71<192.302 264.5 335.5 407.69> 310 71<335.5 407.698>
LayerCount: 2
Fore
SplineSet
202.639648438 75.2099609375 m 4
 104.290039062 75.2099609375 24.279296875 155.209960938 24.279296875 253.5703125 c 6
 24.279296875 346.4296875 l 6
 24.279296875 444.76953125 104.279296875 524.790039062 202.639648438 524.790039062 c 4
 301 524.790039062 381 444.790039062 381 346.4296875 c 6
 381 300 l 6
 381 280.407226562 365.092773438 264.5 345.5 264.5 c 6
 95.279296875 264.5 l 5
 95.279296875 253.5703125 l 6
 95.28125 194.3125 143.391601562 146.203125 202.649414062 146.203125 c 4
 242.624023438 146.203125 277.45703125 167.981445312 295.939453125 200.419921875 c 4
 302.05859375 211.13671875 313.59765625 218.368164062 326.8125 218.368164062 c 4
 346.418945312 218.368164062 362.336914062 202.44921875 362.336914062 182.842773438 c 4
 362.336914062 176.450195312 360.599609375 170.374023438 357.639648438 165.190429688 c 4
 326.833984375 111.396484375 269 75.291015625 202.639648438 75.2099609375 c 4
95.279296875 335.5 m 5
 310 335.5 l 5
 310 346.4296875 l 6
 310 405.68359375 261.893554688 453.790039062 202.639648438 453.790039062 c 4
 143.385742188 453.790039062 95.279296875 405.68359375 95.279296875 346.4296875 c 6
 95.279296875 335.5 l 5
EndSplineSet
Validated: 1
EndChar

StartChar: o
Encoding: 111 111 6
Width: 405
Flags: W
HStem: 75.21 71<139.899 265.381> 453.79 71<139.913 265.366>
VStem: 24.2793 71<192.302 407.69> 310 71<192.31 407.698>
LayerCount: 2
Fore
SplineSet
202.639648438 75.2099609375 m 4
 104.290039062 75.2099609375 24.279296875 155.209960938 24.279296875 253.5703125 c 6
 24.279296875 346.4296875 l 6
 24.279296875 444.76953125 104.279296875 524.790039062 202.639648438 524.790039062 c 4
 301 524.790039062 381 444.790039062 381 346.4296875 c 6
 381 253.5703125 l 6
 381 155.23046875 300.989257812 75.2099609375 202.639648438 75.2099609375 c 4
202.639648438 453.790039062 m 4
 143.416992188 453.723632812 95.345703125 405.653320312 95.279296875 346.4296875 c 6
 95.279296875 253.5703125 l 6
 95.279296875 194.31640625 143.385742188 146.209960938 202.639648438 146.209960938 c 4
 261.893554688 146.209960938 310 194.31640625 310 253.5703125 c 6
 310 346.4296875 l 6
 309.93359375 405.653320312 261.862304688 453.723632812 202.639648438 453.790039062 c 4
EndSplineSet
Validated: 1
EndChar

StartChar: f
Encoding: 102 102 8
Width: 402
Flags: W
HStem: 75.21 21G<128.884 148.476> 75.21 21G<128.884 148.476> 453.79 71<30.9713 103.18 174.18 293.318> 646.593 71.0498<191.554 305.987>
VStem: 103.18 71<78.0019 453.79 524.79 628.682>
LayerCount: 2
Fore
SplineSet
138.6796875 75.2099609375 m 0xb8
 119.088867188 75.2099609375 103.1796875 91.119140625 103.1796875 110.709960938 c 2
 103.1796875 453.790039062 l 1
 63.6796875 453.790039062 l 2
 44.0869140625 453.790039062 28.1796875 469.697265625 28.1796875 489.290039062 c 0
 28.1796875 508.8828125 44.0869140625 524.790039062 63.6796875 524.790039062 c 2
 103.1796875 524.790039062 l 1
 103.1796875 582.142578125 l 2
 103.1796875 656.852539062 163.969726562 717.642578125 238.6796875 717.642578125 c 0
 296.6796875 717.642578125 338.859375 699.443359375 367.790039062 662.002929688 c 0
 372.310546875 656.045898438 374.995117188 648.619140625 374.995117188 640.5703125 c 0
 374.995117188 620.977539062 359.087890625 605.0703125 339.495117188 605.0703125 c 0
 328.172851562 605.0703125 318.112304688 610.327148438 311.609375 618.592773438 c 0
 300.889648438 632.462890625 283.83984375 646.592773438 238.6796875 646.592773438 c 0
 203.1015625 646.548828125 174.223632812 617.670898438 174.1796875 582.092773438 c 2
 174.1796875 524.790039062 l 1
 260.609375 524.790039062 l 2
 280.203125 524.790039062 296.109375 508.8828125 296.109375 489.290039062 c 0
 296.109375 469.697265625 280.203125 453.790039062 260.609375 453.790039062 c 2
 174.1796875 453.790039062 l 1
 174.1796875 110.709960938 l 2
 174.1796875 91.1171875 158.272460938 75.2099609375 138.6796875 75.2099609375 c 0xb8
EndSplineSet
Validated: 1
EndChar

StartChar: g
Encoding: 103 103 9
Width: 410
Flags: W
HStem: -117.641 70.9854<138.726 263.624> 75.21 71<139.617 266.631> 453.79 71<139.619 266.631>
VStem: 24 71<192.31 407.698> 309.721 71<-0.548559 111.15 189.352 410.648 488.85 521.998>
LayerCount: 2
Fore
SplineSet
309.720703125 253.5703125 m 2
 309.720703125 346.4296875 l 2
 309.720703125 405.68359375 261.614257812 453.790039062 202.360351562 453.790039062 c 0
 143.106445312 453.790039062 95 405.68359375 95 346.4296875 c 2
 95 253.5703125 l 2
 95 194.31640625 143.106445312 146.209960938 202.360351562 146.209960938 c 0
 261.614257812 146.209960938 309.720703125 194.31640625 309.720703125 253.5703125 c 2
202.360351562 -117.639648438 m 0
 202.194335938 -117.639648438 202.02734375 -117.640625 201.861328125 -117.640625 c 0
 152.794921875 -117.640625 108.348632812 -97.6796875 76.25 -65.41015625 c 0
 69.8232421875 -58.9833984375 65.8447265625 -50.107421875 65.8447265625 -40.3095703125 c 0
 65.8447265625 -20.716796875 81.751953125 -4.8095703125 101.345703125 -4.8095703125 c 0
 111.140625 -4.8095703125 120.024414062 -8.775390625 126.450195312 -15.2001953125 c 0
 145.8828125 -34.6298828125 172.720703125 -46.6552734375 202.345703125 -46.6552734375 c 0
 261.595703125 -46.6552734375 309.71484375 1.4609375 309.720703125 60.7099609375 c 2
 309.720703125 111.150390625 l 1
 279.868164062 88.5703125 242.690429688 75.2138671875 202.360351562 75.2099609375 c 0
 104 75.2099609375 24 155.23046875 24 253.5703125 c 2
 24 346.4296875 l 2
 24 444.790039062 104.010742188 524.790039062 202.360351562 524.790039062 c 0
 242.690429688 524.786132812 279.868164062 511.4296875 309.720703125 488.849609375 c 1
 309.720703125 489.290039062 l 2
 309.720703125 508.8828125 325.626953125 524.790039062 345.220703125 524.790039062 c 0
 364.813476562 524.790039062 380.720703125 508.8828125 380.720703125 489.290039062 c 2
 380.720703125 60.7099609375 l 2
 380.720703125 -37.6298828125 300.709960938 -117.639648438 202.360351562 -117.639648438 c 0
EndSplineSet
Validated: 1
EndChar

StartChar: h
Encoding: 104 104 10
Width: 415
Flags: W
HStem: 75.21 21G<55.9844 75.5762 341.703 361.296> 75.21 21G<55.9844 75.5762 341.703 361.296> 453.79 71<144.369 271.381> 697.64 20G<55.9829 75.5762>
VStem: 30.2793 71<78.0019 410.648 488.851 714.848> 316 71<78.0016 407.69>
LayerCount: 2
Fore
SplineSet
208.639648438 524.790039062 m 0xbc
 306.989257812 524.790039062 387 444.76953125 387 346.4296875 c 2
 387 110.709960938 l 2
 387 91.1171875 371.092773438 75.2099609375 351.5 75.2099609375 c 0
 331.90625 75.2099609375 316 91.1171875 316 110.709960938 c 2
 316 346.4296875 l 2
 316 405.68359375 267.893554688 453.790039062 208.639648438 453.790039062 c 0
 149.385742188 453.790039062 101.279296875 405.68359375 101.279296875 346.4296875 c 2
 101.279296875 110.709960938 l 2
 101.279296875 91.1171875 85.373046875 75.2099609375 65.779296875 75.2099609375 c 0
 46.189453125 75.2099609375 30.28515625 91.119140625 30.279296875 110.709960938 c 2
 30.279296875 682.139648438 l 2
 30.279296875 701.733398438 46.1865234375 717.639648438 65.779296875 717.639648438 c 0
 85.373046875 717.639648438 101.279296875 701.733398438 101.279296875 682.139648438 c 2
 101.279296875 488.850585938 l 1
 131.131835938 511.431640625 168.309570312 524.790039062 208.639648438 524.790039062 c 0xbc
EndSplineSet
Validated: 1
EndChar

StartChar: i
Encoding: 105 105 11
Width: 157
Flags: W
HStem: 75.21 21G<73.7739 93.3667> 75.21 21G<73.7739 93.3667> 504.79 20G<73.7739 93.3667> 607.14 107.141<40.6426 126.498>
VStem: 30 107.141<617.782 703.638> 48.0703 71<78.0016 521.998>
LayerCount: 2
Fore
SplineSet
30 660.709960938 m 0x38
 30 690.295898438 53.984375 714.280273438 83.5703125 714.280273438 c 0
 113.15625 714.280273438 137.140625 690.295898438 137.140625 660.709960938 c 0
 137.140625 631.124023438 113.15625 607.139648438 83.5703125 607.139648438 c 0
 53.984375 607.139648438 30 631.124023438 30 660.709960938 c 0x38
83.5703125 75.2099609375 m 0xb4
 63.9775390625 75.2099609375 48.0703125 91.1171875 48.0703125 110.709960938 c 2
 48.0703125 489.290039062 l 2
 48.0703125 508.8828125 63.9775390625 524.790039062 83.5703125 524.790039062 c 0
 103.163085938 524.790039062 119.0703125 508.8828125 119.0703125 489.290039062 c 2
 119.0703125 110.709960938 l 2
 119.0703125 91.1171875 103.163085938 75.2099609375 83.5703125 75.2099609375 c 0xb4
EndSplineSet
Validated: 1
EndChar

StartChar: j
Encoding: 106 106 12
Width: 391
Flags: W
HStem: -118 71<102.638 228.073> 505 20G<297.5 317> 607.14 106.86<264.609 350.324>
VStem: 254 107<617.782 703.391> 272 71<-0.602692 522.188>
LayerCount: 2
Fore
SplineSet
166 -118 m 0xe8
 117 -118 72 -98 41 -65 c 0
 34 -59 30 -50 30 -40 c 0
 30 -21 46 -5 66 -5 c 0
 76 -5 85 -9 91 -15 c 0
 110 -35 137 -47 166 -47 c 0
 224 -47 272 2 272 61 c 2
 272 489 l 2
 272 509 288 525 307 525 c 0
 327 525 343 509 343 489 c 2
 343 61 l 2
 343 -38 264 -118 166 -118 c 0xe8
254 661 m 0xf0
 254 690 278 714 307 714 c 0
 337 714 361 690.295898438 361 660.709960938 c 0
 361 631.124023438 337.015625 607.139648438 307.4296875 607.139648438 c 0
 277.84375 607.139648438 254 631 254 661 c 0xf0
EndSplineSet
Validated: 5
EndChar

StartChar: k
Encoding: 107 107 13
Width: 417
Flags: W
HStem: 75.21 21G<55.9951 75.5869 346.616 361.296> 75.21 21G<55.9951 75.5869 346.616 361.296> 504.996 20G<319.606 329.404> 697.64 20G<55.9937 75.5869>
VStem: 30.29 71<78.0019 217.327 317.458 714.848>
LayerCount: 2
Fore
SplineSet
65.7900390625 75.2099609375 m 0xb8
 46.2001953125 75.2099609375 30.2958984375 91.119140625 30.2900390625 110.709960938 c 2
 30.2900390625 682.139648438 l 2
 30.2900390625 701.733398438 46.197265625 717.639648438 65.7900390625 717.639648438 c 0
 85.3837890625 717.639648438 101.290039062 701.733398438 101.290039062 682.139648438 c 2
 101.290039062 317.458007812 l 1
 299.440429688 514.650390625 l 2
 305.861328125 521.041992188 314.72265625 524.99609375 324.490234375 524.99609375 c 0
 334.318359375 524.99609375 343.219726562 520.993164062 349.650390625 514.530273438 c 0
 356.044921875 508.110351562 360 499.249023438 360 489.48046875 c 0
 360 479.65625 356 470.758789062 349.540039062 464.330078125 c 2
 198.475585938 314.024414062 l 1
 376.55078125 136.73046875 l 2
 383.010742188 130.299804688 387 121.391601562 387 111.565429688 c 0
 387 91.97265625 371.092773438 76.0654296875 351.5 76.0654296875 c 0
 341.732421875 76.0654296875 332.881835938 80.017578125 326.459960938 86.41015625 c 2
 148.15234375 263.954101562 l 1
 101.290039062 217.327148438 l 1
 101.290039062 110.709960938 l 2
 101.290039062 91.1171875 85.3837890625 75.2099609375 65.7900390625 75.2099609375 c 0xb8
EndSplineSet
Validated: 1
EndChar

StartChar: l
Encoding: 108 108 14
Width: 224
Flags: W
HStem: 75.21 71<105.304 191.208> 697.64 20G<55.8438 75.437>
VStem: 30.1406 71<150.374 714.848>
LayerCount: 2
Fore
SplineSet
158.5 75.2099609375 m 2
 137.0703125 75.2099609375 l 2
 78.0849609375 75.2763671875 30.2060546875 123.154296875 30.140625 182.139648438 c 2
 30.140625 682.139648438 l 2
 30.140625 701.733398438 46.046875 717.639648438 65.640625 717.639648438 c 0
 85.2333984375 717.639648438 101.140625 701.733398438 101.140625 682.139648438 c 2
 101.140625 182.139648438 l 2
 101.178710938 162.327148438 117.2578125 146.248046875 137.0703125 146.209960938 c 2
 158.5 146.209960938 l 2
 178.09375 146.209960938 194 130.302734375 194 110.709960938 c 0
 194 91.1171875 178.09375 75.2099609375 158.5 75.2099609375 c 2
EndSplineSet
Validated: 1
EndChar

StartChar: m
Encoding: 109 109 15
Width: 700
Flags: W
HStem: 75 21G<55 75 341 360.5 626.5 646> 75 21G<55 75 341 360.5 626.5 646> 453 72<143.833 272.213 430.609 556.382>
VStem: 30 71<78.3173 410.189 489 522.333> 315 71<78.2344 408.126> 601 71<78.2344 408.08>
LayerCount: 2
Fore
SplineSet
65 75 m 0xbc
 45 75 30 92 30 111 c 0
 30 489 l 0
 30 509 45 525 65 525 c 0
 85 525 101 516 101 497 c 2
 101 489 l 1
 130 512 168 525 208 525 c 0
 266 525 318 497 351 453 c 1
 383 497 435 525 494 525 c 0
 592 525 672 445 672 347 c 2
 672 111 l 2
 672 94 656 75 636 75 c 0
 617 75 601 94 601 111 c 2
 601 347 l 2
 600 405 553 453 494 453 c 0
 435 453 387 405 386 347 c 2
 386 111 l 2
 386 94 370 75 351 75 c 0
 331 75 315 94 315 111 c 2
 315 347 l 2
 315 405 267 453 208 453 c 0
 149 453 101 405 101 347 c 6
 101 111 l 2
 101 94 85 75 65 75 c 0xbc
EndSplineSet
Validated: 1
EndChar

StartChar: p
Encoding: 112 112 16
Width: 411
Flags: W
HStem: 75.21 71<144.369 271.383> 453.79 71<144.369 271.381>
VStem: 30.2793 71<-114.848 111.15 189.352 410.648 488.85 521.998> 316 71<192.31 407.698>
LayerCount: 2
Fore
SplineSet
65.779296875 -117.639648438 m 0
 46.1865234375 -117.639648438 30.279296875 -101.733398438 30.279296875 -82.1396484375 c 2
 30.279296875 489.290039062 l 2
 30.279296875 508.8828125 46.1865234375 524.790039062 65.779296875 524.790039062 c 0
 85.373046875 524.790039062 101.279296875 508.8828125 101.279296875 489.290039062 c 2
 101.279296875 488.849609375 l 1
 131.131835938 511.4296875 168.309570312 524.786132812 208.639648438 524.790039062 c 0
 306.989257812 524.790039062 387 444.790039062 387 346.4296875 c 2
 387 253.5703125 l 2
 387 155.23046875 307 75.2099609375 208.639648438 75.2099609375 c 0
 168.309570312 75.2138671875 131.131835938 88.5703125 101.279296875 111.150390625 c 1
 101.279296875 -82.1396484375 l 2
 101.279296875 -101.733398438 85.373046875 -117.639648438 65.779296875 -117.639648438 c 0
101.279296875 346.4296875 m 2
 101.279296875 253.5703125 l 1
 101.279296875 194.31640625 149.385742188 146.209960938 208.639648438 146.209960938 c 0
 267.893554688 146.209960938 316 194.31640625 316 253.5703125 c 2
 316 346.4296875 l 2
 316 405.68359375 267.893554688 453.790039062 208.639648438 453.790039062 c 0
 149.385742188 453.790039062 101.279296875 405.68359375 101.279296875 346.4296875 c 2
EndSplineSet
Validated: 1
EndChar

StartChar: q
Encoding: 113 113 17
Width: 410
Flags: W
HStem: 75.21 71<139.617 266.631> 453.79 71<139.619 266.631>
VStem: 24 71<192.31 407.698> 309.721 71<-114.848 111.15 189.352 410.648 488.85 521.998>
LayerCount: 2
Fore
SplineSet
345.220703125 -117.639648438 m 0
 325.626953125 -117.639648438 309.720703125 -101.733398438 309.720703125 -82.1396484375 c 2
 309.720703125 111.150390625 l 1
 279.868164062 88.5703125 242.690429688 75.2138671875 202.360351562 75.2099609375 c 0
 104 75.2099609375 24 155.23046875 24 253.5703125 c 2
 24 346.4296875 l 2
 24 444.790039062 104.010742188 524.790039062 202.360351562 524.790039062 c 0
 242.690429688 524.786132812 279.868164062 511.4296875 309.720703125 488.849609375 c 1
 309.720703125 489.290039062 l 2
 309.720703125 508.8828125 325.626953125 524.790039062 345.220703125 524.790039062 c 0
 364.813476562 524.790039062 380.720703125 508.8828125 380.720703125 489.290039062 c 2
 380.720703125 -82.1396484375 l 2
 380.720703125 -101.733398438 364.813476562 -117.639648438 345.220703125 -117.639648438 c 0
309.720703125 253.5703125 m 2
 309.720703125 346.4296875 l 1
 309.720703125 405.68359375 261.614257812 453.790039062 202.360351562 453.790039062 c 0
 143.106445312 453.790039062 95 405.68359375 95 346.4296875 c 2
 95 253.5703125 l 2
 95 194.31640625 143.106445312 146.209960938 202.360351562 146.209960938 c 0
 261.614257812 146.209960938 309.720703125 194.31640625 309.720703125 253.5703125 c 2
EndSplineSet
Validated: 1
EndChar

StartChar: r
Encoding: 114 114 18
Width: 274
Flags: W
HStem: 75.21 21G<55.8452 75.437> 75.21 21G<55.8452 75.437> 453.79 71<144.315 241.208>
VStem: 30.1406 71<78.0019 410.616 488.851 521.998>
LayerCount: 2
Fore
SplineSet
208.5 524.790039062 m 0xb0
 228.09375 524.790039062 244 508.8828125 244 489.290039062 c 0
 244 469.697265625 228.09375 453.790039062 208.5 453.790039062 c 0
 149.27734375 453.723632812 101.206054688 405.653320312 101.140625 346.4296875 c 2
 101.140625 110.709960938 l 2
 101.140625 91.1171875 85.2333984375 75.2099609375 65.640625 75.2099609375 c 0
 46.0498046875 75.2099609375 30.1455078125 91.119140625 30.140625 110.709960938 c 2
 30.140625 489.290039062 l 2
 30.140625 508.8828125 46.046875 524.790039062 65.640625 524.790039062 c 0
 85.2333984375 524.790039062 101.140625 508.8828125 101.140625 489.290039062 c 2
 101.140625 488.850585938 l 1
 130.993164062 511.431640625 168.169921875 524.790039062 208.5 524.790039062 c 0xb0
EndSplineSet
Validated: 1
EndChar

StartChar: s
Encoding: 115 115 19
Width: 380
Flags: W
HStem: 75.21 71<97.5933 266.683> 264.5 71<113.34 266.707> 453.79 71<113.34 282.407>
VStem: 28 71.6328<349.605 439.681> 280.367 71.6328<160.319 250.395>
LayerCount: 2
Fore
SplineSet
222.049804688 75.2099609375 m 2
 190 75.2099609375 l 2
 122.650390625 75.2099609375 84.6201171875 86.1201171875 49.6796875 115.469726562 c 0
 41.865234375 121.984375 36.888671875 131.790039062 36.888671875 142.749023438 c 0
 36.888671875 162.341796875 52.7958984375 178.249023438 72.388671875 178.249023438 c 0
 81.1162109375 178.249023438 89.1552734375 175.072265625 95.33984375 169.83984375 c 0
 111.280273438 156.450195312 128.33984375 146.209960938 190 146.209960938 c 2
 222 146.209960938 l 2
 254.28515625 146.629882812 280.3671875 172.970703125 280.3671875 205.354492188 c 0
 280.3671875 237.739257812 254.28515625 264.080078125 222 264.5 c 2
 158 264.5 l 2
 86.2998046875 264.5 28 322.879882812 28 394.639648438 c 0
 28 466.400390625 86.2998046875 524.790039062 158 524.790039062 c 2
 190 524.790039062 l 2
 257.349609375 524.790039062 295.379882812 513.879882812 330.3203125 484.530273438 c 0
 338.134765625 478.015625 343.111328125 468.209960938 343.111328125 457.250976562 c 0
 343.111328125 437.658203125 327.204101562 421.750976562 307.611328125 421.750976562 c 0
 298.883789062 421.750976562 290.844726562 424.927734375 284.66015625 430.16015625 c 0
 268.719726562 443.549804688 251.66015625 453.790039062 190 453.790039062 c 2
 158 453.790039062 l 2
 125.71484375 453.370117188 99.6328125 427.029296875 99.6328125 394.645507812 c 0
 99.6328125 362.260742188 125.71484375 335.919921875 158 335.5 c 2
 222.099609375 335.5 l 2
 293.700195312 335.5 352 277.120117188 352 205.360351562 c 0
 352 133.599609375 293.700195312 75.2099609375 222.049804688 75.2099609375 c 2
EndSplineSet
Validated: 1
EndChar

StartChar: t
Encoding: 116 116 20
Width: 299
Flags: W
HStem: 75.21 71<180.304 266.208> 453.79 71<32.9313 105.14 176.14 248.348>
VStem: 105.14 71<150.374 453.79 524.79 639.848>
LayerCount: 2
Fore
SplineSet
233.5 75.2099609375 m 2
 212.069335938 75.2099609375 l 2
 153.083984375 75.2763671875 105.206054688 123.154296875 105.139648438 182.139648438 c 2
 105.139648438 453.790039062 l 1
 65.6396484375 453.790039062 l 2
 46.046875 453.790039062 30.1396484375 469.697265625 30.1396484375 489.290039062 c 0
 30.1396484375 508.8828125 46.046875 524.790039062 65.6396484375 524.790039062 c 2
 105.139648438 524.790039062 l 1
 105.139648438 607.139648438 l 2
 105.139648438 626.733398438 121.046875 642.639648438 140.639648438 642.639648438 c 0
 160.232421875 642.639648438 176.139648438 626.733398438 176.139648438 607.139648438 c 2
 176.139648438 524.790039062 l 1
 215.639648438 524.790039062 l 2
 235.232421875 524.790039062 251.139648438 508.8828125 251.139648438 489.290039062 c 0
 251.139648438 469.697265625 235.232421875 453.790039062 215.639648438 453.790039062 c 2
 176.139648438 453.790039062 l 1
 176.139648438 182.139648438 l 2
 176.177734375 162.327148438 192.256835938 146.248046875 212.069335938 146.209960938 c 2
 233.5 146.209960938 l 2
 253.092773438 146.209960938 269 130.302734375 269 110.709960938 c 0
 269 91.1171875 253.092773438 75.2099609375 233.5 75.2099609375 c 2
EndSplineSet
Validated: 1
EndChar

StartChar: u
Encoding: 117 117 21
Width: 414
Flags: W
HStem: 75.21 71<143.619 270.614> 75.21 21G<339.424 359.016> 504.79 20G<53.7036 73.2969 339.424 359.017>
VStem: 28 71<192.302 521.998> 313.721 71<78.0019 111.228 189.352 521.998>
LayerCount: 2
Fore
SplineSet
349.220703125 75.2099609375 m 4x78
 329.626953125 75.2099609375 313.720703125 91.1171875 313.720703125 110.709960938 c 6
 313.720703125 111.227539062 l 5
 283.83203125 88.6279296875 246.633789062 75.2099609375 206.360351562 75.2099609375 c 4
 108.010742188 75.2099609375 28 155.209960938 28 253.5703125 c 6
 28 489.290039062 l 6
 28 508.8828125 43.9072265625 524.790039062 63.5 524.790039062 c 4
 83.09375 524.790039062 99 508.8828125 99 489.290039062 c 6
 99 253.5703125 l 6
 99 194.31640625 147.106445312 146.209960938 206.360351562 146.209960938 c 4xb8
 265.614257812 146.209960938 313.720703125 194.31640625 313.720703125 253.5703125 c 6
 313.720703125 489.290039062 l 6
 313.720703125 508.8828125 329.626953125 524.790039062 349.220703125 524.790039062 c 4
 368.813476562 524.790039062 384.720703125 508.8828125 384.720703125 489.290039062 c 4
 384.720703125 110.709960938 l 4
 384.71484375 91.119140625 368.810546875 75.2099609375 349.220703125 75.2099609375 c 4x78
EndSplineSet
Validated: 1
EndChar

StartChar: v
Encoding: 118 118 22
Width: 417
Flags: W
HStem: 75.21 21G<201.034 216.225> 75.21 21G<201.034 216.225> 504.771 20G<55.9917 73.3828 343.905 361.296>
VStem: 30.2871 68.7041<501.82 521.892> 318.271 68.7295<501.82 521.916>
LayerCount: 2
Fore
SplineSet
208.630859375 75.2099609375 m 0xb8
 193.436523438 75.2138671875 180.473632812 84.771484375 175.420898438 98.2099609375 c 2
 32.560546875 476.75 l 2
 31.0908203125 480.643554688 30.287109375 484.86328125 30.287109375 489.268554688 c 0
 30.287109375 508.862304688 46.1943359375 524.770507812 65.7890625 524.770507812 c 0
 80.9765625 524.770507812 93.9248046875 515.244140625 98.9912109375 501.8203125 c 2
 208.630859375 211.259765625 l 1
 318.270507812 501.8203125 l 2
 323.336914062 515.244140625 336.310546875 524.802734375 351.499023438 524.802734375 c 0
 371.092773438 524.802734375 387 508.89453125 387 489.30078125 c 0
 387 484.895507812 386.170898438 480.643554688 384.701171875 476.75 c 2
 241.840820312 98.1796875 l 2
 236.779296875 84.75390625 223.818359375 75.2099609375 208.630859375 75.2099609375 c 0xb8
EndSplineSet
Validated: 1
EndChar

StartChar: w
Encoding: 119 119 23
Width: 603
Flags: W
HStem: 75.2129 21G<175.755 191.674 411.526 427.436> 75.2129 21G<175.755 191.674 411.526 427.436> 504.785 20G<56.1128 73.8687 293.746 309.664 529.541 547.296>
VStem: 30.4092 69.3877<477.365 521.909> 503.598 69.4023<477.365 521.91>
LayerCount: 2
Fore
SplineSet
419.477539062 75.2099609375 m 0xb8
 403.57421875 75.2294921875 390.11328125 85.724609375 385.6171875 100.16015625 c 2
 301.6171875 369.860351562 l 1
 217.6171875 100.16015625 l 2
 213.119140625 85.7138671875 199.633789062 75.212890625 183.71484375 75.212890625 c 0
 167.795898438 75.212890625 154.325195312 85.7138671875 149.827148438 100.16015625 c 2
 32.0068359375 478.73046875 l 2
 30.96875 482.064453125 30.4091796875 485.610351562 30.4091796875 489.284179688 c 0
 30.4091796875 508.877929688 46.31640625 524.78515625 65.9091796875 524.78515625 c 0
 81.828125 524.78515625 95.298828125 514.286132812 99.796875 499.83984375 c 2
 183.796875 230.139648438 l 1
 267.796875 499.83984375 l 2
 272.30078125 514.283203125 285.787109375 524.779296875 301.705078125 524.779296875 c 0
 317.622070312 524.779296875 331.09375 514.283203125 335.59765625 499.83984375 c 2
 419.59765625 230.139648438 l 1
 503.59765625 499.83984375 l 2
 508.095703125 514.286132812 521.581054688 524.786132812 537.5 524.786132812 c 0
 557.092773438 524.786132812 573 508.87890625 573 489.28515625 c 0
 573 485.610351562 572.42578125 482.064453125 571.38671875 478.73046875 c 2
 453.3671875 100.16015625 l 2
 448.87109375 85.7138671875 435.39453125 75.212890625 419.477539062 75.2099609375 c 0xb8
EndSplineSet
Validated: 1
EndChar

StartChar: x
Encoding: 120 120 24
Width: 417
Flags: W
HStem: 75.1807 21.0293G<65.8096 71.6045 345.716 361.338> 75.1807 21.0293G<65.8096 71.6045 345.716 361.338> 504.951 20G<55.8862 71.5161 345.647 361.189>
LayerCount: 2
Fore
SplineSet
351.548828125 75.2099609375 m 6xa0
 351.548828125 75.2099609375 351.518554688 75.2099609375 351.502929688 75.2099609375 c 4
 339.928710938 75.2099609375 329.66015625 80.7392578125 323.188476562 89.330078125 c 2
 208.668945312 241.0703125 l 1
 94.1494140625 89.330078125 l 2
 87.677734375 80.7392578125 77.3916015625 75.1806640625 65.8173828125 75.1806640625 c 0
 65.8017578125 75.1806640625 65.7890625 75.2099609375 65.7890625 75.2099609375 c 1
 46.2099609375 75.2333984375 30.322265625 91.1357421875 30.322265625 110.719726562 c 0
 30.322265625 118.731445312 32.99609375 126.15625 37.478515625 132.099609375 c 2
 164.194335938 300 l 1
 37.478515625 467.900390625 l 2
 32.9033203125 473.876953125 30.1826171875 481.349609375 30.1826171875 489.451171875 c 0
 30.1826171875 509.043945312 46.08984375 524.951171875 65.6826171875 524.951171875 c 0
 77.349609375 524.951171875 87.67578125 519.370117188 94.1494140625 510.669921875 c 2
 208.668945312 358.9296875 l 1
 323.188476562 510.669921875 l 2
 329.678710938 519.147460938 339.90234375 524.618164062 351.392578125 524.618164062 c 0
 370.985351562 524.618164062 386.892578125 508.711914062 386.892578125 489.118164062 c 0
 386.892578125 481.192382812 384.256835938 473.810546875 379.859375 467.900390625 c 2
 253.143554688 300 l 1
 379.859375 132.099609375 l 2
 384.341796875 126.15625 387 118.760742188 387 110.749023438 c 0
 387 91.1650390625 371.127929688 75.2333984375 351.548828125 75.2099609375 c 6xa0
EndSplineSet
Validated: 1
EndChar

StartChar: y
Encoding: 121 121 25
Width: 414
Flags: W
HStem: -117.641 70.9854<142.726 267.624> 75.21 71<143.619 270.614> 504.79 20G<53.7036 73.2969 339.424 359.017>
VStem: 28 71<192.302 521.998> 313.721 71<-0.548559 111.225 189.352 521.998>
LayerCount: 2
Fore
SplineSet
206.360351562 75.2099609375 m 4
 108.010742188 75.2099609375 28 155.209960938 28 253.5703125 c 6
 28 489.290039062 l 6
 28 508.8828125 43.9072265625 524.790039062 63.5 524.790039062 c 4
 83.09375 524.790039062 99 508.8828125 99 489.290039062 c 6
 99 253.5703125 l 6
 99 194.31640625 147.106445312 146.209960938 206.360351562 146.209960938 c 4
 265.614257812 146.209960938 313.720703125 194.31640625 313.720703125 253.5703125 c 6
 313.720703125 489.290039062 l 6
 313.720703125 508.8828125 329.626953125 524.790039062 349.220703125 524.790039062 c 4
 368.813476562 524.790039062 384.720703125 508.8828125 384.720703125 489.290039062 c 4
 384.720703125 60.7099609375 l 4
 384.720703125 -37.6298828125 304.709960938 -117.639648438 206.360351562 -117.639648438 c 4
 206.194335938 -117.639648438 206.02734375 -117.640625 205.861328125 -117.640625 c 4
 156.794921875 -117.640625 112.348632812 -97.6796875 80.25 -65.41015625 c 4
 73.8232421875 -58.9833984375 69.8447265625 -50.107421875 69.8447265625 -40.3095703125 c 4
 69.8447265625 -20.716796875 85.751953125 -4.8095703125 105.345703125 -4.8095703125 c 4
 115.140625 -4.8095703125 124.024414062 -8.775390625 130.450195312 -15.2001953125 c 4
 149.8828125 -34.6298828125 176.720703125 -46.6552734375 206.345703125 -46.6552734375 c 4
 265.595703125 -46.6552734375 313.71484375 1.4609375 313.720703125 60.7099609375 c 6
 313.720703125 111.224609375 l 5
 283.83203125 88.6259765625 246.633789062 75.2099609375 206.360351562 75.2099609375 c 4
EndSplineSet
Validated: 1
EndChar

StartChar: z
Encoding: 122 122 26
Width: 417
Flags: W
HStem: 75.21 71<137.05 384.208> 453.79 71<33.0709 280.229>
LayerCount: 2
Fore
SplineSet
351.5 75.2099609375 m 2
 65.779296875 75.2099609375 l 2
 46.19140625 75.22265625 30.2919921875 91.12890625 30.2919921875 110.719726562 c 0
 30.2919921875 118.731445312 32.966796875 126.15625 37.44921875 132.099609375 c 2
 280.229492188 453.790039062 l 1
 65.779296875 453.790039062 l 2
 46.1865234375 453.790039062 30.279296875 469.697265625 30.279296875 489.290039062 c 0
 30.279296875 508.8828125 46.1865234375 524.790039062 65.779296875 524.790039062 c 2
 351.5 524.790039062 l 2
 371.087890625 524.77734375 386.987304688 508.87109375 386.987304688 489.280273438 c 0
 386.987304688 481.268554688 384.3125 473.84375 379.830078125 467.900390625 c 2
 137.049804688 146.209960938 l 1
 351.5 146.209960938 l 2
 371.092773438 146.209960938 387 130.302734375 387 110.709960938 c 0
 387 91.1171875 371.092773438 75.2099609375 351.5 75.2099609375 c 2
EndSplineSet
Validated: 1
EndChar

StartChar: fi
Encoding: 256 64257 27
Width: 443
GlyphClass: 3
Flags: W
HStem: 75 21G<129 148.5 369.5 389> 75 21G<129 148.5 369.5 389> 453 71<30.8125 103 174 344> 647 71<192.283 345.189>
VStem: 103 71<77.8125 453 524 628.717> 344 71<77.8125 453>
LayerCount: 2
Fore
SplineSet
379 524 m 2xbc
 399 524 415 508 415 489 c 2
 415 111 l 2
 415 91 399 75 379 75 c 0
 360 75 344 91 344 111 c 2
 344 453 l 1
 174 453 l 1
 174 111 l 2
 174 91 158 75 139 75 c 0
 119 75 103 91 103 111 c 2
 103 453 l 1
 64 453 l 2
 44 453 28 469 28 489 c 0
 28 508 44 524 64 524 c 2
 103 524 l 1
 103 582 l 2
 103 657 164 718 239 718 c 2
 278 718 l 2
 336 718 378 700 407 662 c 0
 412 656 415 649 415 641 c 0
 415 621 399 605 379 605 c 0
 368 605 358 610 351 619 c 0
 341 632 324 647 278 647 c 2
 239 647 l 2
 203 647 174 618 174 582 c 2
 174 524 l 1
 379 524 l 2xbc
EndSplineSet
Validated: 1
Ligature2: "'liga'-1" f i
LCarets2: 1 0
EndChar

StartChar: slash
Encoding: 47 47 28
Width: 325
Flags: W
VStem: 19.8291 69.5488<-75.5669 -29.0282>
LayerCount: 2
Fore
SplineSet
55.337890625 -78.3701171875 m 0
 35.7373046875 -78.353515625 19.8291015625 -62.4345703125 19.8291015625 -42.830078125 c 0
 19.8291015625 -39.3642578125 20.3310546875 -36.017578125 21.2587890625 -32.849609375 c 2
 235.547851562 696.709960938 l 2
 239.99609375 711.239257812 253.522460938 721.817382812 269.5 721.817382812 c 0
 289.09375 721.817382812 305 705.91015625 305 686.317382812 c 0
 305 682.985351562 304.528320312 679.768554688 303.66796875 676.709960938 c 2
 89.3779296875 -52.8603515625 l 2
 85.056640625 -67.583984375 71.44921875 -78.35546875 55.337890625 -78.3701171875 c 0
EndSplineSet
Validated: 1
EndChar

StartChar: A
Encoding: 65 65 29
Width: 510
Flags: W
HStem: 75.208 20.9922G<56.1387 73.7832 436.648 454.303> 75.208 20.9922G<56.1387 73.7832 436.648 454.303> 266.37 71<178.418 332.021> 697.654 20G<247.385 263.082>
VStem: 30.4336 69.2109<78.0069 99.5498> 410.784 69.2158<77.9995 99.5498>
LayerCount: 2
Fore
SplineSet
444.50390625 75.2001953125 m 4xbc
 428.791992188 75.2001953125 415.465820312 85.4091796875 410.784179688 99.5498046875 c 6
 355.53511573 266.370117188 l 5
 154.900878832 266.370117188 l 5
 99.64453125 99.5498046875 l 6
 94.9619140625 85.416015625 81.630859375 75.2080078125 65.935546875 75.2080078125 c 4
 46.341796875 75.2080078125 30.43359375 91.1162109375 30.43359375 110.709960938 c 4
 30.43359375 114.607421875 31.0810546875 118.370117188 32.244140625 121.879882812 c 6
 221.524414062 693.309570312 l 6
 226.205078125 707.4453125 239.536132812 717.654296875 255.233398438 717.654296875 c 4
 270.9296875 717.654296875 284.243164062 707.4453125 288.923828125 693.309570312 c 6
 478.213867188 121.879882812 l 6
 479.373046875 118.374023438 480 114.626953125 480 110.735351562 c 4
 480 91.1337890625 464.1015625 75.2001953125 444.50390625 75.2001953125 c 4xbc
178.418402685 337.370117188 m 5
 332.020691843 337.370117188 l 5
 255.224609375 569.25 l 5
 178.418402685 337.370117188 l 5
EndSplineSet
Validated: 1
EndChar

StartChar: B
Encoding: 66 66 30
Width: 510
Flags: W
HStem: 75.2002 71<101.42 362.899> 360.92 70.9902<101.42 363.961> 646.62 71<101.42 362.908>
VStem: 30.4199 71<146.2 360.92 431.91 646.62> 409.128 70.873<192.292 317.188 477.482 600.524>
LayerCount: 2
Fore
SplineSet
408.490234375 396.41015625 m 1
 415.349609375 391.256835938 421.705078125 385.737304688 427.759765625 379.680664062 c 0
 460.036132812 347.573242188 480.000976562 303.116210938 480.000976562 254.038085938 c 0
 480.000976562 253.87890625 480 253.719726562 480 253.560546875 c 0
 480 155.200195312 399.979492188 75.2001953125 301.639648438 75.2001953125 c 2
 65.919921875 75.2001953125 l 2
 46.3291015625 75.2060546875 30.42578125 91.109375 30.419921875 110.700195312 c 2
 30.419921875 682.120117188 l 2
 30.419921875 701.712890625 46.3271484375 717.620117188 65.919921875 717.620117188 c 2
 301.639648438 717.620117188 l 2
 400 717.620117188 480 637.610351562 480 539.259765625 c 0
 480 539.098632812 480.02734375 538.923828125 480.02734375 538.762695312 c 0
 480.02734375 489.690429688 460.036132812 445.25 427.759765625 413.150390625 c 0
 421.702148438 407.092773438 415.34765625 401.5703125 408.490234375 396.41015625 c 1
101.419921875 646.620117188 m 1
 101.419921875 431.91015625 l 1
 301.900390625 431.91015625 l 2
 360.611328125 432.543945312 408.084960938 480.404296875 408.084960938 539.263671875 c 0
 408.084960938 598.212890625 360.47265625 646.127929688 301.639648438 646.620117188 c 2
 101.419921875 646.620117188 l 1
301.639648438 146.200195312 m 2
 301.684570312 146.200195312 301.723632812 146.200195312 301.767578125 146.200195312 c 0
 361.021484375 146.200195312 409.127929688 194.306640625 409.127929688 253.560546875 c 0
 409.127929688 312.76953125 361.092773438 360.848632812 301.900390625 360.919921875 c 2
 101.419921875 360.919921875 l 1
 101.419921875 146.200195312 l 1
 301.639648438 146.200195312 l 2
EndSplineSet
Validated: 1
EndChar

StartChar: C
Encoding: 67 67 31
Width: 510
Flags: W
HStem: 75.2002 71.0098<178.129 331.871> 646.63 71.0098<178.129 331.871>
VStem: 30.21 71<223.51 569.328> 408.79 71<223.515 335.048 457.801 569.332>
LayerCount: 2
Fore
SplineSet
255 75.2001953125 m 0
 130.934570312 75.2001953125 30.2099609375 175.934570312 30.2099609375 300 c 2
 30.2099609375 492.849609375 l 2
 30.2099609375 616.915039062 130.934570312 717.639648438 255 717.639648438 c 0
 379.065429688 717.639648438 479.790039062 616.915039062 479.790039062 492.849609375 c 2
 479.790039062 490.509765625 l 2
 479.790039062 470.916992188 463.8828125 455.009765625 444.290039062 455.009765625 c 0
 424.697265625 455.009765625 408.790039062 470.916992188 408.790039062 490.509765625 c 2
 408.790039062 492.849609375 l 2
 408.790039062 577.639648438 339.790039062 646.629882812 255 646.629882812 c 0
 170.209960938 646.629882812 101.209960938 577.629882812 101.209960938 492.849609375 c 2
 101.209960938 300 l 2
 101.209960938 215.200195312 170.209960938 146.209960938 255 146.209960938 c 0
 339.790039062 146.209960938 408.790039062 215.209960938 408.790039062 300 c 2
 408.790039062 302.33984375 l 2
 408.790039062 321.932617188 424.697265625 337.83984375 444.290039062 337.83984375 c 0
 463.8828125 337.83984375 479.790039062 321.932617188 479.790039062 302.33984375 c 2
 479.790039062 300 l 2
 479.790039062 175.934570312 379.065429688 75.2001953125 255 75.2001953125 c 0
EndSplineSet
Validated: 1
EndChar

StartChar: D
Encoding: 68 68 32
Width: 511
Flags: W
HStem: 75.2002 71<100.594 285.2> 646.63 71<100.594 285.201>
VStem: 29.5938 71<146.2 646.63> 408.174 71<269.174 523.657>
LayerCount: 2
Fore
SplineSet
193.673828125 75.2001953125 m 2
 65.09375 75.2001953125 l 2
 45.5029296875 75.2060546875 29.599609375 91.109375 29.59375 110.700195312 c 2
 29.59375 682.129882812 l 2
 29.59375 701.723632812 45.5009765625 717.629882812 65.09375 717.629882812 c 2
 193.673828125 717.629882812 l 2
 351.245117188 717.629882812 479.173828125 589.702148438 479.173828125 432.129882812 c 2
 479.173828125 360.700195312 l 2
 479.16796875 203.130859375 351.243164062 75.2060546875 193.673828125 75.2001953125 c 2
100.59375 146.200195312 m 1
 193.673828125 146.200195312 l 2
 311.943359375 146.200195312 408.173828125 242.430664062 408.173828125 360.700195312 c 2
 408.173828125 432.129882812 l 2
 408.173828125 550.41015625 311.943359375 646.629882812 193.673828125 646.629882812 c 2
 100.59375 646.629882812 l 1
 100.59375 146.200195312 l 1
EndSplineSet
EndChar

StartChar: E
Encoding: 69 69 33
Width: 417
Flags: W
HStem: 75.2002 71<101.279 384.208> 360.92 71<101.279 284.778> 646.63 71<101.279 384.208>
VStem: 30.2793 71<146.2 360.92 431.92 646.63>
LayerCount: 2
Fore
SplineSet
351.5 146.200195312 m 6
 371.092773438 146.200195312 387 130.29296875 387 110.700195312 c 4
 387 91.107421875 371.092773438 75.2001953125 351.5 75.2001953125 c 6
 65.779296875 75.2001953125 l 6
 46.189453125 75.205078125 30.28515625 91.109375 30.279296875 110.700195312 c 6
 30.279296875 682.129882812 l 6
 30.279296875 701.72265625 46.1865234375 717.629882812 65.779296875 717.629882812 c 6
 351.5 717.629882812 l 6
 371.092773438 717.629882812 387 701.72265625 387 682.129882812 c 4
 387 662.537109375 371.092773438 646.629882812 351.5 646.629882812 c 6
 101.279296875 646.629882812 l 5
 101.279296875 431.919921875 l 5
 252.069335938 431.919921875 l 6
 271.663085938 431.919921875 287.569335938 416.012695312 287.569335938 396.419921875 c 4
 287.569335938 376.827148438 271.663085938 360.919921875 252.069335938 360.919921875 c 6
 101.279296875 360.919921875 l 5
 101.279296875 146.200195312 l 5
 351.5 146.200195312 l 6
EndSplineSet
Validated: 1
EndChar

StartChar: F
Encoding: 70 70 34
Width: 397
Flags: W
HStem: 75.2002 21G<45.9829 65.5762> 75.2002 21G<45.9829 65.5762> 360.92 71<91.2793 274.208> 646.63 71<91.2793 374.208>
VStem: 20.2793 71<77.9918 360.92 431.92 646.63>
LayerCount: 2
Fore
SplineSet
341.5 717.629882812 m 2xb8
 361.092773438 717.629882812 377 701.72265625 377 682.129882812 c 0
 377 662.537109375 361.092773438 646.629882812 341.5 646.629882812 c 2
 91.279296875 646.629882812 l 1
 91.279296875 431.919921875 l 1
 241.5 431.919921875 l 2
 261.092773438 431.919921875 277 416.012695312 277 396.419921875 c 0
 277 376.827148438 261.092773438 360.919921875 241.5 360.919921875 c 2
 91.279296875 360.919921875 l 1
 91.279296875 110.700195312 l 2
 91.279296875 91.107421875 75.373046875 75.2001953125 55.779296875 75.2001953125 c 0
 36.1865234375 75.2001953125 20.279296875 91.107421875 20.279296875 110.700195312 c 2
 20.279296875 682.129882812 l 2
 20.279296875 701.72265625 36.1865234375 717.629882812 55.779296875 717.629882812 c 2
 341.5 717.629882812 l 2xb8
EndSplineSet
Validated: 1
EndChar

StartChar: G
Encoding: 71 71 35
Width: 513
Flags: W
HStem: 75.21 71.0498<178.535 334.582> 266.81 71<223.481 407.76> 646.642 71.001<180.804 333.54>
VStem: 29.5498 71<224.679 562.375> 411.83 71.1699<457.881 568.351>
LayerCount: 2
Fore
SplineSet
256.189453125 75.2099609375 m 0
 131.084960938 75.3310546875 29.5537109375 176.9375 29.5537109375 302.0703125 c 0
 29.5537109375 302.1171875 29.5498046875 302.162109375 29.5498046875 302.209960938 c 2
 29.5498046875 479.75 l 2
 29.5498046875 479.840820312 29.548828125 479.931640625 29.548828125 480.021484375 c 0
 29.548828125 541.608398438 52.396484375 598.02734375 90.009765625 641.059570312 c 0
 130.359375 687.139648438 185.069335938 714.219726562 244.009765625 717.3203125 c 0
 248.04296875 717.534179688 252.104492188 717.642578125 256.190429688 717.642578125 c 0
 381.370117188 717.642578125 483 616.01171875 483 490.83203125 c 0
 483 490.750976562 482.829101562 490.670898438 482.829101562 490.58984375 c 0
 482.829101562 470.997070312 466.922851562 455.08984375 447.329101562 455.08984375 c 0
 427.736328125 455.08984375 411.829101562 470.997070312 411.829101562 490.58984375 c 0
 411.829101562 490.6640625 411.830078125 490.73828125 411.830078125 490.811523438 c 0
 411.830078125 576.81640625 342.004882812 646.641601562 256 646.641601562 c 0
 253.19921875 646.641601562 250.533203125 646.56640625 247.76953125 646.419921875 c 0
 166.58984375 642.16015625 100.549804688 567.419921875 100.549804688 479.75 c 2
 100.549804688 302.259765625 l 2
 100.549804688 216.259765625 170.369140625 146.259765625 256.189453125 146.259765625 c 0
 329.83984375 146.259765625 391.69921875 197.809570312 407.759765625 266.809570312 c 1
 256.189453125 266.809570312 l 2
 236.596679688 266.809570312 220.689453125 282.716796875 220.689453125 302.309570312 c 0
 220.689453125 321.903320312 236.596679688 337.809570312 256.189453125 337.809570312 c 2
 447.329101562 337.809570312 l 2
 466.922851562 337.809570312 482.829101562 321.903320312 482.829101562 302.309570312 c 0
 482.829101562 302.228515625 482.829101562 302.146484375 482.829101562 302.065429688 c 0
 482.829101562 176.932617188 381.293945312 75.3310546875 256.189453125 75.2099609375 c 0
EndSplineSet
Validated: 1
EndChar

StartChar: H
Encoding: 72 72 36
Width: 510
Flags: W
HStem: 75.21 21G<56.1235 75.7163 434.704 454.296> 75.21 21G<56.1235 75.7163 434.704 454.296> 362 71<101.42 409> 697.64 20G<56.1235 75.7163 434.704 454.296>
VStem: 30.4199 71<78.0016 362 433 714.848> 409 71<78.0016 362 433 714.848>
LayerCount: 2
Fore
SplineSet
444.5 75.2099609375 m 4xbc
 424.907226562 75.2099609375 409 91.1171875 409 110.709960938 c 6
 409 362 l 5
 101.419921875 362 l 1
 101.419921875 110.709960938 l 2
 101.419921875 91.1171875 85.5126953125 75.2099609375 65.919921875 75.2099609375 c 0
 46.3271484375 75.2099609375 30.419921875 91.1171875 30.419921875 110.709960938 c 2
 30.419921875 682.139648438 l 2
 30.419921875 701.733398438 46.3271484375 717.639648438 65.919921875 717.639648438 c 0
 85.5126953125 717.639648438 101.419921875 701.733398438 101.419921875 682.139648438 c 2
 101.419921875 433 l 1
 409 433 l 5
 409 682.139648438 l 6
 409 701.733398438 424.907226562 717.639648438 444.5 717.639648438 c 4
 464.092773438 717.639648438 480 701.733398438 480 682.139648438 c 6
 480 110.709960938 l 6
 480 91.1171875 464.092773438 75.2099609375 444.5 75.2099609375 c 4xbc
EndSplineSet
Validated: 1
EndChar

StartChar: I
Encoding: 73 73 37
Width: 302
Flags: W
HStem: 75.21 71<32.3717 115.29 186.29 269.208> 646.64 71<32.3717 115.29 186.29 269.208>
VStem: 115.29 71<146.21 646.64>
LayerCount: 2
Fore
SplineSet
236.5 75.2099609375 m 2
 65.080078125 75.2099609375 l 2
 45.4873046875 75.2099609375 29.580078125 91.1171875 29.580078125 110.709960938 c 0
 29.580078125 130.302734375 45.4873046875 146.209960938 65.080078125 146.209960938 c 2
 115.290039062 146.209960938 l 1
 115.290039062 646.639648438 l 1
 65.080078125 646.639648438 l 2
 45.4873046875 646.639648438 29.580078125 662.546875 29.580078125 682.139648438 c 0
 29.580078125 701.733398438 45.4873046875 717.639648438 65.080078125 717.639648438 c 2
 236.5 717.639648438 l 2
 256.092773438 717.639648438 272 701.733398438 272 682.139648438 c 0
 272 662.546875 256.092773438 646.639648438 236.5 646.639648438 c 2
 186.290039062 646.639648438 l 1
 186.290039062 146.209960938 l 1
 236.5 146.209960938 l 2
 256.092773438 146.209960938 272 130.302734375 272 110.709960938 c 0
 272 91.1171875 256.092773438 75.2099609375 236.5 75.2099609375 c 2
EndSplineSet
Validated: 1
Substitution2: "'ss01' Style Set 1 in Latin lookup 0-1" alt_I
EndChar

StartChar: J
Encoding: 74 74 38
Width: 417
Flags: W
HStem: 75.21 70.9902<145.899 271.381> 646.64 71<33.0709 316>
VStem: 30.2793 71<192.302 333.708> 316 71<192.306 646.64>
LayerCount: 2
Fore
SplineSet
208.639648438 75.2099609375 m 4
 110.290039062 75.2099609375 30.279296875 155.209960938 30.279296875 253.5703125 c 6
 30.279296875 301 l 6
 30.279296875 320.592773438 46.1865234375 336.5 65.779296875 336.5 c 4
 85.373046875 336.5 101.279296875 320.592773438 101.279296875 301 c 6
 101.279296875 253.559570312 l 6
 101.279296875 194.306640625 149.385742188 146.200195312 208.639648438 146.200195312 c 4
 267.893554688 146.200195312 316 194.306640625 316 253.559570312 c 6
 316 646.639648438 l 5
 65.779296875 646.639648438 l 6
 46.1865234375 646.639648438 30.279296875 662.546875 30.279296875 682.139648438 c 4
 30.279296875 701.733398438 46.1865234375 717.639648438 65.779296875 717.639648438 c 6
 351.5 717.639648438 l 6
 371.092773438 717.639648438 387 701.733398438 387 682.139648438 c 6
 387 253.5703125 l 6
 387 155.219726562 306.989257812 75.2099609375 208.639648438 75.2099609375 c 4
EndSplineSet
Validated: 1
EndChar

StartChar: K
Encoding: 75 75 39
Width: 438
Flags: W
HStem: 75.21 21G<55.5503 75.1436 366.942 382.319> 75.21 21G<55.5503 75.1436 366.942 382.319> 697.64 20G<55.5503 75.1436>
VStem: 29.8467 71<78.0016 360.93 431.93 714.848>
LayerCount: 2
Fore
SplineSet
372.52734375 75.2099609375 m 0xb0
 372.489257812 75.2099609375 372.471679688 75.2099609375 372.454101562 75.2099609375 c 0
 361.4296875 75.2099609375 351.586914062 80.2333984375 345.086914062 88.1396484375 c 2
 120.45455708 360.9296875 l 1
 100.846679688 360.9296875 l 1
 100.846679688 110.709960938 l 2
 100.846679688 91.1171875 84.9404296875 75.2099609375 65.3466796875 75.2099609375 c 0
 45.75390625 75.2099609375 29.8466796875 91.1171875 29.8466796875 110.709960938 c 2
 29.8466796875 682.139648438 l 2
 29.8466796875 701.733398438 45.75390625 717.639648438 65.3466796875 717.639648438 c 0
 84.9404296875 717.639648438 100.846679688 701.733398438 100.846679688 682.139648438 c 2
 100.846679688 431.9296875 l 1
 120.529742723 431.9296875 l 1
 345.157226562 702.879882812 l 2
 351.670898438 710.736328125 361.50390625 715.744140625 372.498046875 715.744140625 c 0
 392.091796875 715.744140625 408 699.8359375 408 680.2421875 c 0
 408 671.641601562 404.913085938 663.70703125 399.817382812 657.559570312 c 2
 183.256835938 396.349609375 l 1
 399.916992188 133.280273438 l 2
 404.961914062 127.147460938 407.993164062 119.295898438 407.993164062 110.743164062 c 0
 407.993164062 91.1552734375 392.110351562 75.2099609375 372.52734375 75.2099609375 c 0xb0
EndSplineSet
Validated: 1
EndChar

StartChar: L
Encoding: 76 76 40
Width: 417
Flags: W
HStem: 75.21 71<101.279 384.208> 697.64 20G<55.9829 75.5762>
VStem: 30.2793 71<146.21 714.848>
LayerCount: 2
Fore
SplineSet
351.5 75.2099609375 m 2
 65.779296875 75.2099609375 l 2
 46.1865234375 75.2099609375 30.279296875 91.1171875 30.279296875 110.709960938 c 2
 30.279296875 682.139648438 l 2
 30.279296875 701.733398438 46.1865234375 717.639648438 65.779296875 717.639648438 c 0
 85.373046875 717.639648438 101.279296875 701.733398438 101.279296875 682.139648438 c 2
 101.279296875 146.209960938 l 1
 351.5 146.209960938 l 2
 371.092773438 146.209960938 387 130.302734375 387 110.709960938 c 0
 387 91.1171875 371.092773438 75.2099609375 351.5 75.2099609375 c 2
EndSplineSet
Validated: 1
EndChar

StartChar: M
Encoding: 77 77 41
Width: 702
Flags: W
HStem: 75.8398 21G<55.2534 74.8462 350.76 357.69 626.704 646.296> 75.8398 21G<55.2534 74.8462 350.76 357.69 626.704 646.296> 697.538 20G<55.27 71.9839 629.575 646.317>
VStem: 29.5498 71<78.6315 531.76 698 714.662> 601 71<78.0016 531.09 697.17 713.908>
LayerCount: 2
Fore
SplineSet
350.759765625 75.2099609375 m 1xb8
 336.86328125 75.2119140625 324.842773438 83.1826171875 319.01953125 94.830078125 c 2
 100.549804688 531.759765625 l 1
 100.549804688 111.33984375 l 2
 100.549804688 91.7470703125 84.642578125 75.83984375 65.0498046875 75.83984375 c 0
 45.45703125 75.83984375 29.5498046875 91.7470703125 29.5498046875 111.33984375 c 2
 29.5498046875 682.139648438 l 2
 29.6044921875 701.686523438 45.490234375 717.538085938 65.0498046875 717.538085938 c 0
 78.91796875 717.538085938 90.9189453125 709.60546875 96.759765625 698 c 2
 350.759765625 190 l 1
 604.759765625 697.169921875 l 2
 610.58984375 708.807617188 622.62890625 716.803710938 636.520507812 716.803710938 c 0
 656.11328125 716.803710938 672 700.86328125 672 681.26953125 c 2
 672 110.709960938 l 2
 672 91.1171875 656.092773438 75.2099609375 636.5 75.2099609375 c 0
 616.907226562 75.2099609375 601 91.1171875 601 110.709960938 c 2
 601 531.08984375 l 1
 382.5 94.8095703125 l 2
 376.672851562 83.1728515625 364.635742188 75.17578125 350.745117188 75.17578125 c 1
 350.759765625 75.2099609375 l 1xb8
EndSplineSet
Validated: 1
EndChar

StartChar: N
Encoding: 78 78 42
Width: 510
Flags: W
HStem: 75.21 21G<55.9136 75.5063 438.107 454.084> 75.21 21G<55.9136 75.5063 438.107 454.084> 697.628 20G<55.9243 71.8989 434.494 454.086>
VStem: 30.21 71<78.0016 564.28> 408.79 71<228.58 714.848>
LayerCount: 2
Fore
SplineSet
444.290039062 75.2099609375 m 4xb8
 431.924804688 75.2119140625 421.048828125 81.5107421875 414.690429688 91.1103515625 c 6
 101.209960938 564.280273438 l 5
 101.209960938 110.709960938 l 6
 101.209960938 91.1171875 85.302734375 75.2099609375 65.7099609375 75.2099609375 c 4
 46.1171875 75.2099609375 30.2099609375 91.1171875 30.2099609375 110.709960938 c 6
 30.2099609375 682.139648438 l 6
 30.2216796875 701.728515625 46.12890625 717.627929688 65.7197265625 717.627929688 c 4
 78.078125 717.627929688 88.94921875 711.337890625 95.3095703125 701.75 c 6
 408.790039062 228.580078125 l 5
 408.790039062 682.139648438 l 6
 408.790039062 701.733398438 424.697265625 717.639648438 444.290039062 717.639648438 c 4
 463.8828125 717.639648438 479.790039062 701.733398438 479.790039062 682.139648438 c 6
 479.790039062 110.709960938 l 6
 479.779296875 91.1220703125 463.877929688 75.220703125 444.290039062 75.2099609375 c 4xb8
EndSplineSet
Validated: 1
EndChar

StartChar: O
Encoding: 79 79 43
Width: 510
Flags: W
HStem: 75.21 71<178.129 331.871> 646.64 71.0107<178.127 331.873>
VStem: 30.21 71<223.51 569.338> 408.79 71<223.51 569.347>
LayerCount: 2
Fore
SplineSet
255 75.2099609375 m 4
 130.934570312 75.2099609375 30.2099609375 175.934570312 30.2099609375 300 c 6
 30.2099609375 492.860351562 l 6
 30.2099609375 616.924804688 130.934570312 717.650390625 255 717.650390625 c 4
 379.065429688 717.650390625 479.790039062 616.924804688 479.790039062 492.860351562 c 6
 479.790039062 300 l 6
 479.790039062 175.934570312 379.065429688 75.2099609375 255 75.2099609375 c 4
255 646.639648438 m 4
 170.200195312 646.639648438 101.209960938 577.639648438 101.209960938 492.860351562 c 6
 101.209960938 300 l 6
 101.209960938 215.200195312 170.209960938 146.209960938 255 146.209960938 c 4
 339.790039062 146.209960938 408.790039062 215.200195312 408.790039062 300 c 6
 408.790039062 492.860351562 l 6
 408.790039062 577.66015625 339.799804688 646.639648438 255 646.639648438 c 4
EndSplineSet
Validated: 1
EndChar

StartChar: P
Encoding: 80 80 44
Width: 510
Flags: W
HStem: 75.21 21G<55.9146 75.5063> 75.21 21G<55.9146 75.5063> 262.82 71<101.21 330.371> 646.64 71<101.21 330.371>
VStem: 30.21 71<78.0043 262.82 333.82 646.64> 408.79 70.9922<412.247 568.13>
LayerCount: 2
Fore
SplineSet
65.7099609375 75.2099609375 m 0xbc
 46.119140625 75.2158203125 30.2158203125 91.119140625 30.2099609375 110.709960938 c 2
 30.2099609375 682.139648438 l 2
 30.2099609375 701.733398438 46.1171875 717.639648438 65.7099609375 717.639648438 c 2
 252.790039062 717.639648438 l 2
 378.116210938 717.37109375 479.782226562 615.540039062 479.782226562 490.150390625 c 0
 479.782226562 427.459960938 454.408203125 370.625 413.330078125 329.459960938 c 0
 372.49609375 288.29296875 315.899414062 262.783203125 253.391601562 262.783203125 c 0
 253.196289062 262.783203125 252.985351562 262.819335938 252.790039062 262.8203125 c 2
 101.209960938 262.8203125 l 1
 101.209960938 110.709960938 l 2
 101.209960938 91.1171875 85.302734375 75.2099609375 65.7099609375 75.2099609375 c 0xbc
101.209960938 333.8203125 m 1
 252.790039062 333.8203125 l 2
 338.790039062 333.8203125 408.790039062 403.990234375 408.790039062 490.23046875 c 0
 408.790039062 576.469726562 338.790039062 646.639648438 252.790039062 646.639648438 c 2
 101.209960938 646.639648438 l 1
 101.209960938 333.8203125 l 1
EndSplineSet
Validated: 1
EndChar

StartChar: Q
Encoding: 81 81 45
Width: 510
Flags: W
HStem: 75.21 71<178.129 333.763> 646.64 71.0107<178.127 331.873>
VStem: 30.21 71<223.51 569.338> 408.79 71<221.113 569.347>
LayerCount: 2
Fore
SplineSet
255 646.639648438 m 0
 170.200195312 646.639648438 101.209960938 577.639648438 101.209960938 492.860351562 c 2
 101.209960938 300 l 2
 101.209960938 215.200195312 170.209960938 146.209960938 255 146.209960938 c 0
 284.298325973 146.209960938 311.711357678 154.447235898 335.043830618 168.727730011 c 1
 230 272.490234375 l 2
 223.303710938 278.948242188 219.135742188 288.01171875 219.135742188 298.041015625 c 0
 219.135742188 317.633789062 235.04296875 333.541015625 254.635742188 333.541015625 c 0
 264.510742188 333.541015625 273.461914062 329.506835938 279.900390625 322.990234375 c 2
 385.48699481 218.686402602 l 1
 400.250062988 242.29048094 408.790039062 270.166882845 408.790039062 300 c 2
 408.790039062 492.860351562 l 2
 408.790039062 577.66015625 339.799804688 646.639648438 255 646.639648438 c 0
255 75.2099609375 m 0
 130.934570312 75.2099609375 30.2099609375 175.934570312 30.2099609375 300 c 2
 30.2099609375 492.860351562 l 2
 30.2099609375 616.924804688 130.934570312 717.650390625 255 717.650390625 c 0
 379.065429688 717.650390625 479.790039062 616.924804688 479.790039062 492.860351562 c 2
 479.790039062 300 l 2
 479.790039062 250.662545395 463.861076066 205.016294612 436.869774799 167.927872377 c 1
 469.200195312 135.990234375 l 2
 475.719726562 129.551757812 479.762695312 120.611328125 479.762695312 110.733398438 c 0
 479.762695312 91.140625 463.85546875 75.2333984375 444.262695312 75.2333984375 c 0
 444.243164062 75.2333984375 444.21875 75.2294921875 444.200195312 75.23046875 c 1
 444.280273438 75.2099609375 l 1
 444.280273438 75.2099609375 444.244140625 75.2099609375 444.2265625 75.2099609375 c 0
 434.526367188 75.2099609375 425.728515625 79.123046875 419.33984375 85.4599609375 c 2
 386.607524692 117.793010666 l 1
 349.602803452 91.0063019493 304.131637452 75.2099609375 255 75.2099609375 c 0
EndSplineSet
Validated: 1
EndChar

StartChar: R
Encoding: 82 82 46
Width: 510
Flags: W
HStem: 75.21 21.1504G<55.9146 75.5063 434.894 449.666> 75.21 21.1504G<55.9146 75.5063 434.894 449.666> 262.82 71<101.21 238.067> 646.64 71<101.21 330.371>
VStem: 30.21 71<78.0019 262.82 333.82 646.64> 408.79 70.9922<412.247 568.13>
LayerCount: 2
Fore
SplineSet
439.870117188 75.3603515625 m 0xbc
 439.830078125 75.3603515625 439.809570312 75.3603515625 439.7890625 75.3603515625 c 0
 429.998046875 75.3603515625 421.126953125 79.341796875 414.719726562 85.7802734375 c 2
 238.067025124 262.8203125 l 1
 101.209960938 262.8203125 l 1
 101.209960938 110.709960938 l 2
 101.209960938 91.1171875 85.302734375 75.2099609375 65.7099609375 75.2099609375 c 0
 46.119140625 75.2099609375 30.2158203125 91.119140625 30.2099609375 110.709960938 c 2
 30.2099609375 682.139648438 l 2
 30.2099609375 701.733398438 46.1171875 717.639648438 65.7099609375 717.639648438 c 2
 252.790039062 717.639648438 l 2
 378.116210938 717.37109375 479.782226562 615.540039062 479.782226562 490.150390625 c 0
 479.782226562 427.459960938 454.408203125 370.625 413.330078125 329.459960938 c 0
 389.171863365 305.10473199 359.496475128 286.229760918 326.343933085 274.875269615 c 1
 465 135.9296875 l 2
 471.407226562 129.506835938 475.370117188 120.645507812 475.370117188 110.865234375 c 0
 475.370117188 91.2734375 459.4609375 75.3603515625 439.870117188 75.3603515625 c 0xbc
101.209960938 333.8203125 m 1
 252.790039062 333.8203125 l 2
 338.790039062 333.8203125 408.790039062 403.990234375 408.790039062 490.23046875 c 0
 408.790039062 576.469726562 338.790039062 646.639648438 252.790039062 646.639648438 c 2
 101.209960938 646.639648438 l 1
 101.209960938 333.8203125 l 1
EndSplineSet
Validated: 1
EndChar

StartChar: S
Encoding: 83 83 47
Width: 510
Flags: W
HStem: 75.21 71<133.756 362.889> 360.93 71<147.112 362.898> 646.64 71<147.112 376.244>
VStem: 30.2598 70.96<476.56 602.017> 408.78 70.9697<190.839 316.301>
LayerCount: 2
Fore
SplineSet
301.740234375 75.2099609375 m 2
 217.139648438 75.2099609375 l 2
 180.559570312 75.2099609375 149.83984375 80.8095703125 123.209960938 92.330078125 c 0
 94.259765625 104.849609375 69.9501953125 124.26953125 48.8798828125 151.700195312 c 0
 44.12109375 157.741210938 41.28125 165.362304688 41.28125 173.641601562 c 0
 41.28125 193.234375 57.1875 209.141601562 76.78125 209.141601562 c 0
 88.40625 209.141601562 98.703125 203.59765625 105.1796875 194.950195312 c 0
 131.76953125 160.330078125 164.1796875 146.209960938 217.1796875 146.209960938 c 2
 301.780273438 146.209960938 l 2
 360.780273438 146.209960938 408.780273438 194.370117188 408.780273438 253.5703125 c 0
 408.780273438 312.76953125 360.780273438 360.9296875 301.780273438 360.9296875 c 2
 208.259765625 360.9296875 l 2
 110.08984375 360.9296875 30.259765625 440.9296875 30.259765625 539.290039062 c 0
 30.259765625 637.650390625 110.08984375 717.639648438 208.259765625 717.639648438 c 2
 292.860351562 717.639648438 l 2
 329.440429688 717.639648438 360.16015625 712.040039062 386.790039062 700.530273438 c 0
 415.790039062 688.009765625 440.049804688 668.58984375 461.120117188 641.16015625 c 0
 465.87890625 635.119140625 468.71875 627.498046875 468.71875 619.21875 c 0
 468.71875 599.625976562 452.8125 583.71875 433.21875 583.71875 c 0
 421.59375 583.71875 411.296875 589.262695312 404.8203125 597.91015625 c 0
 378.23046875 632.51953125 345.8203125 646.639648438 292.8203125 646.639648438 c 2
 208.219726562 646.639648438 l 2
 149.219726562 646.639648438 101.219726562 598.48046875 101.219726562 539.290039062 c 0
 101.219726562 480.099609375 149.219726562 431.9296875 208.26953125 431.9296875 c 2
 301.75 431.9296875 l 2
 399.919921875 431.9296875 479.75 351.9296875 479.75 253.5703125 c 0
 479.75 155.209960938 399.91015625 75.2099609375 301.740234375 75.2099609375 c 2
EndSplineSet
Validated: 1
EndChar

StartChar: T
Encoding: 84 84 48
Width: 510
Flags: W
HStem: 75.21 21G<245.204 264.796> 75.21 21G<245.204 264.796> 646.64 71<33.0016 219.5 290.5 476.998>
VStem: 219.5 71<78.0016 646.64>
LayerCount: 2
Fore
SplineSet
290.5 646.639648438 m 1xb0
 290.5 110.709960938 l 2
 290.5 91.1171875 274.592773438 75.2099609375 255 75.2099609375 c 0
 235.407226562 75.2099609375 219.5 91.1171875 219.5 110.709960938 c 2
 219.5 646.639648438 l 1
 65.7099609375 646.639648438 l 2
 46.1171875 646.639648438 30.2099609375 662.546875 30.2099609375 682.139648438 c 0
 30.2099609375 701.733398438 46.1171875 717.639648438 65.7099609375 717.639648438 c 2
 444.290039062 717.639648438 l 2
 463.8828125 717.639648438 479.790039062 701.733398438 479.790039062 682.139648438 c 0
 479.790039062 662.546875 463.8828125 646.639648438 444.290039062 646.639648438 c 2
 290.5 646.639648438 l 1xb0
EndSplineSet
Validated: 1
EndChar

StartChar: U
Encoding: 85 85 49
Width: 510
Flags: W
HStem: 75.21 71<178.129 331.871> 697.64 20G<55.9136 75.5063 434.494 454.086>
VStem: 30.21 71<223.51 714.848> 408.79 71<223.51 714.848>
LayerCount: 2
Fore
SplineSet
255 75.2099609375 m 4
 130.934570312 75.2099609375 30.2099609375 175.934570312 30.2099609375 300 c 6
 30.2099609375 682.139648438 l 6
 30.2099609375 701.733398438 46.1171875 717.639648438 65.7099609375 717.639648438 c 4
 85.302734375 717.639648438 101.209960938 701.733398438 101.209960938 682.139648438 c 6
 101.209960938 300 l 6
 101.209960938 215.200195312 170.209960938 146.209960938 255 146.209960938 c 4
 339.790039062 146.209960938 408.790039062 215.200195312 408.790039062 300 c 6
 408.790039062 682.139648438 l 6
 408.790039062 701.733398438 424.697265625 717.639648438 444.290039062 717.639648438 c 4
 463.8828125 717.639648438 479.790039062 701.733398438 479.790039062 682.139648438 c 6
 479.790039062 300 l 6
 479.790039062 175.934570312 379.065429688 75.2099609375 255 75.2099609375 c 4
EndSplineSet
Validated: 1
EndChar

StartChar: V
Encoding: 86 86 50
Width: 510
Flags: W
HStem: 75.21 21G<247.153 262.851> 75.21 21G<247.153 262.851> 697.661 20G<55.9141 73.5591 436.456 454.103>
VStem: 30.21 69.1924<693.33 714.865> 410.592 69.2168<693.31 714.863>
LayerCount: 2
Fore
SplineSet
255.001953125 75.2099609375 m 0xb8
 239.3046875 75.2099609375 225.983398438 85.4150390625 221.301757812 99.5498046875 c 2
 32.001953125 671 l 2
 30.8388671875 674.509765625 30.2099609375 678.26171875 30.2099609375 682.159179688 c 0
 30.2099609375 701.752929688 46.1171875 717.661132812 65.7109375 717.661132812 c 0
 81.4072265625 717.661132812 94.7197265625 707.463867188 99.40234375 693.330078125 c 2
 255.001953125 223.610351562 l 1
 410.591796875 693.309570312 l 2
 415.271484375 707.450195312 428.60546875 717.663085938 444.305664062 717.663085938 c 0
 463.900390625 717.663085938 479.80859375 701.754882812 479.80859375 682.16015625 c 0
 479.80859375 678.266601562 479.163085938 674.506835938 478.001953125 671 c 2
 288.702148438 99.5498046875 l 2
 284.020507812 85.4150390625 270.69921875 75.2099609375 255.001953125 75.2099609375 c 0xb8
EndSplineSet
Validated: 1
EndChar

StartChar: W
Encoding: 87 87 51
Width: 702
Flags: W
HStem: 75.2256 20.9844G<199.6 216.219 485.323 501.942> 75.2256 20.9844G<199.6 216.219 485.323 501.942> 697.719 20G<55.2534 73.3701 342.466 359.084 628.172 646.266>
VStem: 29.5498 69.9531<662.748 714.874> 602.042 69.9277<662.748 714.738>
LayerCount: 2
Fore
SplineSet
493.6328125 75.2099609375 m 0xb8
 477.013671875 75.2099609375 463.049804688 86.669921875 459.192382812 102.099609375 c 2
 350.772460938 535.76953125 l 1
 242.352539062 102.099609375 l 2
 238.495117188 86.669921875 224.528320312 75.2255859375 207.909179688 75.2255859375 c 0
 191.291015625 75.2255859375 177.330078125 86.669921875 173.47265625 102.099609375 c 2
 30.6220703125 673.530273438 l 2
 29.921875 676.310546875 29.5498046875 679.221679688 29.5498046875 682.21875 c 0
 29.5498046875 701.811523438 45.45703125 717.71875 65.0498046875 717.71875 c 0
 81.6904296875 717.71875 95.6669921875 706.211914062 99.5029296875 690.75 c 2
 207.912109375 257.080078125 l 1
 316.33203125 690.75 l 2
 320.190429688 706.180664062 334.157226562 717.624023438 350.775390625 717.624023438 c 0
 367.393554688 717.624023438 381.354492188 706.180664062 385.212890625 690.75 c 2
 493.6328125 257.080078125 l 1
 602.041992188 690.75 l 2
 605.921875 706.1484375 619.874023438 717.561523438 636.469726562 717.561523438 c 0
 656.0625 717.561523438 671.969726562 701.654296875 671.969726562 682.061523438 c 0
 671.969726562 679.109375 671.602539062 676.272460938 670.922851562 673.530273438 c 2
 528.072265625 102.099609375 l 2
 524.21484375 86.669921875 510.250976562 75.2099609375 493.6328125 75.2099609375 c 0xb8
EndSplineSet
Validated: 1
EndChar

StartChar: Y
Encoding: 89 89 52
Width: 510
Flags: W
HStem: 75.21 21G<245.202 264.794> 75.21 21G<245.202 264.794> 697.466 20G<55.9907 71.938 438.141 447.938>
VStem: 219.498 71<78.0016 385.71>
LayerCount: 2
Fore
SplineSet
463.887695312 711.709960938 m 4xb0
 473.487304688 705.354492188 479.764648438 694.444335938 479.764648438 682.081054688 c 4
 479.764648438 674.850585938 477.59765625 668.122070312 473.877929688 662.509765625 c 6
 290.498046875 385.709960938 l 5
 290.498046875 110.709960938 l 6
 290.498046875 91.1171875 274.590820312 75.2099609375 254.998046875 75.2099609375 c 4
 235.405273438 75.2099609375 219.498046875 91.1171875 219.498046875 110.709960938 c 6
 219.498046875 385.709960938 l 5
 36.1181640625 662.469726562 l 6
 32.458984375 668.052734375 30.287109375 674.798828125 30.287109375 681.965820312 c 4
 30.287109375 701.559570312 46.1943359375 717.465820312 65.787109375 717.465820312 c 4
 78.0888671875 717.465820312 88.9375 711.196289062 95.3076171875 701.6796875 c 6
 254.998046875 460.6796875 l 5
 414.688476562 701.709960938 l 6
 421.044921875 711.310546875 431.958007812 717.58984375 444.32421875 717.58984375 c 4
 451.551757812 717.58984375 458.27734375 715.424804688 463.887695312 711.709960938 c 4xb0
EndSplineSet
Validated: 1
EndChar

StartChar: X
Encoding: 88 88 53
Width: 510
Flags: W
HStem: 75.21 21G<437.926 453.959> 75.21 21G<437.926 453.959> 696.95 20G<56.2393 72.0752 438.217 454.297>
LayerCount: 2
Fore
SplineSet
65.5634765625 75.2099609375 m 1x60
 45.9833984375 75.2099609375 30.0947265625 91.1357421875 30.0947265625 110.719726562 c 0
 30.0947265625 117.947265625 32.279296875 124.708984375 35.9931640625 130.3203125 c 2
 212.287582857 396.419535519 l 1
 35.9931640625 662.540039062 l 2
 32.537109375 668.016601562 30.5361328125 674.501953125 30.5361328125 681.450195312 c 0
 30.5361328125 701.04296875 46.4423828125 716.950195312 66.0361328125 716.950195312 c 0
 78.1142578125 716.950195312 88.7490234375 710.9765625 95.1630859375 701.75 c 2
 254.870223864 460.693877065 l 1
 414.573242188 701.75 l 2
 420.8828125 711.61328125 431.93359375 718.158203125 444.5 718.158203125 c 0
 464.09375 718.158203125 480 702.250976562 480 682.658203125 c 0
 480 675.22265625 477.666992188 668.24609375 473.752929688 662.540039062 c 2
 297.446913806 396.430175781 l 1
 473.752929688 130.3203125 l 2
 477.47265625 124.70703125 479.639648438 117.977539062 479.639648438 110.74609375 c 0
 479.639648438 91.154296875 463.754882812 75.2099609375 444.163085938 75.2099609375 c 2
 444.163085938 75.2099609375 444.123046875 75.2099609375 444.103515625 75.2099609375 c 0xa0
 431.748046875 75.2099609375 420.884765625 81.51171875 414.54296875 91.1103515625 c 2
 254.861472068 332.153264856 l 1
 95.1630859375 91.1103515625 l 2
 88.8125 81.5107421875 77.919921875 75.173828125 65.55859375 75.173828125 c 0
 65.552734375 75.173828125 65.5634765625 75.2099609375 65.5634765625 75.2099609375 c 1x60
EndSplineSet
Validated: 1
EndChar

StartChar: Z
Encoding: 90 90 54
Width: 510
Flags: W
HStem: 75.21 71<132.03 477.208> 646.64 71<33.2116 378.39>
LayerCount: 2
Fore
SplineSet
444.5 75.2099609375 m 2
 65.919921875 75.2099609375 l 2
 46.3310546875 75.2216796875 30.431640625 91.12890625 30.431640625 110.719726562 c 0
 30.431640625 117.947265625 32.615234375 124.708984375 36.330078125 130.3203125 c 2
 378.389648438 646.639648438 l 1
 65.919921875 646.639648438 l 2
 46.3271484375 646.639648438 30.419921875 662.546875 30.419921875 682.139648438 c 0
 30.419921875 701.733398438 46.3271484375 717.639648438 65.919921875 717.639648438 c 2
 444.5 717.639648438 l 2
 464.088867188 717.634765625 479.991210938 701.73046875 479.991210938 682.139648438 c 0
 479.991210938 674.913085938 477.805664062 668.150390625 474.08984375 662.540039062 c 2
 132.030273438 146.209960938 l 1
 444.5 146.209960938 l 2
 464.092773438 146.209960938 480 130.302734375 480 110.709960938 c 0
 480 91.1171875 464.092773438 75.2099609375 444.5 75.2099609375 c 2
EndSplineSet
Validated: 1
EndChar

StartChar: backslash
Encoding: 92 92 55
Width: 377
Flags: W
VStem: 288.26 68.7402<-66.3412 -46.1602>
LayerCount: 2
Fore
SplineSet
321.51953125 -69.240234375 m 0
 306.2890625 -69.23828125 293.297851562 -59.642578125 288.259765625 -46.16015625 c 2
 22.5498046875 665.16015625 l 2
 21.17578125 668.940429688 20.42578125 673.01953125 20.42578125 677.272460938 c 0
 20.42578125 696.866210938 36.3330078125 712.772460938 55.92578125 712.772460938 c 0
 71.0458984375 712.772460938 83.9462890625 703.330078125 89.0595703125 690 c 2
 354.76953125 -21.3095703125 l 2
 356.2109375 -25.171875 357 -29.3525390625 357 -33.71484375 c 0
 357 -53.3076171875 341.110351562 -69.23046875 321.51953125 -69.240234375 c 0
EndSplineSet
Validated: 1
EndChar

StartChar: comma
Encoding: 44 44 56
Width: 167
Flags: W
HStem: -31.0254 213.376<66.2411 106.479>
VStem: 29.7773 107.223<1.72859 37.4487 85.7854 171.697> 66 71<33.5711 91.8699>
LayerCount: 2
Fore
SplineSet
137 128.770507812 m 2xc0
 137 75.2001953125 l 2xa0
 137 26.742680043 117.146561508 -9.37385090646 81.4794921875 -27.109375 c 0
 76.6376953125 -29.5869140625 71.0849609375 -31.025390625 65.27734375 -31.025390625 c 0
 45.6845703125 -31.025390625 29.77734375 -15.1181640625 29.77734375 4.474609375 c 0xc0
 29.77734375 18.5478515625 37.984375 30.7197265625 49.8701171875 36.4609375 c 0
 63.580078125 43.2802734375 66 54.390625 66 75.2001953125 c 2
 66 78.1201171875 l 1xa0
 44.9658203125 85.3515625 29.8447265625 105.305664062 29.8447265625 128.780273438 c 0
 29.8447265625 158.346679688 53.8486328125 182.350585938 83.4150390625 182.350585938 c 0
 112.997070312 182.344726562 137 158.338867188 137 128.770507812 c 2xc0
EndSplineSet
EndChar

StartChar: period
Encoding: 46 46 57
Width: 167
Flags: W
HStem: 75.21 107.141<40.5019 126.357>
VStem: 29.8594 107.141<85.8525 171.708>
LayerCount: 2
Fore
SplineSet
29.859375 128.780273438 m 0
 29.859375 158.366210938 53.84375 182.350585938 83.4296875 182.350585938 c 0
 113.015625 182.350585938 137 158.366210938 137 128.780273438 c 0
 137 99.1943359375 113.015625 75.2099609375 83.4296875 75.2099609375 c 0
 53.84375 75.2099609375 29.859375 99.1943359375 29.859375 128.780273438 c 0
EndSplineSet
Validated: 1
EndChar

StartChar: colon
Encoding: 58 58 58
Width: 149
Flags: W
HStem: 75.21 107.141<30.9316 116.787> 417.65 107.141<32.5019 118.357>
VStem: 20.2891 107.141<85.8525 171.708 429.883 512.558>
LayerCount: 2
Fore
SplineSet
20.2890625 128.780273438 m 0
 20.2890625 158.366210938 44.2734375 182.350585938 73.859375 182.350585938 c 0
 103.4453125 182.350585938 127.4296875 158.366210938 127.4296875 128.780273438 c 0
 127.4296875 99.1943359375 103.4453125 75.2099609375 73.859375 75.2099609375 c 0
 44.2734375 75.2099609375 20.2890625 99.1943359375 20.2890625 128.780273438 c 0
21.859375 471.220703125 m 4
 21.859375 500.806640625 45.84375 524.791015625 75.4296875 524.791015625 c 4
 105.015625 524.791015625 129 500.806640625 129 471.220703125 c 4
 129 441.634765625 105.015625 417.650390625 75.4296875 417.650390625 c 4
 45.84375 417.650390625 21.859375 441.634765625 21.859375 471.220703125 c 4
EndSplineSet
Validated: 1
EndChar

StartChar: parenright
Encoding: 41 41 59
Width: 254
Flags: W
VStem: 163 71<185.207 449.44>
LayerCount: 2
Fore
SplineSet
55.6298828125 -78.3603515625 m 0
 36.0556640625 -78.3388671875 20.1689453125 -62.4404296875 20.1689453125 -42.8603515625 c 0
 20.1689453125 -33.859375 23.53125 -25.6201171875 29.060546875 -19.3603515625 c 0
 29.3701171875 -19.009765625 63.390625 19.8798828125 96.80078125 81.2802734375 c 0
 127 136.76953125 163 222.759765625 163 317.280273438 c 0
 163 411.799804688 127 497.83984375 96.80078125 553.280273438 c 0
 63.390625 614.799804688 29.3701171875 653.700195312 29.0703125 654.080078125 c 0
 23.8671875 660.256835938 20.7314453125 668.229492188 20.7314453125 676.9296875 c 0
 20.7314453125 696.522460938 36.638671875 712.4296875 56.2314453125 712.4296875 c 0
 66.5166015625 712.4296875 75.7744140625 708.079101562 82.2607421875 701.080078125 c 0
 83.830078125 699.309570312 121.040039062 656.969726562 158.260742188 589.080078125 c 0
 179.243164062 551.091796875 196.873046875 510.153320312 210.140625 468.080078125 c 0
 225.950195312 417 234 366.299804688 234 317.360351562 c 0
 234 268.419921875 226 217.709960938 210.080078125 166.639648438 c 0
 196.813476562 124.567382812 179.182617188 83.62890625 158.200195312 45.6396484375 c 0
 121 -22.26953125 83.7900390625 -64.599609375 82.2001953125 -66.3603515625 c 0
 75.7080078125 -73.7255859375 66.2109375 -78.359375 55.6298828125 -78.3603515625 c 0
EndSplineSet
Validated: 1
EndChar

StartChar: ff
Encoding: 257 64256 60
Width: 599
Flags: W
HStem: 75.21 21G<128.864 148.457 325.864 345.457> 75.21 21G<128.864 148.457 325.864 345.457> 453.36 71<30.9518 103.16 174.16 300.16 371.16 490.269> 646.704 71.0049<192.128 302.944 388.517 502.93>
VStem: 103.16 71<78.0016 453.36 524.36 628.74> 300.16 71<78.0016 453.36 524.36 628.74>
LayerCount: 2
Fore
SplineSet
564.719726562 662.059570312 m 1xbc
 564.759765625 662.110351562 l 1
 569.28125 656.15234375 571.99609375 648.670898438 571.99609375 640.622070312 c 0
 571.99609375 621.029296875 556.088867188 605.122070312 536.49609375 605.122070312 c 0
 525.173828125 605.122070312 515.08203125 610.434570312 508.580078125 618.700195312 c 0
 497.870117188 632.51953125 480.8203125 646.700195312 435.66015625 646.700195312 c 0
 400.08203125 646.65625 371.204101562 617.778320312 371.16015625 582.200195312 c 2
 371.16015625 524.360351562 l 1
 457.560546875 524.360351562 l 2
 477.153320312 524.360351562 493.060546875 508.453125 493.060546875 488.860351562 c 0
 493.060546875 469.266601562 477.153320312 453.360351562 457.560546875 453.360351562 c 2
 371.16015625 453.360351562 l 1
 371.16015625 110.709960938 l 2
 371.16015625 91.1171875 355.252929688 75.2099609375 335.66015625 75.2099609375 c 0
 316.067382812 75.2099609375 300.16015625 91.1171875 300.16015625 110.709960938 c 2
 300.16015625 453.360351562 l 1
 174.16015625 453.360351562 l 1
 174.16015625 110.709960938 l 2
 174.16015625 91.1171875 158.252929688 75.2099609375 138.66015625 75.2099609375 c 0
 119.067382812 75.2099609375 103.16015625 91.1171875 103.16015625 110.709960938 c 2
 103.16015625 453.360351562 l 1
 63.66015625 453.360351562 l 2
 44.0673828125 453.360351562 28.16015625 469.266601562 28.16015625 488.860351562 c 0
 28.16015625 508.453125 44.0673828125 524.360351562 63.66015625 524.360351562 c 2
 103.16015625 524.360351562 l 1
 103.16015625 582.200195312 l 2
 103.16015625 656.91015625 163.969726562 717.700195312 238.66015625 717.700195312 c 0
 239.028320312 717.702148438 239.155273438 717.708984375 239.5234375 717.708984375 c 0
 252.247070312 717.708984375 264.732421875 716.6796875 276.900390625 714.700195312 c 0
 294.015625 712.166015625 307.231445312 697.397460938 307.231445312 679.58203125 c 0
 307.231445312 659.989257812 291.32421875 644.08203125 271.731445312 644.08203125 c 0
 269.46875 644.08203125 267.255859375 644.294921875 265.110351562 644.700195312 c 0
 256.803710938 646.021484375 248.463867188 646.704101562 239.788085938 646.704101562 c 0
 239.412109375 646.704101562 239.036132812 646.702148438 238.66015625 646.700195312 c 0
 203.079101562 646.661132812 174.198242188 617.780273438 174.16015625 582.200195312 c 2
 174.16015625 524.360351562 l 1
 300.16015625 524.360351562 l 1
 300.16015625 582.200195312 l 2
 300.16015625 656.91015625 360.91015625 717.700195312 435.620117188 717.700195312 c 0
 493.560546875 717.700195312 535.790039062 699.5 564.719726562 662.059570312 c 1xbc
EndSplineSet
Validated: 1
LCarets2: 1 0
Ligature2: "'liga'-1" f f
EndChar

StartChar: ffi
Encoding: 258 64259 61
Width: 639
Flags: W
HStem: 75.21 21G<128.864 148.457 325.794 345.387 566.424 586.017> 75.21 21G<128.864 148.457 325.794 345.387 566.424 586.017> 453.36 71<30.9518 103.16 174.16 300.091 371.091 540.721> 646.704 71.0049<192.117 302.944 389.051 542.228>
VStem: 103.16 71<78.0016 453.36 524.36 628.74> 300.091 71<78.0016 453.36 524.36 628.74> 540.721 71<78.0016 453.36>
LayerCount: 2
Fore
SplineSet
576.220703125 524.360351562 m 2xbe
 595.813476562 524.360351562 611.720703125 508.453125 611.720703125 488.860351562 c 2
 611.720703125 110.709960938 l 2
 611.720703125 91.1171875 595.813476562 75.2099609375 576.220703125 75.2099609375 c 0
 556.627929688 75.2099609375 540.720703125 91.1171875 540.720703125 110.709960938 c 2
 540.720703125 453.360351562 l 1
 371.090820312 453.360351562 l 1
 371.090820312 110.709960938 l 2
 371.090820312 91.1171875 355.18359375 75.2099609375 335.590820312 75.2099609375 c 0
 315.997070312 75.2099609375 300.090820312 91.1171875 300.090820312 110.709960938 c 2
 300.090820312 453.360351562 l 1
 174.16015625 453.360351562 l 1
 174.16015625 110.709960938 l 2
 174.16015625 91.1171875 158.252929688 75.2099609375 138.66015625 75.2099609375 c 0
 119.067382812 75.2099609375 103.16015625 91.1171875 103.16015625 110.709960938 c 2
 103.16015625 453.360351562 l 1
 63.66015625 453.360351562 l 2
 44.0673828125 453.360351562 28.16015625 469.266601562 28.16015625 488.860351562 c 0
 28.16015625 508.453125 44.0673828125 524.360351562 63.66015625 524.360351562 c 2
 103.16015625 524.360351562 l 1
 103.16015625 582.200195312 l 2
 103.16015625 656.91015625 163.940429688 717.700195312 238.66015625 717.700195312 c 0
 239.030273438 717.702148438 239.16015625 717.708984375 239.530273438 717.708984375 c 0
 252.251953125 717.708984375 264.734375 716.6796875 276.900390625 714.700195312 c 0
 294.015625 712.166015625 307.231445312 697.397460938 307.231445312 679.58203125 c 0
 307.231445312 659.989257812 291.32421875 644.08203125 271.731445312 644.08203125 c 0
 269.46875 644.08203125 267.255859375 644.294921875 265.110351562 644.700195312 c 0
 256.806640625 646.021484375 248.46875 646.704101562 239.795898438 646.704101562 c 0
 239.416992188 646.704101562 239.038085938 646.702148438 238.66015625 646.700195312 c 0
 203.080078125 646.661132812 174.19921875 617.780273438 174.16015625 582.200195312 c 2
 174.16015625 524.360351562 l 1
 300.090820312 524.360351562 l 1
 300.090820312 582.200195312 l 2
 300.090820312 656.91015625 360.880859375 717.700195312 435.590820312 717.700195312 c 2
 474.520507812 717.700195312 l 2
 532.940429688 717.700195312 575.380859375 699.5 604.310546875 662.110351562 c 0
 608.83203125 656.15234375 611.545898438 648.670898438 611.545898438 640.622070312 c 0
 611.545898438 621.029296875 595.639648438 605.122070312 576.045898438 605.122070312 c 0
 564.723632812 605.122070312 554.6328125 610.434570312 548.130859375 618.700195312 c 0
 538.040039062 631.700195312 520.520507812 646.700195312 474.520507812 646.700195312 c 2
 435.590820312 646.700195312 l 2
 400.012695312 646.65625 371.134765625 617.778320312 371.090820312 582.200195312 c 2
 371.090820312 524.360351562 l 1
 576.220703125 524.360351562 l 2xbe
EndSplineSet
Validated: 1
Ligature2: "'liga'-1" f f i
LCarets2: 2 0 0
EndChar

StartChar: exclam
Encoding: 33 33 62
Width: 147
Flags: W
HStem: 75.21 107.141<30.5029 116.358> 697.64 20G<63.6343 83.2271>
VStem: 19.8604 107.141<85.8525 171.708> 37.9307 71<224.431 714.848>
LayerCount: 2
Fore
SplineSet
19.8603515625 128.780273438 m 0xe0
 19.8603515625 158.366210938 43.8447265625 182.350585938 73.4306640625 182.350585938 c 0
 103.016601562 182.350585938 127.000976562 158.366210938 127.000976562 128.780273438 c 0
 127.000976562 99.1943359375 103.016601562 75.2099609375 73.4306640625 75.2099609375 c 0
 43.8447265625 75.2099609375 19.8603515625 99.1943359375 19.8603515625 128.780273438 c 0xe0
73.4306640625 221.639648438 m 0
 53.837890625 221.639648438 37.9306640625 237.546875 37.9306640625 257.139648438 c 2
 37.9306640625 682.139648438 l 2
 37.9306640625 701.733398438 53.837890625 717.639648438 73.4306640625 717.639648438 c 0
 93.0234375 717.639648438 108.930664062 701.733398438 108.930664062 682.139648438 c 2
 108.930664062 257.139648438 l 2xd0
 108.930664062 237.546875 93.0234375 221.639648438 73.4306640625 221.639648438 c 0
EndSplineSet
Validated: 1
EndChar

StartChar: hyphen
Encoding: 45 45 63
Width: 397
Flags: W
HStem: 264.5 71<23.0709 374.208>
LayerCount: 2
Fore
SplineSet
341.5 264.5 m 2
 55.779296875 264.5 l 2
 36.1865234375 264.5 20.279296875 280.407226562 20.279296875 300 c 0
 20.279296875 319.592773438 36.1865234375 335.5 55.779296875 335.5 c 2
 341.5 335.5 l 2
 361.092773438 335.5 377 319.592773438 377 300 c 0
 377 280.407226562 361.092773438 264.5 341.5 264.5 c 2
EndSplineSet
Validated: 1
EndChar

StartChar: parenleft
Encoding: 40 40 64
Width: 254
Flags: W
VStem: 20.1768 71<186.197 448.55>
LayerCount: 2
Fore
SplineSet
198.526367188 -78.349609375 m 0
 187.951171875 -78.349609375 178.4609375 -73.7158203125 171.9765625 -66.349609375 c 0
 170.407226562 -64.580078125 133.197265625 -22.25 95.9765625 45.650390625 c 0
 56.4147976527 117.276223845 20.1767578125 215.414608705 20.1767578125 317.370117188 c 0
 20.1767578125 419.144691917 56.5210041676 517.591720318 96.0068359375 589.080078125 c 0
 133.20703125 656.990234375 170.416992188 699.330078125 172.006835938 701.080078125 c 0
 178.46875 707.805664062 187.551757812 711.994140625 197.606445312 711.994140625 c 0
 217.19921875 711.994140625 233.106445312 696.087890625 233.106445312 676.494140625 c 0
 233.106445312 668.002929688 230.107421875 660.171875 225.126953125 654.059570312 c 0
 224.126953125 652.959960938 190.4765625 614.219726562 157.376953125 553.400390625 c 0
 127.176757812 497.919921875 91.1767578125 411.919921875 91.1767578125 317.400390625 c 0
 91.1767578125 222.879882812 127.176757812 136.849609375 157.376953125 81.400390625 c 0
 190.806640625 19.919921875 224.827148438 -19 225.126953125 -19.3603515625 c 0
 230.6484375 -25.6201171875 234 -33.837890625 234 -42.8330078125 c 0
 234 -62.4153615372 218.101733419 -78.322083836 198.526367188 -78.349609375 c 0
EndSplineSet
EndChar

StartChar: question
Encoding: 63 63 65
Width: 425
Flags: W
HStem: 75.21 107.141<169.433 255.288> 646.64 71<145.263 279.439>
VStem: 19.7207 71<492.292 591.205> 158.79 107.141<85.8525 171.708> 176.301 71<245.864 323.597> 334 71<453.774 592.079>
LayerCount: 2
Fore
SplineSet
158.790039062 128.780273438 m 4xf4
 158.790039062 158.366210938 182.774414062 182.350585938 212.360351562 182.350585938 c 4
 241.946289062 182.350585938 265.930664062 158.366210938 265.930664062 128.780273438 c 4
 265.930664062 99.1943359375 241.946289062 75.2099609375 212.360351562 75.2099609375 c 4
 182.774414062 75.2099609375 158.790039062 99.1943359375 158.790039062 128.780273438 c 4xf4
211.80078125 243.0703125 m 4
 192.20703125 243.0703125 176.30078125 258.9765625 176.30078125 278.5703125 c 4
 176.30078125 311.73046875 190.129882812 343.639648438 217.400390625 373.4296875 c 4
 238.129882812 396.059570312 262.780273438 413.669921875 282.590820312 427.809570312 c 4
 290.020507812 433.120117188 296.450195312 437.709960938 301.260742188 441.5703125 c 4
 321.760742188 458 334 489.209960938 334 525 c 4
 334 592.134765625 279.495117188 646.639648438 212.360351562 646.639648438 c 4
 145.225585938 646.639648438 90.720703125 592.134765625 90.720703125 525 c 4
 90.720703125 505.407226562 74.8134765625 489.5 55.220703125 489.5 c 4
 35.626953125 489.5 19.720703125 505.407226562 19.720703125 525 c 4
 19.720703125 631.315429688 106.044921875 717.639648438 212.360351562 717.639648438 c 4
 318.580078125 717.639648438 405 631.219726562 405 525 c 4
 405 467 383.379882812 416.4296875 345.690429688 386.190429688 c 4
 339.330078125 381.08984375 331.810546875 375.719726562 323.850585938 370.030273438 c 4
 291.540039062 346.959960938 247.30078125 315.360351562 247.30078125 278.5703125 c 4xec
 247.294921875 258.979492188 231.390625 243.075195312 211.80078125 243.0703125 c 4
EndSplineSet
Validated: 1
EndChar

StartChar: quotesingle
Encoding: 39 39 66
Width: 167
Flags: W
HStem: 504.267 213.376<66.2411 106.479>
VStem: 29.7773 107.223<537.021 572.741 621.077 706.989> 66 71<568.863 627.162>
LayerCount: 2
Fore
SplineSet
137 664.0625 m 2xc0
 137 610.4921875 l 2xa0
 137 562.03467223 117.146561508 525.918141282 81.4794921875 508.182617188 c 0
 76.6376953125 505.705078125 71.0849609375 504.266601562 65.27734375 504.266601562 c 0
 45.6845703125 504.266601562 29.77734375 520.173828125 29.77734375 539.766601562 c 0xc0
 29.77734375 553.83984375 37.984375 566.01171875 49.8701171875 571.752929688 c 0
 63.580078125 578.572265625 66 589.682617188 66 610.4921875 c 2
 66 613.412109375 l 1xa0
 44.9658203125 620.643554688 29.8447265625 640.59765625 29.8447265625 664.072265625 c 0
 29.8447265625 693.638671875 53.8486328125 717.642578125 83.4150390625 717.642578125 c 0
 112.997070312 717.63671875 137 693.630859375 137 664.0625 c 2xc0
EndSplineSet
EndChar

StartChar: zero
Encoding: 48 48 67
Width: 510
Flags: HW
HStem: 75.21 71<178.129 331.871> 646.64 71.0107<178.127 331.873>
VStem: 30.21 71<223.51 569.338> 408.79 71<223.51 569.347>
LayerCount: 2
Fore
SplineSet
255 75.2099609375 m 4
 130.934570312 75.2099609375 30.2099609375 175.934570312 30.2099609375 300 c 6
 30.2099609375 492.860351562 l 6
 30.2099609375 616.924804688 130.934570312 717.650390625 255 717.650390625 c 4
 379.065429688 717.650390625 479.790039062 616.924804688 479.790039062 492.860351562 c 6
 479.790039062 300 l 6
 479.790039062 175.934570312 379.065429688 75.2099609375 255 75.2099609375 c 4
255 646.639648438 m 4
 170.200195312 646.639648438 101.209960938 577.639648438 101.209960938 492.860351562 c 6
 101.209960938 300 l 6
 101.209960938 215.200195312 170.209960938 146.209960938 255 146.209960938 c 4
 339.790039062 146.209960938 408.790039062 215.200195312 408.790039062 300 c 6
 408.790039062 492.860351562 l 6
 408.790039062 577.66015625 339.799804688 646.639648438 255 646.639648438 c 4
EndSplineSet
EndChar

StartChar: one
Encoding: 49 49 68
Width: 397
Flags: W
HStem: 75.5 71<23.0709 163.14 234.14 374.208> 697.945 20G<195.569 208.436>
VStem: 163.14 71<146.5 622.721>
LayerCount: 2
Fore
SplineSet
341.5 146.5 m 2
 361.092773438 146.5 377 130.59375 377 111 c 0
 377 91.4072265625 361.092773438 75.5 341.5 75.5 c 2
 55.779296875 75.5 l 2
 36.1865234375 75.5 20.279296875 91.4072265625 20.279296875 111 c 0
 20.279296875 130.59375 36.1865234375 146.5 55.779296875 146.5 c 2
 163.139648438 146.5 l 1
 163.139648438 622.720703125 l 1
 72.759765625 573.510742188 l 2
 67.62890625 570.627929688 61.63671875 568.940429688 55.337890625 568.940429688 c 0
 35.744140625 568.940429688 19.837890625 584.846679688 19.837890625 604.440429688 c 0
 19.837890625 618.067382812 27.5322265625 629.911132812 38.8095703125 635.860351562 c 2
 181.639648438 713.610351562 l 2
 186.680664062 716.360351562 192.498046875 717.9453125 198.639648438 717.9453125 c 0
 218.232421875 717.9453125 234.139648438 702.0390625 234.139648438 682.430664062 c 2
 234.139648438 146.5 l 1
 341.5 146.5 l 2
EndSplineSet
EndChar

StartChar: two
Encoding: 50 50 69
Width: 490
Flags: W
HStem: 75.21 71<163.391 467.199> 646.641 71.0098<168.339 322.081>
VStem: 20.4199 71<460.152 569.339> 399 71<412.708 569.73>
LayerCount: 2
Fore
SplineSet
434.490234375 75.2099609375 m 2
 55.91015625 75.2099609375 l 2
 36.3251953125 75.2197265625 20.427734375 91.123046875 20.427734375 110.709960938 c 0
 20.427734375 122.455078125 26.111328125 132.856445312 34.91015625 139.3203125 c 0
 37.3603515625 141.129882812 281.100585938 320.3203125 355.640625 385.690429688 c 0
 383.190429688 409.870117188 399 448.930664062 399 492.860351562 c 0
 399 577.650390625 330 646.640625 245.209960938 646.640625 c 0
 160.419921875 646.640625 91.419921875 577.640625 91.419921875 492.860351562 c 0
 91.419921875 473.267578125 75.5126953125 457.360351562 55.919921875 457.360351562 c 0
 36.3271484375 457.360351562 20.419921875 473.267578125 20.419921875 492.860351562 c 0
 20.419921875 616.924804688 121.145507812 717.650390625 245.209960938 717.650390625 c 0
 369.275390625 717.650390625 470 616.924804688 470 492.860351562 c 0
 470 428.5 445.379882812 369.990234375 402.469726562 332.330078125 c 0
 354.290039062 290.05078125 242.549804688 205.330078125 163.390625 146.209960938 c 1
 434.490234375 146.209960938 l 2
 454.083007812 146.209960938 469.990234375 130.303710938 469.990234375 110.709960938 c 0
 469.990234375 91.1171875 454.083007812 75.2099609375 434.490234375 75.2099609375 c 2
EndSplineSet
Validated: 1
EndChar

StartChar: three
Encoding: 51 51 70
Width: 490
Flags: HW
HStem: 71 71<105.028 356.926> 356.655 70.9902<113.502 356.926> 642.431 71<105.126 356.966>
VStem: 400.056 69.9443<186.609 313.805 470.504 597.681>
LayerCount: 2
Fore
SplineSet
291.669921875 71 m 2
 233.669921875 71 l 2
 228.66083227 71 223.772966873 71.0345088953 219 71.1059690143 c 0
 131.392967218 72.4176079083 82.4952550172 86.1781166879 33.1904296875 127.490234375 c 0
 25.4873046875 134.004882812 20.5927734375 143.73828125 20.5927734375 154.606445312 c 0
 20.5927734375 174.19921875 36.5 190.106445312 56.0927734375 190.106445312 c 0
 64.701171875 190.106445312 72.640625 187.015625 78.7900390625 181.91015625 c 0
 109.6796875 156.030273438 143.509765625 142 233.669921875 142 c 2
 291.669921875 142 l 2
 292.021484375 141.997070312 292.373046875 141.995117188 292.725585938 141.995117188 c 0
 351.961914062 141.995117188 400.055664062 190.087890625 400.055664062 249.325195312 c 0
 400.055664062 308.5625 351.961914062 356.655273438 292.725585938 356.655273438 c 0
 292.373046875 356.655273438 292.021484375 356.653320312 291.669921875 356.650390625 c 2
 146.209960938 356.650390625 l 2
 126.6171875 356.650390625 110.709960938 372.557617188 110.709960938 392.150390625 c 0
 110.709960938 411.743164062 126.6171875 427.650390625 146.209960938 427.650390625 c 2
 291.709960938 427.650390625 l 2
 292.061523438 427.646484375 292.413085938 427.645507812 292.765625 427.645507812 c 0
 352.001953125 427.645507812 400.095703125 475.73828125 400.095703125 534.975585938 c 0
 400.095703125 594.211914062 352.001953125 642.305664062 292.765625 642.305664062 c 0
 292.413085938 642.305664062 292.061523438 642.303710938 291.709960938 642.30078125 c 2
 291.509765625 642.30078125 l 1
 233.700195312 642.430664062 l 2
 143.469726562 642.690429688 109.700195312 628.73046875 78.7001953125 602.930664062 c 0
 72.5400390625 597.79296875 64.6171875 594.700195312 55.9765625 594.700195312 c 0
 36.3779296875 594.700195312 20.4658203125 610.612304688 20.4658203125 630.2109375 c 0
 20.4658203125 641.168945312 25.3974609375 650.954101562 33.2099609375 657.470703125 c 0
 85.3148686147 700.900804497 136.852969107 713.660716817 233.83984375 713.430664062 c 2
 291.83984375 713.30078125 l 2
 390.080078125 713.200195312 469.990234375 633.240234375 469.990234375 534.970703125 c 0
 469.984375 476.490234375 441.89453125 424.640625 398.3203125 392.150390625 c 1
 441.891601562 359.66796875 469.982421875 307.829101562 470 249.360351562 c 0
 470 151 390 71 291.669921875 71 c 2
EndSplineSet
EndChar

StartChar: four
Encoding: 52 52 71
Width: 490
Flags: W
HStem: 75.21 21G<352.854 372.445> 75.21 21G<352.854 372.445> 262.811 71<129.75 327.141 398.141 467.208> 697.673 20G<357.02 372.43>
VStem: 327.141 70.9795<78.0046 262.811 333.811 580.811>
LayerCount: 2
Fore
SplineSet
362.650390625 75.2099609375 m 0xb8
 343.057617188 75.2099609375 327.150390625 91.1171875 327.150390625 110.709960938 c 2
 327.150390625 262.810546875 l 1
 55.9404296875 262.810546875 l 2
 36.3583984375 262.823242188 20.46484375 278.725585938 20.46484375 298.310546875 c 0
 20.46484375 306.678710938 23.3798828125 314.399414062 28.23046875 320.470703125 c 2
 334.880859375 704.30078125 l 2
 341.387695312 712.448242188 351.405273438 717.672851562 362.633789062 717.672851562 c 0
 382.2265625 717.672851562 398.133789062 701.765625 398.133789062 682.172851562 c 1
 398.120117188 682.140625 l 1
 398.120117188 333.810546875 l 1
 434.5 333.810546875 l 2
 454.09375 333.810546875 470 317.903320312 470 298.310546875 c 0
 470 278.717773438 454.09375 262.810546875 434.5 262.810546875 c 2
 398.140625 262.810546875 l 1
 398.140625 110.709960938 l 2
 398.140625 91.12109375 382.239257812 75.2158203125 362.650390625 75.2099609375 c 0xb8
129.75 333.810546875 m 1
 327.140625 333.810546875 l 1
 327.140625 580.810546875 l 1
 129.75 333.810546875 l 1
EndSplineSet
Validated: 1
EndChar

StartChar: five
Encoding: 53 53 72
Width: 490
Flags: W
HStem: 75.21 71<105.521 325.558> 444.37 71<91.4199 325.558> 646.641 71<91.4199 467.208>
VStem: 20.4199 71<515.37 646.641> 399 71<218.849 371.731>
LayerCount: 2
Fore
SplineSet
249.919921875 75.2099609375 m 2
 229.290039062 75.2099609375 l 2
 133.030273438 75.2099609375 83.5302734375 89.470703125 33.1201171875 131.700195312 c 0
 25.4169921875 138.21484375 20.5224609375 147.948242188 20.5224609375 158.81640625 c 0
 20.5224609375 178.409179688 36.4296875 194.31640625 56.0224609375 194.31640625 c 0
 64.6318359375 194.31640625 72.5712890625 191.225585938 78.7197265625 186.120117188 c 0
 111 159.120117188 141.719726562 146.209960938 229.290039062 146.209960938 c 2
 249.919921875 146.209960938 l 2
 332.120117188 146.209960938 399 213.08984375 399 295.290039062 c 0
 399 377.490234375 332.120117188 444.370117188 249.919921875 444.370117188 c 2
 55.919921875 444.370117188 l 2
 36.3271484375 444.370117188 20.419921875 460.27734375 20.419921875 479.870117188 c 2
 20.419921875 682.140625 l 2
 20.419921875 701.733398438 36.3271484375 717.640625 55.919921875 717.640625 c 2
 434.5 717.640625 l 2
 454.092773438 717.640625 470 701.733398438 470 682.140625 c 0
 470 662.546875 454.092773438 646.640625 434.5 646.640625 c 2
 91.419921875 646.640625 l 1
 91.419921875 515.370117188 l 1
 249.919921875 515.370117188 l 2
 371.385742188 515.370117188 470 416.755859375 470 295.290039062 c 0
 470 173.825195312 371.385742188 75.2099609375 249.919921875 75.2099609375 c 2
EndSplineSet
Validated: 1
EndChar

StartChar: six
Encoding: 54 54 73
Width: 490
Flags: W
HStem: 75.21 70.9697<168.369 322.108> 453.75 71.0352<168.757 321.737> 646.61 71<168.757 351.201>
VStem: 20.457 71<223.489 376.448 463.944 569.309> 399.037 70.9629<223.107 376.84>
LayerCount: 2
Fore
SplineSet
20.45703125 299.969726562 m 1
 20.45703125 492.830078125 l 2
 20.462890625 616.890625 121.185546875 717.610351562 245.247070312 717.610351562 c 2
 258.537109375 717.610351562 l 2
 301.537109375 717.610351562 339.45703125 709.950195312 371.397460938 694.849609375 c 0
 400.6171875 681.020507812 425.727539062 660.540039062 446.016601562 633.969726562 c 0
 450.579101562 627.997070312 453.2890625 620.537109375 453.2890625 612.448242188 c 0
 453.2890625 592.853515625 437.380859375 576.9453125 417.786132812 576.9453125 c 0
 406.279296875 576.9453125 396.076171875 582.374023438 389.586914062 590.870117188 c 0
 360.586914062 628.870117188 318.907226562 646.610351562 258.537109375 646.610351562 c 2
 245.247070312 646.610351562 l 2
 160.447265625 646.610351562 91.45703125 577.610351562 91.45703125 492.830078125 c 2
 91.45703125 463.943687788 l 1
 131.455422011 501.656983447 185.355475004 524.78515625 244.61328125 524.78515625 c 0
 244.819335938 524.78515625 245.041015625 524.75 245.247070312 524.75 c 0
 369.29296875 524.75 470 424.028320312 470 299.98046875 c 0
 470 175.92578125 369.283203125 75.2099609375 245.229492188 75.2099609375 c 0
 121.178145761 75.2099609375 20.463800309 175.921941924 20.4599610473 299.973375188 c 1
 20.45703125 299.969726562 l 1
245.247070312 146.1796875 m 0
 330.046875 146.1796875 399.037109375 215.1796875 399.037109375 299.969726562 c 0
 399.037109375 384.759765625 330.046875 453.75 245.247070312 453.75 c 0
 160.447265625 453.75 91.45703125 384.75 91.45703125 299.969726562 c 0
 91.45703125 215.190429688 160.447265625 146.1796875 245.247070312 146.1796875 c 0
EndSplineSet
Validated: 1
EndChar

StartChar: seven
Encoding: 55 55 74
Width: 490
Flags: W
HStem: 75.1738 21G<126.984 133.75> 75.1738 21G<126.984 133.75> 646.641 71<23.2145 375.083>
LayerCount: 2
Fore
SplineSet
126.982421875 75.2099609375 m 4xa0
 107.39453125 75.2158203125 91.494140625 91.12109375 91.494140625 110.709960938 c 4
 91.494140625 116.795898438 93.0498046875 122.5625 95.7529296875 127.5703125 c 6
 375.083007812 646.640625 l 5
 55.9228515625 646.640625 l 6
 36.330078125 646.640625 20.4228515625 662.546875 20.4228515625 682.140625 c 4
 20.4228515625 701.733398438 36.330078125 717.640625 55.9228515625 717.640625 c 6
 434.502929688 717.640625 l 6
 454.094726562 717.638671875 470 701.732421875 470 682.140625 c 4
 470 676.071289062 468.452148438 670.318359375 465.762695312 665.3203125 c 6
 158.272460938 93.890625 l 6
 152.280273438 82.751953125 140.512695312 75.173828125 126.98828125 75.173828125 c 4
 126.979492188 75.173828125 126.9921875 75.2099609375 126.982421875 75.2099609375 c 4xa0
EndSplineSet
Validated: 1
EndChar

StartChar: eight
Encoding: 56 56 75
Width: 490
Flags: W
HStem: 75.21 71<137.516 352.904> 360.931 70.9951<135.592 354.828> 646.646 70.9951<133.506 356.914>
VStem: 20.4199 71<190.827 318.057 473.773 605.084> 399 71<190.829 318.057 473.773 605.086>
LayerCount: 2
Fore
SplineSet
291.639648438 75.2099609375 m 6
 198.780273438 75.2099609375 l 6
 100.4296875 75.2099609375 20.419921875 155.209960938 20.419921875 253.5703125 c 4
 20.42578125 312.06640625 48.5224609375 363.931640625 92.1103515625 396.430664062 c 5
 48.5205078125 428.922851562 20.421875 480.78515625 20.419921875 539.280273438 c 4
 20.419921875 637.629882812 100.419921875 717.640625 198.780273438 717.640625 c 6
 291.639648438 717.640625 l 6
 389.990234375 717.640625 470 637.640625 470 539.280273438 c 4
 469.998046875 480.78515625 441.899414062 428.922851562 398.309570312 396.430664062 c 5
 441.897460938 363.931640625 469.994140625 312.06640625 470 253.5703125 c 4
 470 155.220703125 389.990234375 75.2099609375 291.639648438 75.2099609375 c 6
198.780273438 360.930664062 m 6
 139.526367188 360.930664062 91.419921875 312.82421875 91.419921875 253.5703125 c 4
 91.419921875 194.31640625 139.526367188 146.209960938 198.780273438 146.209960938 c 6
 291.639648438 146.209960938 l 6
 350.893554688 146.209960938 399 194.31640625 399 253.5703125 c 4
 399 312.82421875 350.893554688 360.930664062 291.639648438 360.930664062 c 6
 198.780273438 360.930664062 l 6
198.780273438 646.640625 m 6
 198.428710938 646.643554688 198.077148438 646.645507812 197.724609375 646.645507812 c 4
 138.470703125 646.645507812 90.3642578125 598.5390625 90.3642578125 539.28515625 c 4
 90.3642578125 480.032226562 138.470703125 431.92578125 197.724609375 431.92578125 c 4
 198.077148438 431.92578125 198.428710938 431.926757812 198.780273438 431.930664062 c 6
 291.639648438 431.930664062 l 6
 291.991210938 431.926757812 292.342773438 431.924804688 292.6953125 431.924804688 c 4
 351.94921875 431.924804688 400.055664062 480.03125 400.055664062 539.28515625 c 4
 400.055664062 598.5390625 351.94921875 646.645507812 292.6953125 646.645507812 c 4
 292.342773438 646.645507812 291.991210938 646.643554688 291.639648438 646.640625 c 6
 198.780273438 646.640625 l 6
EndSplineSet
Validated: 1
EndChar

StartChar: nine
Encoding: 57 57 76
Width: 490
Flags: W
HStem: 75.21 71<139.211 321.65> 268.035 71.0352<168.671 321.65> 646.641 71.0098<168.312 322.058>
VStem: 20.4199 70.9502<415.996 569.728> 398.95 71<223.515 328.838 416.375 569.343>
LayerCount: 2
Fore
SplineSet
245.16015625 646.640625 m 0
 160.360351562 646.640625 91.3701171875 577.640625 91.3701171875 492.860351562 c 0
 91.3701171875 408.080078125 160.360351562 339.0703125 245.16015625 339.0703125 c 0
 329.959960938 339.0703125 398.950195312 408.0703125 398.950195312 492.860351562 c 0
 398.950195312 577.650390625 329.959960938 646.640625 245.16015625 646.640625 c 0
245.16015625 268.0703125 m 0
 121.118164062 268.09765625 20.419921875 368.811523438 20.419921875 492.860351562 c 0
 20.419921875 616.924804688 121.145507812 717.650390625 245.209960938 717.650390625 c 0
 369.275390625 717.650390625 470 616.924804688 470 492.860351562 c 0
 470 491.263985436 469.983343835 489.671462891 469.950195312 488.082949847 c 2
 469.950195312 300 l 2
 469.950195312 175.935546875 369.225585938 75.2099609375 245.16015625 75.2099609375 c 2
 231.870117188 75.2099609375 l 2
 188.919921875 75.2099609375 150.950195312 82.8701171875 119.009765625 97.98046875 c 0
 89.7900390625 111.80078125 64.6796875 132.290039062 44.390625 158.860351562 c 0
 39.830078125 164.83203125 37.12109375 172.290039062 37.12109375 180.376953125 c 0
 37.12109375 199.969726562 53.0283203125 215.876953125 72.62109375 215.876953125 c 0
 84.1279296875 215.876953125 94.3310546875 210.448242188 100.8203125 201.950195312 c 0
 129.8203125 163.950195312 171.5 146.209960938 231.8203125 146.209960938 c 2
 245.16015625 146.209960938 l 2
 329.959960938 146.209960938 398.950195312 215.209960938 398.950195312 300 c 2
 398.950195312 328.838266354 l 1
 358.960348485 291.147537311 305.080554079 268.03515625 245.845703125 268.03515625 c 0
 245.622070312 268.03515625 245.383789062 268.0703125 245.16015625 268.0703125 c 0
EndSplineSet
Validated: 1
EndChar

StartChar: uniE741
Encoding: 259 59201 77
Width: 536
Flags: W
HStem: 75.21 71<419.314 505.208> 453.79 71<30.9713 103.489 174.52 344.149 415.18 487.388> 646.704 71.0049<192.48 303.313>
VStem: 103.489 71<77.9518 453.79 524.79 628.74> 344.149 71<150.374 453.79 524.79 639.848>
LayerCount: 2
Fore
SplineSet
472.5 146.209960938 m 2
 492.092773438 146.209960938 508 130.302734375 508 110.709960938 c 0
 508 91.1171875 492.092773438 75.2099609375 472.5 75.2099609375 c 2
 451.080078125 75.2099609375 l 2
 392.09375 75.2763671875 344.215820312 123.154296875 344.149414062 182.139648438 c 2
 344.149414062 453.790039062 l 1
 174.489257812 453.790039062 l 1
 174.489257812 110.66015625 l 2
 174.489257812 91.0673828125 158.583007812 75.16015625 138.989257812 75.16015625 c 0
 119.396484375 75.16015625 103.489257812 91.0673828125 103.489257812 110.66015625 c 2
 103.489257812 453.790039062 l 1
 63.6796875 453.790039062 l 2
 44.0869140625 453.790039062 28.1796875 469.697265625 28.1796875 489.290039062 c 0
 28.1796875 508.8828125 44.0869140625 524.790039062 63.6796875 524.790039062 c 2
 103.51953125 524.790039062 l 1
 103.51953125 582.200195312 l 2
 103.51953125 656.91015625 164.309570312 717.700195312 239.01953125 717.700195312 c 0
 239.387695312 717.702148438 239.514648438 717.708984375 239.8828125 717.708984375 c 0
 252.609375 717.708984375 265.098632812 716.6796875 277.26953125 714.700195312 c 0
 294.384765625 712.166015625 307.600585938 697.397460938 307.600585938 679.58203125 c 0
 307.600585938 659.989257812 291.693359375 644.08203125 272.100585938 644.08203125 c 0
 269.837890625 644.08203125 267.625 644.294921875 265.479492188 644.700195312 c 0
 257.198242188 646.022460938 248.883789062 646.704101562 240.232421875 646.704101562 c 0
 239.828125 646.704101562 239.423828125 646.703125 239.01953125 646.700195312 c 0
 203.44140625 646.65625 174.563476562 617.778320312 174.51953125 582.200195312 c 2
 174.51953125 524.790039062 l 1
 344.1796875 524.790039062 l 1
 344.1796875 607.139648438 l 2
 344.1796875 626.733398438 360.086914062 642.639648438 379.6796875 642.639648438 c 0
 399.272460938 642.639648438 415.1796875 626.733398438 415.1796875 607.139648438 c 2
 415.1796875 524.790039062 l 1
 454.6796875 524.790039062 l 2
 474.272460938 524.790039062 490.1796875 508.8828125 490.1796875 489.290039062 c 0
 490.1796875 469.697265625 474.272460938 453.790039062 454.6796875 453.790039062 c 2
 415.149414062 453.790039062 l 1
 415.149414062 182.139648438 l 2
 415.188476562 162.327148438 431.267578125 146.248046875 451.080078125 146.209960938 c 2
 472.5 146.209960938 l 2
EndSplineSet
Validated: 1
LCarets2: 1 0
Ligature2: "'liga'-1" f t
Substitution2: "'ss01' Style Set 1 in Latin lookup 0-1" I
EndChar

StartChar: asterisk
Encoding: 42 42 78
Width: 339
Flags: W
HStem: 418.05 299.59
VStem: 133.676 71<615.68 714.848>
LayerCount: 2
Fore
SplineSet
313.525390625 642.120117188 m 0
 316.956054688 636.658203125 319 630.182617188 319 623.262695312 c 0
 319 610.591796875 312.346679688 599.461914062 302.345703125 593.1796875 c 2
 221.885742188 542.650390625 l 1
 275.74609375 475.860351562 l 2
 280.657226562 469.76953125 283.624023438 461.9765625 283.624023438 453.55078125 c 0
 283.624023438 433.95703125 267.716796875 418.049804688 248.123046875 418.049804688 c 0
 236.956054688 418.049804688 226.985351562 423.217773438 220.475585938 431.290039062 c 2
 169.17578125 494.91015625 l 1
 117.875976562 431.290039062 l 2
 111.366210938 423.217773438 101.420898438 418.098632812 90.25390625 418.098632812 c 0
 70.66015625 418.098632812 54.7529296875 434.005859375 54.7529296875 453.599609375 c 0
 54.7529296875 462.025390625 57.6943359375 469.76953125 62.60546875 475.860351562 c 2
 116.465820312 542.650390625 l 1
 36.005859375 593.1796875 l 2
 26.2099609375 599.501953125 19.794921875 610.46875 19.794921875 622.984375 c 0
 19.794921875 642.577148438 35.7021484375 658.484375 55.294921875 658.484375 c 0
 62.05859375 658.484375 68.3828125 656.588867188 73.765625 653.299804688 c 2
 133.67578125 615.6796875 l 1
 133.67578125 682.139648438 l 2
 133.67578125 701.733398438 149.583007812 717.639648438 169.17578125 717.639648438 c 0
 188.768554688 717.639648438 204.67578125 701.733398438 204.67578125 682.139648438 c 2
 204.67578125 615.6796875 l 1
 264.5859375 653.299804688 l 2
 270.047851562 656.732421875 276.524414062 658.77734375 283.446289062 658.77734375 c 0
 296.1171875 658.77734375 307.24609375 652.122070312 313.525390625 642.120117188 c 0
EndSplineSet
Validated: 1
EndChar

StartChar: ampersand
Encoding: 38 38 79
Width: 621
Flags: W
HStem: 75.21 71<136.838 296.3 459.263 588.208> 646.64 70.9404<219.276 332.452>
VStem: 30.3506 71<182.809 323.336> 357.771 70.9805<511.594 620.616>
LayerCount: 2
Fore
SplineSet
288 402.370117188 m 1
 394.600585938 255.830078125 l 1
 430.986271581 299.09416093 473.95685074 359.707853149 512.060546875 410.6796875 c 0
 518.524414062 419.474609375 528.94140625 425.186523438 540.682617188 425.186523438 c 0
 560.275390625 425.186523438 576.182617188 409.279296875 576.182617188 389.686523438 c 0
 576.182617188 381.654296875 573.474609375 374.181640625 568.969726562 368.23046875 c 0
 526.211418059 310.960882195 479.333591456 244.476176435 437.530273438 196.870117188 c 1
 455.060546875 172.76953125 l 2
 466.809570312 156.6640625 485.784179688 146.241210938 507.219726562 146.209960938 c 2
 555.5 146.209960938 l 2
 575.092773438 146.209960938 591 130.302734375 591 110.709960938 c 0
 591 91.1171875 575.092773438 75.2099609375 555.5 75.2099609375 c 2
 507.190429688 75.2099609375 l 2
 462.181640625 75.298828125 422.342773438 97.1875 397.66015625 131 c 2
 386.959960938 145.650390625 l 1
 342.911249615 106.97181001 290.55859375 75.2099609375 216.350585938 75.2099609375 c 0
 106.895394505 75.2099609377 30.3505859375 140.839625757 30.3505859375 248.6796875 c 0
 30.3505859375 353.035294212 91.7758663946 412.239386219 168.259765625 442.959960938 c 1
 92.1907393134 545.843278908 122.309213529 717.580078125 277.469726562 717.580078125 c 0
 360.00993365 717.580078125 428.750976562 651.784273198 428.750976562 567.630859375 c 0
 428.750976562 482.383789062 361.124103803 425.567638556 288 402.370117188 c 1
213.66015625 383.91015625 m 1
 139.080078125 361 101.350585938 315.610351562 101.350585938 248.6796875 c 0
 101.350585938 182.599609375 142.190429688 146.209960938 216.350585938 146.209960938 c 0
 264.66015625 146.209960938 305.350585938 167.3203125 345 203.3203125 c 1
 213.66015625 383.91015625 l 1
242.25 463.629882812 m 1
 299.001205454 475.674551073 357.770507812 506.178412096 357.770507812 567.01953125 c 0
 357.740234375 606.16015625 327.66015625 646.639648438 277.440429688 646.639648438 c 0
 230.3203125 646.639648438 193.379882812 611.639648438 193.379882812 567.01953125 c 0
 193.379882812 524.700195312 219.100585938 492.240234375 242.25 463.629882812 c 1
EndSplineSet
EndChar

StartChar: percent
Encoding: 37 37 80
Width: 611
Flags: W
HStem: 75.1729 21G<109.906 125.971> 75.21 70.9902<398.534 498.181> 289.5 71<398.536 498.167> 432.36 71<112.825 212.468> 646.64 71<112.825 212.45>
VStem: 20 71.0098<525.182 624.817> 234.29 71<525.182 624.808> 305.71 71<168.031 267.679> 520 71<168.035 267.665>
LayerCount: 2
Fore
SplineSet
162.639648438 432.360351562 m 0x3f80
 83.990234375 432.360351562 20 496.360351562 20 575 c 0
 20 653.639648438 84 717.639648438 162.639648438 717.639648438 c 0
 241.280273438 717.639648438 305.290039062 653.639648438 305.290039062 575 c 0
 305.290039062 496.360351562 241.299804688 432.360351562 162.639648438 432.360351562 c 0x3f80
162.639648438 646.639648438 m 0
 123.10546875 646.634765625 91.009765625 614.536132812 91.009765625 575 c 0
 91.009765625 535.4609375 123.111328125 503.360351562 162.650390625 503.360351562 c 0
 202.189453125 503.360351562 234.290039062 535.4609375 234.290039062 575 c 0
 234.24609375 614.522460938 202.163085938 646.6015625 162.639648438 646.639648438 c 0
448.360351562 75.2099609375 m 0x7f80
 369.700195312 75.2099609375 305.709960938 139.209960938 305.709960938 217.860351562 c 0
 305.709960938 296.509765625 369.709960938 360.5 448.360351562 360.5 c 0
 527.009765625 360.5 591 296.5 591 217.860351562 c 0
 591 139.219726562 527.009765625 75.2099609375 448.360351562 75.2099609375 c 0x7f80
448.360351562 289.5 m 0
 408.815429688 289.5 376.709960938 257.39453125 376.709960938 217.849609375 c 0
 376.709960938 178.305664062 408.815429688 146.200195312 448.360351562 146.200195312 c 0
 487.904296875 146.200195312 520 178.315429688 520 217.860351562 c 0
 519.950195312 257.375976562 487.875976562 289.450195312 448.360351562 289.5 c 0
84.1923828125 110.719726562 m 0
 84.1923828125 117.834960938 86.310546875 124.501953125 89.919921875 130.059570312 c 2
 461.349609375 701.490234375 l 2
 467.703125 711.112304688 478.614257812 717.465820312 490.997070312 717.465820312 c 0
 510.58984375 717.465820312 526.497070312 701.559570312 526.497070312 681.965820312 c 0
 526.497070312 674.940429688 524.407226562 668.314453125 520.879882812 662.799804688 c 2
 149.5 91.3701171875 l 2
 143.1796875 81.625 132.205078125 75.1728515625 119.736328125 75.1728515625 c 0xbf80
 100.075195312 75.23828125 84.1923828125 91.138671875 84.1923828125 110.719726562 c 0
EndSplineSet
EndChar

StartChar: semicolon
Encoding: 59 59 81
Width: 149
Flags: W
HStem: 417.65 107.141<32.5019 118.357>
VStem: 21.8594 107.141<428.293 514.148> 29.7773 107.223<0.463466 37.4487 85.7854 171.697> 66 71<32.9586 91.8699>
LayerCount: 2
Fore
SplineSet
83.4296875 182.350585938 m 0x90
 112.997070312 182.344726562 137 158.338867188 137 128.770507812 c 2xa0
 137 75.2001953125 l 2x90
 137 64.7802734375 137 47.3408203125 130.639648438 28.5908203125 c 0
 122.290039062 3.990234375 105.290039062 -15.26953125 81.4794921875 -27.109375 c 0
 76.6376953125 -29.5869140625 71.0849609375 -31.025390625 65.27734375 -31.025390625 c 0
 45.6845703125 -31.025390625 29.77734375 -15.1181640625 29.77734375 4.474609375 c 0xa0
 29.77734375 18.5478515625 37.984375 30.7197265625 49.8701171875 36.4609375 c 0
 63.580078125 43.2802734375 66 54.390625 66 75.2001953125 c 2
 66 78.1201171875 l 1
 44.9658203125 85.3515625 29.8447265625 105.305664062 29.8447265625 128.780273438 c 0
 29.8447265625 158.346679688 53.8486328125 182.350585938 83.4150390625 182.350585938 c 0
 83.419921875 182.350585938 83.4248046875 182.350585938 83.4296875 182.350585938 c 0x90
21.859375 471.220703125 m 0xc0
 21.859375 500.806640625 45.84375 524.791015625 75.4296875 524.791015625 c 0
 105.015625 524.791015625 129 500.806640625 129 471.220703125 c 0
 129 441.634765625 105.015625 417.650390625 75.4296875 417.650390625 c 0
 45.84375 417.650390625 21.859375 441.634765625 21.859375 471.220703125 c 0xc0
EndSplineSet
EndChar

StartChar: uniE740
Encoding: 260 59200 82
Width: 716
Flags: W
HStem: 75.21 71<607.304 693.208> 453.79 71<22.3717 94.5801 165.58 291.521 362.521 532.14 603.14 675.348> 646.595 71.0039<183.541 293.263 380.477 491.621>
VStem: 94.5801 71<78.0016 453.79 524.79 628.629> 291.521 71<77.9918 453.79 524.79 628.74> 532.14 71<150.374 453.79 524.79 639.848>
LayerCount: 2
Fore
SplineSet
660.5 146.209960938 m 2
 680.092773438 146.209960938 696 130.302734375 696 110.709960938 c 0
 696 91.1171875 680.092773438 75.2099609375 660.5 75.2099609375 c 2
 639.0703125 75.2099609375 l 2
 580.083984375 75.2763671875 532.206054688 123.154296875 532.139648438 182.139648438 c 2
 532.139648438 453.790039062 l 1
 362.520507812 453.790039062 l 1
 362.520507812 110.700195312 l 2
 362.520507812 91.107421875 346.61328125 75.2001953125 327.020507812 75.2001953125 c 0
 307.426757812 75.2001953125 291.520507812 91.107421875 291.520507812 110.700195312 c 2
 291.520507812 453.790039062 l 1
 165.580078125 453.790039062 l 1
 165.580078125 110.709960938 l 2
 165.580078125 91.1171875 149.672851562 75.2099609375 130.080078125 75.2099609375 c 0
 110.487304688 75.2099609375 94.580078125 91.1171875 94.580078125 110.709960938 c 2
 94.580078125 453.790039062 l 1
 55.080078125 453.790039062 l 2
 35.4873046875 453.790039062 19.580078125 469.697265625 19.580078125 489.290039062 c 0
 19.580078125 508.8828125 35.4873046875 524.790039062 55.080078125 524.790039062 c 2
 94.580078125 524.790039062 l 1
 94.580078125 582.08984375 l 2
 94.580078125 656.799804688 155.370117188 717.58984375 230.080078125 717.58984375 c 0
 230.450195312 717.591796875 230.579101562 717.598632812 230.94921875 717.598632812 c 0
 243.677734375 717.598632812 256.16796875 716.569335938 268.33984375 714.58984375 c 0
 284.811523438 711.515625 297.361328125 697.048828125 297.361328125 679.69140625 c 0
 297.361328125 660.098632812 281.454101562 644.19140625 261.861328125 644.19140625 c 0
 260.049804688 644.19140625 258.26953125 644.327148438 256.530273438 644.58984375 c 0
 248.258789062 645.912109375 239.954101562 646.594726562 231.313476562 646.594726562 c 0
 230.901367188 646.594726562 230.490234375 646.592773438 230.080078125 646.58984375 c 0
 194.501953125 646.545898438 165.624023438 617.66796875 165.580078125 582.08984375 c 2
 165.580078125 524.790039062 l 1
 291.520507812 524.790039062 l 1
 291.520507812 582.200195312 l 2
 291.520507812 656.91015625 352.299804688 717.700195312 427.020507812 717.700195312 c 0
 427.387695312 717.702148438 427.514648438 717.708984375 427.8828125 717.708984375 c 0
 440.610351562 717.708984375 453.098632812 716.6796875 465.270507812 714.700195312 c 0
 482.362304688 712.146484375 495.553710938 697.387695312 495.553710938 679.58984375 c 0
 495.553710938 659.99609375 479.646484375 644.08984375 460.053710938 644.08984375 c 0
 457.8046875 644.08984375 455.603515625 644.298828125 453.469726562 644.700195312 c 0
 445.166015625 646.021484375 436.829101562 646.704101562 428.155273438 646.704101562 c 0
 427.776367188 646.704101562 427.3984375 646.702148438 427.020507812 646.700195312 c 0
 391.439453125 646.661132812 362.55859375 617.780273438 362.520507812 582.200195312 c 2
 362.520507812 524.790039062 l 1
 532.139648438 524.790039062 l 1
 532.139648438 607.139648438 l 2
 532.139648438 626.733398438 548.046875 642.639648438 567.639648438 642.639648438 c 0
 587.233398438 642.639648438 603.139648438 626.733398438 603.139648438 607.139648438 c 2
 603.139648438 524.790039062 l 1
 642.639648438 524.790039062 l 2
 662.233398438 524.790039062 678.139648438 508.8828125 678.139648438 489.290039062 c 0
 678.139648438 469.697265625 662.233398438 453.790039062 642.639648438 453.790039062 c 2
 603.139648438 453.790039062 l 1
 603.139648438 182.139648438 l 2
 603.178710938 162.327148438 619.2578125 146.248046875 639.0703125 146.209960938 c 2
 660.5 146.209960938 l 2
EndSplineSet
Validated: 1
Ligature2: "'liga'-1" f f t
LCarets2: 2 0 0
EndChar

StartChar: bracketleft
Encoding: 91 91 83
Width: 245
Flags: W
HStem: -39.0781 71<100.721 212.208> 646.643 71<100.721 212.208>
VStem: 29.7207 185.279<-36.2865 29.1304 649.434 714.851> 29.7207 71<31.9219 646.643>
LayerCount: 2
Fore
SplineSet
179.5 -39.078125 m 2xe0
 65.220703125 -39.078125 l 2
 45.626953125 -39.078125 29.720703125 -23.1708984375 29.720703125 -3.578125 c 2
 29.720703125 682.142578125 l 2
 29.720703125 701.735351562 45.626953125 717.642578125 65.220703125 717.642578125 c 2
 179.5 717.642578125 l 2
 199.09375 717.642578125 215 701.735351562 215 682.142578125 c 0xe0
 215 662.548828125 199.09375 646.642578125 179.5 646.642578125 c 2
 100.720703125 646.642578125 l 1
 100.720703125 31.921875 l 1xd0
 179.5 31.921875 l 2
 199.09375 31.921875 215 16.015625 215 -3.578125 c 0
 215 -23.1708984375 199.09375 -39.078125 179.5 -39.078125 c 2xe0
EndSplineSet
Validated: 1
EndChar

StartChar: bracketright
Encoding: 93 93 84
Width: 245
Flags: W
HStem: -39.3633 71<32.5122 144> 646.357 71<32.5122 144>
VStem: 29.7207 185.279<-36.5716 28.8452 649.149 714.566> 144 71<31.6367 646.357>
LayerCount: 2
Fore
SplineSet
179.5 -39.36328125 m 6xe0
 65.220703125 -39.36328125 l 6
 45.626953125 -39.36328125 29.720703125 -23.4560546875 29.720703125 -3.86328125 c 4xe0
 29.720703125 15.73046875 45.626953125 31.63671875 65.220703125 31.63671875 c 6
 144 31.63671875 l 5
 144 646.357421875 l 5xd0
 65.220703125 646.357421875 l 6
 45.626953125 646.357421875 29.720703125 662.263671875 29.720703125 681.857421875 c 4
 29.720703125 701.450195312 45.220703125 717.357421875 65.220703125 717.357421875 c 6
 179.5 717.357421875 l 6
 199.220703125 717.357421875 215 701.450195312 215 681.857421875 c 6
 215 -3.86328125 l 6
 215 -23.4560546875 199.09375 -39.36328125 179.5 -39.36328125 c 6xe0
EndSplineSet
Validated: 1
EndChar

StartChar: plus
Encoding: 43 43 85
Width: 397
Flags: W
HStem: 264.5 71<23.0709 163.14 234.14 374.208>
VStem: 163.14 71<124.431 264.5 335.5 475.569>
LayerCount: 2
Fore
SplineSet
163.139648438 264.5 m 1
 55.779296875 264.5 l 2
 36.1865234375 264.5 20.279296875 280.407226562 20.279296875 300 c 0
 20.279296875 319.592773438 36.1865234375 335.5 55.779296875 335.5 c 2
 163.139648438 335.5 l 1
 163.139648438 442.860351562 l 2
 163.139648438 462.453125 179.046875 478.360351562 198.639648438 478.360351562 c 0
 218.232421875 478.360351562 234.139648438 462.453125 234.139648438 442.860351562 c 2
 234.139648438 335.5 l 1
 341.5 335.5 l 2
 361.092773438 335.5 377 319.592773438 377 300 c 0
 377 280.407226562 361.092773438 264.5 341.5 264.5 c 2
 234.139648438 264.5 l 1
 234.139648438 157.139648438 l 2
 234.139648438 137.546875 218.232421875 121.639648438 198.639648438 121.639648438 c 0
 179.046875 121.639648438 163.139648438 137.546875 163.139648438 157.139648438 c 2
 163.139648438 264.5 l 1
EndSplineSet
Validated: 1
EndChar

StartChar: dollar
Encoding: 36 36 86
Width: 509
Flags: W
HStem: 75.21 71<133.756 219.5 290.5 362.889> 360.93 71<147.112 362.898> 646.64 71<147.112 219.5 290.5 376.244>
VStem: 30.2598 70.96<476.56 602.017> 219.5 71<6.58168 75.21 717.64 786.279> 408.78 70.9697<190.839 316.301>
LayerCount: 2
Fore
SplineSet
219.5 717.639648438 m 1
 219.5 753.5703125 l 2
 219.5 773.163085938 235.407226562 789.0703125 255 789.0703125 c 0
 274.592773438 789.0703125 290.5 773.163085938 290.5 753.5703125 c 2
 290.5 717.639648438 l 1
 292.860351562 717.639648438 l 2
 329.440429688 717.639648438 360.16015625 712.040039062 386.790039062 700.530273438 c 0
 415.790039062 688.009765625 440.049804688 668.58984375 461.120117188 641.16015625 c 0
 465.87890625 635.119140625 468.71875 627.498046875 468.71875 619.21875 c 0
 468.71875 599.625976562 452.8125 583.71875 433.21875 583.71875 c 0
 421.59375 583.71875 411.296875 589.262695312 404.8203125 597.91015625 c 0
 378.23046875 632.51953125 345.8203125 646.639648438 292.8203125 646.639648438 c 2
 208.219726562 646.639648438 l 2
 149.219726562 646.639648438 101.219726562 598.48046875 101.219726562 539.290039062 c 0
 101.219726562 480.099609375 149.219726562 431.9296875 208.26953125 431.9296875 c 2
 301.75 431.9296875 l 2
 399.919921875 431.9296875 479.75 351.9296875 479.75 253.5703125 c 0
 479.75 155.209960938 399.91015625 75.2099609375 301.740234375 75.2099609375 c 2
 290.5 75.2099609375 l 1
 290.5 39.2900390625 l 2
 290.5 19.697265625 274.592773438 3.7900390625 255 3.7900390625 c 0
 235.407226562 3.7900390625 219.5 19.697265625 219.5 39.2900390625 c 2
 219.5 75.2099609375 l 1
 217.139648438 75.2099609375 l 2
 180.559570312 75.2099609375 149.83984375 80.8095703125 123.209960938 92.330078125 c 0
 94.259765625 104.849609375 69.9501953125 124.26953125 48.8798828125 151.700195312 c 0
 44.12109375 157.741210938 41.28125 165.362304688 41.28125 173.641601562 c 0
 41.28125 193.234375 57.1875 209.141601562 76.78125 209.141601562 c 0
 88.40625 209.141601562 98.703125 203.59765625 105.1796875 194.950195312 c 0
 131.76953125 160.330078125 164.1796875 146.209960938 217.1796875 146.209960938 c 2
 301.780273438 146.209960938 l 2
 360.780273438 146.209960938 408.780273438 194.370117188 408.780273438 253.5703125 c 0
 408.780273438 312.76953125 360.780273438 360.9296875 301.780273438 360.9296875 c 2
 208.259765625 360.9296875 l 2
 110.08984375 360.9296875 30.259765625 440.9296875 30.259765625 539.290039062 c 0
 30.259765625 637.650390625 110.08984375 717.639648438 208.259765625 717.639648438 c 2
 219.5 717.639648438 l 1
EndSplineSet
Validated: 1
EndChar

StartChar: alt_I
Encoding: 261 -1 87
Width: 302
Flags: W
HStem: 74.6426 21G<141 160.5> 74.6426 21G<141 160.5> 697.643 20G<141 160.5>
VStem: 115 71<77.4551 714.83>
LayerCount: 2
Fore
SplineSet
115 110.642578125 m 0xb0
 115 681.642578125 l 0
 115 701.642578125 131 717.642578125 151 717.642578125 c 0
 170 717.642578125 186 701.642578125 186 681.642578125 c 2
 186 110.642578125 l 2
 186 90.642578125 170 74.642578125 151 74.642578125 c 0
 131 74.642578125 115 90.642578125 115 110.642578125 c 0xb0
EndSplineSet
Validated: 1
EndChar

StartChar: Acircumflex
Encoding: 194 194 90
Width: 510
Flags: HW
HStem: 75.208 20.9922G<56.1387 73.7832 436.648 454.303> 75.208 20.9922G<56.1387 73.7832 436.648 454.303> 266.37 71<178.418 332.021> 697.654 20G<247.385 263.082>
VStem: 30.4336 69.2109<78.0069 99.5498> 410.784 69.2158<77.9995 99.5498>
LayerCount: 2
Fore
SplineSet
444.50390625 75.2001953125 m 4xbc
 428.791992188 75.2001953125 415.465820312 85.4091796875 410.784179688 99.5498046875 c 6
 355.53511573 266.370117188 l 5
 154.900878832 266.370117188 l 5
 99.64453125 99.5498046875 l 6
 94.9619140625 85.416015625 81.630859375 75.2080078125 65.935546875 75.2080078125 c 4
 46.341796875 75.2080078125 30.43359375 91.1162109375 30.43359375 110.709960938 c 4
 30.43359375 114.607421875 31.0810546875 118.370117188 32.244140625 121.879882812 c 6
 221.524414062 693.309570312 l 6
 226.205078125 707.4453125 239.536132812 717.654296875 255.233398438 717.654296875 c 4
 270.9296875 717.654296875 284.243164062 707.4453125 288.923828125 693.309570312 c 6
 478.213867188 121.879882812 l 6
 479.373046875 118.374023438 480 114.626953125 480 110.735351562 c 4
 480 91.1337890625 464.1015625 75.2001953125 444.50390625 75.2001953125 c 4xbc
178.418402685 337.370117188 m 5
 332.020691843 337.370117188 l 5
 255.224609375 569.25 l 5
 178.418402685 337.370117188 l 5
EndSplineSet
EndChar

StartChar: Igrave
Encoding: 204 204 98
Width: 111
Flags: W
VStem: 20 71<78.0016 110.71 682.14 714.843>
LayerCount: 2
Fore
SplineSet
20 110.709960938 m 4
 20 91.1171875 35.9072265625 75.2099609375 55.5 75.2099609375 c 4
 75.0927734375 75.2099609375 91 91.1171875 91 110.709960938 c 6
 91 682.139648438 l 6
 91 701.733398438 75.0927734375 717.639648438 55.5 717.639648438 c 4
 35.9072265625 717.639648438 20 701.69921875 20 682.139648438 c 4
 20 110.709960938 l 4
EndSplineSet
Validated: 9
EndChar

StartChar: Iacute
Encoding: 205 205 99
Width: 111
Flags: W
VStem: 20 71<78.0016 110.71 682.14 714.843>
LayerCount: 2
Fore
SplineSet
20 110.709960938 m 4
 20 91.1171875 35.9072265625 75.2099609375 55.5 75.2099609375 c 4
 75.0927734375 75.2099609375 91 91.1171875 91 110.709960938 c 6
 91 682.139648438 l 6
 91 701.733398438 75.0927734375 717.639648438 55.5 717.639648438 c 4
 35.9072265625 717.639648438 20 701.69921875 20 682.139648438 c 4
 20 110.709960938 l 4
EndSplineSet
Validated: 9
EndChar

StartChar: Icircumflex
Encoding: 206 206 100
Width: 111
Flags: W
VStem: 20 71<78.0016 110.71 682.14 714.843>
LayerCount: 2
Fore
SplineSet
20 110.709960938 m 4
 20 91.1171875 35.9072265625 75.2099609375 55.5 75.2099609375 c 4
 75.0927734375 75.2099609375 91 91.1171875 91 110.709960938 c 6
 91 682.139648438 l 6
 91 701.733398438 75.0927734375 717.639648438 55.5 717.639648438 c 4
 35.9072265625 717.639648438 20 701.69921875 20 682.139648438 c 4
 20 110.709960938 l 4
EndSplineSet
Validated: 9
EndChar

StartChar: Idieresis
Encoding: 207 207 101
Width: 111
Flags: W
HStem: 75 21G<46 65.5> 75 21G<46 65.5> 698 20G<46 65.5>
VStem: 20 71<77.8125 715.188>
LayerCount: 2
Fore
SplineSet
20 111 m 0xb0
 20 682 l 0
 20 702 36 718 56 718 c 0
 75 718 91 702 91 682 c 2
 91 111 l 2
 91 91 75 75 56 75 c 0
 36 75 20 91 20 111 c 0xb0
EndSplineSet
Validated: 1
EndChar

StartChar: questiondown
Encoding: 191 191 102
Width: 425
Flags: W
HStem: -117.639 71<145.282 279.458> 417.65 107.141<169.433 255.288>
VStem: 19.7207 71<7.92242 146.227> 158.79 107.141<428.293 514.148> 177.42 71<276.404 354.137> 334 71<8.79565 107.709>
LayerCount: 2
Fore
SplineSet
265.930664062 471.220703125 m 4xf4
 265.930664062 441.634765625 241.946289062 417.650390625 212.360351562 417.650390625 c 4
 182.774414062 417.650390625 158.790039062 441.634765625 158.790039062 471.220703125 c 4
 158.790039062 500.806640625 182.774414062 524.791015625 212.360351562 524.791015625 c 4
 241.946289062 524.791015625 265.930664062 500.806640625 265.930664062 471.220703125 c 4xf4
212.919921875 356.930664062 m 4
 232.513671875 356.930664062 248.419921875 341.024414062 248.419921875 321.430664062 c 4
 248.419921875 288.270507812 234.590820312 256.361328125 207.3203125 226.571289062 c 4
 186.590820312 203.94140625 161.940429688 186.331054688 142.129882812 172.19140625 c 4
 134.700195312 166.880859375 128.270507812 162.291015625 123.459960938 158.430664062 c 4
 102.959960938 142.000976562 90.720703125 110.791015625 90.720703125 75.0009765625 c 4
 90.720703125 7.8662109375 145.225585938 -46.638671875 212.360351562 -46.638671875 c 4
 279.495117188 -46.638671875 334 7.8662109375 334 75.0009765625 c 4
 334 94.59375 349.907226562 110.500976562 369.5 110.500976562 c 4
 389.09375 110.500976562 405 94.59375 405 75.0009765625 c 4
 405 -31.314453125 318.67578125 -117.638671875 212.360351562 -117.638671875 c 4
 106.140625 -117.638671875 19.720703125 -31.21875 19.720703125 75.0009765625 c 4
 19.720703125 133.000976562 41.3408203125 183.571289062 79.0302734375 213.810546875 c 4
 85.390625 218.911132812 92.91015625 224.28125 100.870117188 229.970703125 c 4
 133.180664062 253.041015625 177.419921875 284.640625 177.419921875 321.430664062 c 4xec
 177.42578125 341.021484375 193.330078125 356.92578125 212.919921875 356.930664062 c 4
EndSplineSet
EndChar

StartChar: Ograve
Encoding: 210 210 103
Width: 510
Flags: W
HStem: 75.21 71<178.129 331.871> 646.64 71.0107<178.127 331.873>
VStem: 30.21 71<223.51 569.338> 408.79 71<223.51 569.347>
LayerCount: 2
Fore
SplineSet
255 75.2099609375 m 4
 130.934570312 75.2099609375 30.2099609375 175.934570312 30.2099609375 300 c 6
 30.2099609375 492.860351562 l 6
 30.2099609375 616.924804688 130.934570312 717.650390625 255 717.650390625 c 4
 379.065429688 717.650390625 479.790039062 616.924804688 479.790039062 492.860351562 c 6
 479.790039062 300 l 6
 479.790039062 175.934570312 379.065429688 75.2099609375 255 75.2099609375 c 4
255 646.639648438 m 4
 170.200195312 646.639648438 101.209960938 577.639648438 101.209960938 492.860351562 c 6
 101.209960938 300 l 6
 101.209960938 215.200195312 170.209960938 146.209960938 255 146.209960938 c 4
 339.790039062 146.209960938 408.790039062 215.200195312 408.790039062 300 c 6
 408.790039062 492.860351562 l 6
 408.790039062 577.66015625 339.799804688 646.639648438 255 646.639648438 c 4
EndSplineSet
Validated: 1
EndChar

StartChar: Oacute
Encoding: 211 211 104
Width: 510
Flags: W
HStem: 75.21 71<178.129 331.871> 646.64 71.0107<178.127 331.873>
VStem: 30.21 71<223.51 569.338> 408.79 71<223.51 569.347>
LayerCount: 2
Fore
SplineSet
255 75.2099609375 m 4
 130.934570312 75.2099609375 30.2099609375 175.934570312 30.2099609375 300 c 6
 30.2099609375 492.860351562 l 6
 30.2099609375 616.924804688 130.934570312 717.650390625 255 717.650390625 c 4
 379.065429688 717.650390625 479.790039062 616.924804688 479.790039062 492.860351562 c 6
 479.790039062 300 l 6
 479.790039062 175.934570312 379.065429688 75.2099609375 255 75.2099609375 c 4
255 646.639648438 m 4
 170.200195312 646.639648438 101.209960938 577.639648438 101.209960938 492.860351562 c 6
 101.209960938 300 l 6
 101.209960938 215.200195312 170.209960938 146.209960938 255 146.209960938 c 4
 339.790039062 146.209960938 408.790039062 215.200195312 408.790039062 300 c 6
 408.790039062 492.860351562 l 6
 408.790039062 577.66015625 339.799804688 646.639648438 255 646.639648438 c 4
EndSplineSet
Validated: 1
EndChar

StartChar: Ocircumflex
Encoding: 212 212 105
Width: 510
Flags: W
HStem: 75.21 71<178.129 331.871> 646.64 71.0107<178.127 331.873>
VStem: 30.21 71<223.51 569.338> 408.79 71<223.51 569.347>
LayerCount: 2
Fore
SplineSet
255 75.2099609375 m 4
 130.934570312 75.2099609375 30.2099609375 175.934570312 30.2099609375 300 c 6
 30.2099609375 492.860351562 l 6
 30.2099609375 616.924804688 130.934570312 717.650390625 255 717.650390625 c 4
 379.065429688 717.650390625 479.790039062 616.924804688 479.790039062 492.860351562 c 6
 479.790039062 300 l 6
 479.790039062 175.934570312 379.065429688 75.2099609375 255 75.2099609375 c 4
255 646.639648438 m 4
 170.200195312 646.639648438 101.209960938 577.639648438 101.209960938 492.860351562 c 6
 101.209960938 300 l 6
 101.209960938 215.200195312 170.209960938 146.209960938 255 146.209960938 c 4
 339.790039062 146.209960938 408.790039062 215.200195312 408.790039062 300 c 6
 408.790039062 492.860351562 l 6
 408.790039062 577.66015625 339.799804688 646.639648438 255 646.639648438 c 4
EndSplineSet
Validated: 1
EndChar

StartChar: Otilde
Encoding: 213 213 106
Width: 510
Flags: HW
HStem: 75.21 71<178.129 331.871> 646.64 71.0107<178.127 331.873>
VStem: 30.21 71<223.51 569.338> 408.79 71<223.51 569.347>
LayerCount: 2
Fore
SplineSet
255 75.2099609375 m 4
 130.934570312 75.2099609375 30.2099609375 175.934570312 30.2099609375 300 c 6
 30.2099609375 492.860351562 l 6
 30.2099609375 616.924804688 130.934570312 717.650390625 255 717.650390625 c 4
 379.065429688 717.650390625 479.790039062 616.924804688 479.790039062 492.860351562 c 6
 479.790039062 300 l 6
 479.790039062 175.934570312 379.065429688 75.2099609375 255 75.2099609375 c 4
255 646.639648438 m 4
 170.200195312 646.639648438 101.209960938 577.639648438 101.209960938 492.860351562 c 6
 101.209960938 300 l 6
 101.209960938 215.200195312 170.209960938 146.209960938 255 146.209960938 c 4
 339.790039062 146.209960938 408.790039062 215.200195312 408.790039062 300 c 6
 408.790039062 492.860351562 l 6
 408.790039062 577.66015625 339.799804688 646.639648438 255 646.639648438 c 4
EndSplineSet
EndChar

StartChar: Odieresis
Encoding: 214 214 107
Width: 510
Flags: HW
HStem: 75.21 71<178.129 331.871> 646.64 71.0107<178.127 331.873>
VStem: 30.21 71<223.51 569.338> 408.79 71<223.51 569.347>
LayerCount: 2
Fore
SplineSet
255 75.2099609375 m 4
 130.934570312 75.2099609375 30.2099609375 175.934570312 30.2099609375 300 c 6
 30.2099609375 492.860351562 l 6
 30.2099609375 616.924804688 130.934570312 717.650390625 255 717.650390625 c 4
 379.065429688 717.650390625 479.790039062 616.924804688 479.790039062 492.860351562 c 6
 479.790039062 300 l 6
 479.790039062 175.934570312 379.065429688 75.2099609375 255 75.2099609375 c 4
255 646.639648438 m 4
 170.200195312 646.639648438 101.209960938 577.639648438 101.209960938 492.860351562 c 6
 101.209960938 300 l 6
 101.209960938 215.200195312 170.209960938 146.209960938 255 146.209960938 c 4
 339.790039062 146.209960938 408.790039062 215.200195312 408.790039062 300 c 6
 408.790039062 492.860351562 l 6
 408.790039062 577.66015625 339.799804688 646.639648438 255 646.639648438 c 4
EndSplineSet
EndChar

StartChar: ugrave
Encoding: 249 249 108
Width: 414
Flags: W
HStem: 75.21 71<143.619 270.614> 75.21 21G<339.424 359.016> 504.79 20G<53.7036 73.2969 339.424 359.017>
VStem: 28 71<192.302 521.998> 313.721 71<78.0019 111.228 189.352 521.998>
LayerCount: 2
Fore
SplineSet
234.26953125 561.341796875 m 4x38
 234.3125 561.326171875 234.356445312 561.310546875 234.399414062 561.294921875 c 4
 252.815429688 554.591796875 273.208984375 564.1015625 279.912109375 582.517578125 c 4
 285.202148438 597.049804688 280.361328125 612.754882812 269.08984375 622.096679688 c 6
 187.333984375 689.85546875 l 6
 184.28515625 692.381835938 180.758789062 694.435546875 176.827148438 695.8671875 c 4
 158.404296875 702.572265625 138.00390625 693.059570312 131.297851562 674.63671875 c 4
 126.0234375 660.145507812 130.7734375 644.4609375 142.008789062 635.1484375 c 6
 223.760742188 567.380859375 l 6
 226.810546875 564.852539062 230.337890625 562.7734375 234.26953125 561.341796875 c 4x38
349.220703125 75.2099609375 m 0x78
 329.626953125 75.2099609375 313.720703125 91.1171875 313.720703125 110.709960938 c 2
 313.720703125 111.227539062 l 1
 283.83203125 88.6279296875 246.633789062 75.2099609375 206.360351562 75.2099609375 c 0
 108.010742188 75.2099609375 28 155.209960938 28 253.5703125 c 2
 28 489.290039062 l 2
 28 508.8828125 43.9072265625 524.790039062 63.5 524.790039062 c 0
 83.09375 524.790039062 99 508.8828125 99 489.290039062 c 2
 99 253.5703125 l 2
 99 194.31640625 147.106445312 146.209960938 206.360351562 146.209960938 c 0xb8
 265.614257812 146.209960938 313.720703125 194.31640625 313.720703125 253.5703125 c 2
 313.720703125 489.290039062 l 2
 313.720703125 508.8828125 329.626953125 524.790039062 349.220703125 524.790039062 c 0
 368.813476562 524.790039062 384.720703125 508.8828125 384.720703125 489.290039062 c 0
 384.720703125 110.709960938 l 0
 384.71484375 91.119140625 368.810546875 75.2099609375 349.220703125 75.2099609375 c 0x78
EndSplineSet
Validated: 41
EndChar

StartChar: uacute
Encoding: 250 250 109
Width: 414
Flags: W
HStem: 75.21 71<143.619 270.614> 75.21 21G<339.424 359.016> 504.79 20G<53.7036 73.2969 339.424 359.017>
VStem: 28 71<192.302 521.998> 313.721 71<78.0019 111.228 189.352 521.998>
LayerCount: 2
Fore
SplineSet
176.940429688 561.341796875 m 4x38
 176.897460938 561.326171875 176.853515625 561.310546875 176.810546875 561.294921875 c 4
 158.39453125 554.591796875 138.000976562 564.1015625 131.297851562 582.517578125 c 4
 126.0078125 597.049804688 130.848632812 612.754882812 142.120117188 622.096679688 c 6
 223.875976562 689.85546875 l 6
 226.924804688 692.381835938 230.451171875 694.435546875 234.3828125 695.8671875 c 4
 252.805664062 702.572265625 273.206054688 693.059570312 279.912109375 674.63671875 c 4
 285.186523438 660.145507812 280.436523438 644.4609375 269.201171875 635.1484375 c 6
 187.44921875 567.380859375 l 6
 184.399414062 564.852539062 180.872070312 562.7734375 176.940429688 561.341796875 c 4x38
349.220703125 75.2099609375 m 4x78
 329.626953125 75.2099609375 313.720703125 91.1171875 313.720703125 110.709960938 c 6
 313.720703125 111.227539062 l 5
 283.83203125 88.6279296875 246.633789062 75.2099609375 206.360351562 75.2099609375 c 4
 108.010742188 75.2099609375 28 155.209960938 28 253.5703125 c 6
 28 489.290039062 l 6
 28 508.8828125 43.9072265625 524.790039062 63.5 524.790039062 c 4
 83.09375 524.790039062 99 508.8828125 99 489.290039062 c 6
 99 253.5703125 l 6
 99 194.31640625 147.106445312 146.209960938 206.360351562 146.209960938 c 4xb8
 265.614257812 146.209960938 313.720703125 194.31640625 313.720703125 253.5703125 c 6
 313.720703125 489.290039062 l 6
 313.720703125 508.8828125 329.626953125 524.790039062 349.220703125 524.790039062 c 4
 368.813476562 524.790039062 384.720703125 508.8828125 384.720703125 489.290039062 c 4
 384.720703125 110.709960938 l 4
 384.71484375 91.119140625 368.810546875 75.2099609375 349.220703125 75.2099609375 c 4x78
EndSplineSet
Validated: 33
EndChar

StartChar: ucircumflex
Encoding: 251 251 110
Width: 414
Flags: W
HStem: 75.21 71<143.619 270.614> 75.21 21G<339.424 359.016> 504.79 20G<53.7036 73.2969 339.424 359.017>
VStem: 28 71<192.302 521.998> 313.721 71<78.0019 111.228 189.352 521.998>
LayerCount: 2
Fore
SplineSet
269.920898438 575.530273438 m 6x38
 263.969726562 576.813476562 257.8984375 577.181640625 252.8125 580.009765625 c 6
 205.8125 606.139648438 l 5
 158.670898438 580 l 6
 154.157226562 577.497070312 147.494140625 575.3515625 141.106445312 575.3515625 c 4
 121.513671875 575.3515625 105.606445312 591.258789062 105.606445312 610.8515625 c 4
 105.606445312 624.3515625 113.155273438 635.928710938 124.190429688 642.059570312 c 6
 188.48046875 677.780273438 l 6
 193.577148438 680.612304688 199.444335938 682.220703125 205.68359375 682.220703125 c 4
 211.921875 682.220703125 217.86328125 680.612304688 222.9609375 677.780273438 c 6
 287.250976562 642.059570312 l 6
 298.154296875 636.000976562 305.533203125 624.356445312 305.533203125 611.0078125 c 4
 305.533203125 591.409179688 289.62109375 575.498046875 270.0234375 575.498046875 c 4
 270.018554688 575.498046875 269.974609375 575.518554688 269.970703125 575.51953125 c 6
 269.920898438 575.530273438 l 6x38
349.220703125 75.2099609375 m 0x78
 329.626953125 75.2099609375 313.720703125 91.1171875 313.720703125 110.709960938 c 2
 313.720703125 111.227539062 l 1
 283.83203125 88.6279296875 246.633789062 75.2099609375 206.360351562 75.2099609375 c 0
 108.010742188 75.2099609375 28 155.209960938 28 253.5703125 c 2
 28 489.290039062 l 2
 28 508.8828125 43.9072265625 524.790039062 63.5 524.790039062 c 0
 83.09375 524.790039062 99 508.8828125 99 489.290039062 c 2
 99 253.5703125 l 2
 99 194.31640625 147.106445312 146.209960938 206.360351562 146.209960938 c 0xb8
 265.614257812 146.209960938 313.720703125 194.31640625 313.720703125 253.5703125 c 2
 313.720703125 489.290039062 l 2
 313.720703125 508.8828125 329.626953125 524.790039062 349.220703125 524.790039062 c 0
 368.813476562 524.790039062 384.720703125 508.8828125 384.720703125 489.290039062 c 0
 384.720703125 110.709960938 l 0
 384.71484375 91.119140625 368.810546875 75.2099609375 349.220703125 75.2099609375 c 0x78
EndSplineSet
Validated: 1
EndChar

StartChar: udieresis
Encoding: 252 252 111
Width: 414
Flags: W
HStem: 75.21 71<143.619 270.614> 75.21 21G<339.424 359.016> 504.79 20G<53.7036 73.2969 339.424 359.017> 575 107.14<64.5332 150.389 260.953 346.809>
VStem: 28 71<192.302 521.998> 53.8906 107.141<585.643 671.497> 250.311 107.141<585.643 671.497> 313.721 71<78.0019 111.228 189.352 521.998>
LayerCount: 2
Fore
SplineSet
250.310546875 628.5703125 m 4x32
 250.310546875 658.15625 274.294921875 682.139648438 303.880859375 682.139648438 c 4
 333.466796875 682.139648438 357.451171875 658.15625 357.451171875 628.5703125 c 4
 357.451171875 598.984375 333.466796875 575 303.880859375 575 c 4
 274.294921875 575 250.310546875 598.984375 250.310546875 628.5703125 c 4x32
53.890625 628.5703125 m 4x34
 53.890625 658.15625 77.875 682.139648438 107.4609375 682.139648438 c 4
 137.046875 682.139648438 161.03125 658.15625 161.03125 628.5703125 c 4
 161.03125 598.984375 137.046875 575 107.4609375 575 c 4
 77.875 575 53.890625 598.984375 53.890625 628.5703125 c 4x34
349.220703125 75.2099609375 m 0x79
 329.626953125 75.2099609375 313.720703125 91.1171875 313.720703125 110.709960938 c 2
 313.720703125 111.227539062 l 1
 283.83203125 88.6279296875 246.633789062 75.2099609375 206.360351562 75.2099609375 c 0
 108.010742188 75.2099609375 28 155.209960938 28 253.5703125 c 2
 28 489.290039062 l 2
 28 508.8828125 43.9072265625 524.790039062 63.5 524.790039062 c 0
 83.09375 524.790039062 99 508.8828125 99 489.290039062 c 2
 99 253.5703125 l 2
 99 194.31640625 147.106445312 146.209960938 206.360351562 146.209960938 c 0xb9
 265.614257812 146.209960938 313.720703125 194.31640625 313.720703125 253.5703125 c 2
 313.720703125 489.290039062 l 2
 313.720703125 508.8828125 329.626953125 524.790039062 349.220703125 524.790039062 c 0
 368.813476562 524.790039062 384.720703125 508.8828125 384.720703125 489.290039062 c 0
 384.720703125 110.709960938 l 0
 384.71484375 91.119140625 368.810546875 75.2099609375 349.220703125 75.2099609375 c 0x79
EndSplineSet
Validated: 1
EndChar

StartChar: Ugrave
Encoding: 217 217 112
Width: 510
Flags: W
HStem: 75.21 71<178.129 331.871> 697.64 20G<55.9136 75.5063 434.494 454.086>
VStem: 30.21 71<223.51 714.848> 408.79 71<223.51 714.848>
LayerCount: 2
Fore
SplineSet
255 75.2099609375 m 4
 130.934570312 75.2099609375 30.2099609375 175.934570312 30.2099609375 300 c 6
 30.2099609375 682.139648438 l 6
 30.2099609375 701.733398438 46.1171875 717.639648438 65.7099609375 717.639648438 c 4
 85.302734375 717.639648438 101.209960938 701.733398438 101.209960938 682.139648438 c 6
 101.209960938 300 l 6
 101.209960938 215.200195312 170.209960938 146.209960938 255 146.209960938 c 4
 339.790039062 146.209960938 408.790039062 215.200195312 408.790039062 300 c 6
 408.790039062 682.139648438 l 6
 408.790039062 701.733398438 424.697265625 717.639648438 444.290039062 717.639648438 c 4
 463.8828125 717.639648438 479.790039062 701.733398438 479.790039062 682.139648438 c 6
 479.790039062 300 l 6
 479.790039062 175.934570312 379.065429688 75.2099609375 255 75.2099609375 c 4
EndSplineSet
Validated: 1
EndChar

StartChar: Uacute
Encoding: 218 218 113
Width: 510
Flags: W
HStem: 75.21 71<178.129 331.871> 697.64 20G<55.9136 75.5063 434.494 454.086>
VStem: 30.21 71<223.51 714.848> 408.79 71<223.51 714.848>
LayerCount: 2
Fore
SplineSet
255 75.2099609375 m 4
 130.934570312 75.2099609375 30.2099609375 175.934570312 30.2099609375 300 c 6
 30.2099609375 682.139648438 l 6
 30.2099609375 701.733398438 46.1171875 717.639648438 65.7099609375 717.639648438 c 4
 85.302734375 717.639648438 101.209960938 701.733398438 101.209960938 682.139648438 c 6
 101.209960938 300 l 6
 101.209960938 215.200195312 170.209960938 146.209960938 255 146.209960938 c 4
 339.790039062 146.209960938 408.790039062 215.200195312 408.790039062 300 c 6
 408.790039062 682.139648438 l 6
 408.790039062 701.733398438 424.697265625 717.639648438 444.290039062 717.639648438 c 4
 463.8828125 717.639648438 479.790039062 701.733398438 479.790039062 682.139648438 c 6
 479.790039062 300 l 6
 479.790039062 175.934570312 379.065429688 75.2099609375 255 75.2099609375 c 4
EndSplineSet
Validated: 1
EndChar

StartChar: Ucircumflex
Encoding: 219 219 114
Width: 510
Flags: W
HStem: 75.21 71<178.129 331.871> 697.64 20G<55.9136 75.5063 434.494 454.086>
VStem: 30.21 71<223.51 714.848> 408.79 71<223.51 714.848>
LayerCount: 2
Fore
SplineSet
255 75.2099609375 m 4
 130.934570312 75.2099609375 30.2099609375 175.934570312 30.2099609375 300 c 6
 30.2099609375 682.139648438 l 6
 30.2099609375 701.733398438 46.1171875 717.639648438 65.7099609375 717.639648438 c 4
 85.302734375 717.639648438 101.209960938 701.733398438 101.209960938 682.139648438 c 6
 101.209960938 300 l 6
 101.209960938 215.200195312 170.209960938 146.209960938 255 146.209960938 c 4
 339.790039062 146.209960938 408.790039062 215.200195312 408.790039062 300 c 6
 408.790039062 682.139648438 l 6
 408.790039062 701.733398438 424.697265625 717.639648438 444.290039062 717.639648438 c 4
 463.8828125 717.639648438 479.790039062 701.733398438 479.790039062 682.139648438 c 6
 479.790039062 300 l 6
 479.790039062 175.934570312 379.065429688 75.2099609375 255 75.2099609375 c 4
EndSplineSet
Validated: 1
EndChar

StartChar: Udieresis
Encoding: 220 220 115
Width: 510
Flags: W
HStem: 75.21 71<178.129 331.871> 697.64 20G<55.9136 75.5063 434.494 454.086>
VStem: 30.21 71<223.51 714.848> 408.79 71<223.51 714.848>
LayerCount: 2
Fore
SplineSet
255 75.2099609375 m 4
 130.934570312 75.2099609375 30.2099609375 175.934570312 30.2099609375 300 c 6
 30.2099609375 682.139648438 l 6
 30.2099609375 701.733398438 46.1171875 717.639648438 65.7099609375 717.639648438 c 4
 85.302734375 717.639648438 101.209960938 701.733398438 101.209960938 682.139648438 c 6
 101.209960938 300 l 6
 101.209960938 215.200195312 170.209960938 146.209960938 255 146.209960938 c 4
 339.790039062 146.209960938 408.790039062 215.200195312 408.790039062 300 c 6
 408.790039062 682.139648438 l 6
 408.790039062 701.733398438 424.697265625 717.639648438 444.290039062 717.639648438 c 4
 463.8828125 717.639648438 479.790039062 701.733398438 479.790039062 682.139648438 c 6
 479.790039062 300 l 6
 479.790039062 175.934570312 379.065429688 75.2099609375 255 75.2099609375 c 4
EndSplineSet
Validated: 1
EndChar

StartChar: Yacute
Encoding: 221 221 116
Width: 510
Flags: W
HStem: 75.21 21G<245.202 264.794> 75.21 21G<245.202 264.794> 697.466 20G<55.9907 71.938 438.141 447.938>
VStem: 219.498 71<78.0016 385.71>
LayerCount: 2
Fore
SplineSet
463.887695312 711.709960938 m 4xb0
 473.487304688 705.354492188 479.764648438 694.444335938 479.764648438 682.081054688 c 4
 479.764648438 674.850585938 477.59765625 668.122070312 473.877929688 662.509765625 c 6
 290.498046875 385.709960938 l 5
 290.498046875 110.709960938 l 6
 290.498046875 91.1171875 274.590820312 75.2099609375 254.998046875 75.2099609375 c 4
 235.405273438 75.2099609375 219.498046875 91.1171875 219.498046875 110.709960938 c 6
 219.498046875 385.709960938 l 5
 36.1181640625 662.469726562 l 6
 32.458984375 668.052734375 30.287109375 674.798828125 30.287109375 681.965820312 c 4
 30.287109375 701.559570312 46.1943359375 717.465820312 65.787109375 717.465820312 c 4
 78.0888671875 717.465820312 88.9375 711.196289062 95.3076171875 701.6796875 c 6
 254.998046875 460.6796875 l 5
 414.688476562 701.709960938 l 6
 421.044921875 711.310546875 431.958007812 717.58984375 444.32421875 717.58984375 c 4
 451.551757812 717.58984375 458.27734375 715.424804688 463.887695312 711.709960938 c 4xb0
EndSplineSet
Validated: 1
EndChar

StartChar: Ntilde
Encoding: 209 209 117
Width: 510
Flags: W
HStem: 75.21 21G<55.9136 75.5063 438.107 454.084> 75.21 21G<55.9136 75.5063 438.107 454.084> 697.628 20G<55.9243 71.8989 434.494 454.086>
VStem: 30.21 71<78.0016 564.28> 408.79 71<228.58 714.848>
LayerCount: 2
Fore
SplineSet
444.290039062 75.2099609375 m 0xb8
 431.924804688 75.2119140625 421.048828125 81.5107421875 414.690429688 91.1103515625 c 2
 101.209960938 564.280273438 l 1
 101.209960938 110.709960938 l 2
 101.209960938 91.1171875 85.302734375 75.2099609375 65.7099609375 75.2099609375 c 0
 46.1171875 75.2099609375 30.2099609375 91.1171875 30.2099609375 110.709960938 c 2
 30.2099609375 682.139648438 l 2
 30.2216796875 701.728515625 46.12890625 717.627929688 65.7197265625 717.627929688 c 0
 78.078125 717.627929688 88.94921875 711.337890625 95.3095703125 701.75 c 2
 408.790039062 228.580078125 l 1
 408.790039062 682.139648438 l 2
 408.790039062 701.733398438 424.697265625 717.639648438 444.290039062 717.639648438 c 0
 463.8828125 717.639648438 479.790039062 701.733398438 479.790039062 682.139648438 c 2
 479.790039062 110.709960938 l 2
 479.779296875 91.1220703125 463.877929688 75.220703125 444.290039062 75.2099609375 c 0xb8
EndSplineSet
Validated: 1
EndChar

StartChar: ydieresis
Encoding: 255 255 118
Width: 397
Flags: W
HStem: -117.641 70.9854<135.006 259.903> 75.21 71<135.899 262.893> 504.79 20G<45.9829 65.5762 331.703 351.296> 575 107.14<56.8125 142.668 253.232 339.088>
VStem: 20.2793 71<192.302 521.998> 46.1699 107.141<585.643 671.497> 242.59 107.141<585.643 671.497> 306 71<-0.548559 111.225 189.352 521.998>
LayerCount: 2
Fore
SplineSet
242.58984375 628.5703125 m 4xf2
 242.58984375 658.15625 266.57421875 682.139648438 296.16015625 682.139648438 c 4
 325.74609375 682.139648438 349.73046875 658.15625 349.73046875 628.5703125 c 4
 349.73046875 598.984375 325.74609375 575 296.16015625 575 c 4
 266.57421875 575 242.58984375 598.984375 242.58984375 628.5703125 c 4xf2
46.169921875 628.5703125 m 4xf4
 46.169921875 658.15625 70.154296875 682.139648438 99.740234375 682.139648438 c 4
 129.326171875 682.139648438 153.310546875 658.15625 153.310546875 628.5703125 c 4
 153.310546875 598.984375 129.326171875 575 99.740234375 575 c 4
 70.154296875 575 46.169921875 598.984375 46.169921875 628.5703125 c 4xf4
198.639648438 75.2099609375 m 0
 100.290039062 75.2099609375 20.279296875 155.209960938 20.279296875 253.5703125 c 2
 20.279296875 489.290039062 l 2
 20.279296875 508.8828125 36.1865234375 524.790039062 55.779296875 524.790039062 c 0
 75.373046875 524.790039062 91.279296875 508.8828125 91.279296875 489.290039062 c 2
 91.279296875 253.5703125 l 2
 91.279296875 194.31640625 139.385742188 146.209960938 198.639648438 146.209960938 c 0
 257.893554688 146.209960938 306 194.31640625 306 253.5703125 c 2
 306 489.290039062 l 2
 306 508.8828125 321.90625 524.790039062 341.5 524.790039062 c 0
 361.092773438 524.790039062 377 508.8828125 377 489.290039062 c 0
 377 60.7099609375 l 0
 377 -37.6298828125 296.989257812 -117.639648438 198.639648438 -117.639648438 c 0
 198.473632812 -117.639648438 198.306640625 -117.640625 198.140625 -117.640625 c 0
 149.07421875 -117.640625 104.627929688 -97.6796875 72.529296875 -65.41015625 c 0
 66.1025390625 -58.9833984375 62.1240234375 -50.107421875 62.1240234375 -40.3095703125 c 0
 62.1240234375 -20.716796875 78.03125 -4.8095703125 97.625 -4.8095703125 c 0
 107.419921875 -4.8095703125 116.303710938 -8.775390625 122.729492188 -15.2001953125 c 0
 142.162109375 -34.6298828125 169 -46.6552734375 198.625 -46.6552734375 c 0
 257.875 -46.6552734375 305.994140625 1.4609375 306 60.7099609375 c 2
 306 111.224690302 l 1xf9
 276.111534337 88.6263875464 238.913166606 75.2099609375 198.639648438 75.2099609375 c 0
EndSplineSet
Validated: 1
EndChar

StartChar: yacute
Encoding: 253 253 119
Width: 397
Flags: W
HStem: -117.641 70.9854<135.006 259.903> 75.21 71<135.899 262.893> 504.79 20G<45.9829 65.5762 331.703 351.296>
VStem: 20.2793 71<192.302 521.998> 306 71<-0.548559 111.225 189.352 521.998>
LayerCount: 2
Fore
SplineSet
169.219726562 561.341796875 m 4
 169.176757812 561.326171875 169.1328125 561.310546875 169.08984375 561.294921875 c 4
 150.673828125 554.591796875 130.280273438 564.1015625 123.577148438 582.517578125 c 4
 118.287109375 597.049804688 123.127929688 612.754882812 134.399414062 622.096679688 c 6
 216.155273438 689.85546875 l 6
 219.204101562 692.381835938 222.73046875 694.435546875 226.662109375 695.8671875 c 4
 245.084960938 702.572265625 265.485351562 693.059570312 272.19140625 674.63671875 c 4
 277.465820312 660.145507812 272.715820312 644.4609375 261.48046875 635.1484375 c 6
 179.728515625 567.380859375 l 6
 176.678710938 564.852539062 173.151367188 562.7734375 169.219726562 561.341796875 c 4
198.639648438 75.2099609375 m 0
 100.290039062 75.2099609375 20.279296875 155.209960938 20.279296875 253.5703125 c 2
 20.279296875 489.290039062 l 2
 20.279296875 508.8828125 36.1865234375 524.790039062 55.779296875 524.790039062 c 0
 75.373046875 524.790039062 91.279296875 508.8828125 91.279296875 489.290039062 c 2
 91.279296875 253.5703125 l 2
 91.279296875 194.31640625 139.385742188 146.209960938 198.639648438 146.209960938 c 0
 257.893554688 146.209960938 306 194.31640625 306 253.5703125 c 2
 306 489.290039062 l 2
 306 508.8828125 321.90625 524.790039062 341.5 524.790039062 c 0
 361.092773438 524.790039062 377 508.8828125 377 489.290039062 c 0
 377 60.7099609375 l 0
 377 -37.6298828125 296.989257812 -117.639648438 198.639648438 -117.639648438 c 0
 198.473632812 -117.639648438 198.306640625 -117.640625 198.140625 -117.640625 c 0
 149.07421875 -117.640625 104.627929688 -97.6796875 72.529296875 -65.41015625 c 0
 66.1025390625 -58.9833984375 62.1240234375 -50.107421875 62.1240234375 -40.3095703125 c 0
 62.1240234375 -20.716796875 78.03125 -4.8095703125 97.625 -4.8095703125 c 0
 107.419921875 -4.8095703125 116.303710938 -8.775390625 122.729492188 -15.2001953125 c 0
 142.162109375 -34.6298828125 169 -46.6552734375 198.625 -46.6552734375 c 0
 257.875 -46.6552734375 305.994140625 1.4609375 306 60.7099609375 c 2
 306 111.224690302 l 1
 276.111534337 88.6263875464 238.913166606 75.2099609375 198.639648438 75.2099609375 c 0
EndSplineSet
Validated: 33
EndChar

StartChar: aacute
Encoding: 225 225 120
Width: 410
Flags: W
HStem: 75 21G<335.721 355.221> 75.21 71<139.617 266.63> 453.79 71<139.619 266.63>
VStem: 24 71<192.31 407.698> 309.721 71<77.8125 111.15 189.352 410.648 488.85 522.188>
LayerCount: 2
Fore
SplineSet
172.940429688 561.341796875 m 4x38
 172.897460938 561.326171875 172.853515625 561.310546875 172.810546875 561.294921875 c 4
 154.39453125 554.591796875 134.000976562 564.1015625 127.297851562 582.517578125 c 4
 122.0078125 597.049804688 126.848632812 612.754882812 138.120117188 622.096679688 c 6
 219.875976562 689.85546875 l 6
 222.924804688 692.381835938 226.451171875 694.435546875 230.3828125 695.8671875 c 4
 248.805664062 702.572265625 269.206054688 693.059570312 275.912109375 674.63671875 c 4
 281.186523438 660.145507812 276.436523438 644.4609375 265.201171875 635.1484375 c 6
 183.44921875 567.380859375 l 6
 180.399414062 564.852539062 176.872070312 562.7734375 172.940429688 561.341796875 c 4x38
345.720703125 75 m 0xb8
 325.720703125 75 309.720703125 91 309.720703125 111 c 2
 309.720703125 111.150390625 l 1
 279.868164062 88.5703125 242.689453125 75.2138671875 202.360351562 75.2099609375 c 0x78
 104 75.2099609375 24 155.23046875 24 253.5703125 c 2
 24 346.4296875 l 2
 24 444.790039062 104.010742188 524.790039062 202.360351562 524.790039062 c 0
 242.689453125 524.786132812 279.868164062 511.4296875 309.720703125 488.849609375 c 1
 309.720703125 489 l 2
 309.720703125 509 325.720703125 525 345.720703125 525 c 0
 364.720703125 525 380.720703125 509 380.720703125 489 c 2
 380.720703125 111 l 2
 380.720703125 91 364.720703125 75 345.720703125 75 c 0xb8
309.720703125 346.4296875 m 2
 309.720703125 405.68359375 261.614257812 453.790039062 202.360351562 453.790039062 c 0
 143.106445312 453.790039062 95 405.68359375 95 346.4296875 c 2
 95 253.5703125 l 2
 95 194.31640625 143.106445312 146.209960938 202.360351562 146.209960938 c 0
 261.614257812 146.209960938 309.720703125 194.31640625 309.720703125 253.5703125 c 2
 309.720703125 346.4296875 l 2
EndSplineSet
Validated: 33
EndChar

StartChar: agrave
Encoding: 224 224 121
Width: 410
Flags: W
HStem: 75 21G<335.721 355.221> 75.21 71<139.617 266.63> 453.79 71<139.619 266.63>
VStem: 24 71<192.31 407.698> 309.721 71<77.8125 111.15 189.352 410.648 488.85 522.188>
LayerCount: 2
Fore
SplineSet
230.26953125 561.341796875 m 4x38
 230.3125 561.326171875 230.356445312 561.310546875 230.399414062 561.294921875 c 4
 248.815429688 554.591796875 269.208984375 564.1015625 275.912109375 582.517578125 c 4
 281.202148438 597.049804688 276.361328125 612.754882812 265.08984375 622.096679688 c 6
 183.333984375 689.85546875 l 6
 180.28515625 692.381835938 176.758789062 694.435546875 172.827148438 695.8671875 c 4
 154.404296875 702.572265625 134.00390625 693.059570312 127.297851562 674.63671875 c 4
 122.0234375 660.145507812 126.7734375 644.4609375 138.008789062 635.1484375 c 6
 219.760742188 567.380859375 l 6
 222.810546875 564.852539062 226.337890625 562.7734375 230.26953125 561.341796875 c 4x38
345.720703125 75 m 0xb8
 325.720703125 75 309.720703125 91 309.720703125 111 c 2
 309.720703125 111.150390625 l 1
 279.868164062 88.5703125 242.689453125 75.2138671875 202.360351562 75.2099609375 c 0x78
 104 75.2099609375 24 155.23046875 24 253.5703125 c 2
 24 346.4296875 l 2
 24 444.790039062 104.010742188 524.790039062 202.360351562 524.790039062 c 0
 242.689453125 524.786132812 279.868164062 511.4296875 309.720703125 488.849609375 c 1
 309.720703125 489 l 2
 309.720703125 509 325.720703125 525 345.720703125 525 c 0
 364.720703125 525 380.720703125 509 380.720703125 489 c 2
 380.720703125 111 l 2
 380.720703125 91 364.720703125 75 345.720703125 75 c 0xb8
309.720703125 346.4296875 m 2
 309.720703125 405.68359375 261.614257812 453.790039062 202.360351562 453.790039062 c 0
 143.106445312 453.790039062 95 405.68359375 95 346.4296875 c 2
 95 253.5703125 l 2
 95 194.31640625 143.106445312 146.209960938 202.360351562 146.209960938 c 0
 261.614257812 146.209960938 309.720703125 194.31640625 309.720703125 253.5703125 c 2
 309.720703125 346.4296875 l 2
EndSplineSet
Validated: 41
EndChar

StartChar: acircumflex
Encoding: 226 226 122
Width: 410
Flags: W
HStem: 75 21G<335.721 355.221> 75.21 71<139.617 266.63> 453.79 71<139.619 266.63>
VStem: 24 71<192.31 407.698> 309.721 71<77.8125 111.15 189.352 410.648 488.85 522.188>
LayerCount: 2
Fore
SplineSet
265.920898438 575.530273438 m 6x38
 259.969726562 576.813476562 253.8984375 577.181640625 248.8125 580.009765625 c 6
 201.8125 606.139648438 l 5
 154.670898438 580 l 6
 150.157226562 577.497070312 143.494140625 575.3515625 137.106445312 575.3515625 c 4
 117.513671875 575.3515625 101.606445312 591.258789062 101.606445312 610.8515625 c 4
 101.606445312 624.3515625 109.155273438 635.928710938 120.190429688 642.059570312 c 6
 184.48046875 677.780273438 l 6
 189.577148438 680.612304688 195.444335938 682.220703125 201.68359375 682.220703125 c 4
 207.921875 682.220703125 213.86328125 680.612304688 218.9609375 677.780273438 c 6
 283.250976562 642.059570312 l 6
 294.154296875 636.000976562 301.533203125 624.356445312 301.533203125 611.0078125 c 4
 301.533203125 591.409179688 285.62109375 575.498046875 266.0234375 575.498046875 c 4
 266.018554688 575.498046875 265.974609375 575.518554688 265.970703125 575.51953125 c 6
 265.920898438 575.530273438 l 6x38
345.720703125 75 m 0xb8
 325.720703125 75 309.720703125 91 309.720703125 111 c 2
 309.720703125 111.150390625 l 1
 279.868164062 88.5703125 242.689453125 75.2138671875 202.360351562 75.2099609375 c 0x78
 104 75.2099609375 24 155.23046875 24 253.5703125 c 2
 24 346.4296875 l 2
 24 444.790039062 104.010742188 524.790039062 202.360351562 524.790039062 c 0
 242.689453125 524.786132812 279.868164062 511.4296875 309.720703125 488.849609375 c 1
 309.720703125 489 l 2
 309.720703125 509 325.720703125 525 345.720703125 525 c 0
 364.720703125 525 380.720703125 509 380.720703125 489 c 2
 380.720703125 111 l 2
 380.720703125 91 364.720703125 75 345.720703125 75 c 0xb8
309.720703125 346.4296875 m 2
 309.720703125 405.68359375 261.614257812 453.790039062 202.360351562 453.790039062 c 0
 143.106445312 453.790039062 95 405.68359375 95 346.4296875 c 2
 95 253.5703125 l 2
 95 194.31640625 143.106445312 146.209960938 202.360351562 146.209960938 c 0
 261.614257812 146.209960938 309.720703125 194.31640625 309.720703125 253.5703125 c 2
 309.720703125 346.4296875 l 2
EndSplineSet
Validated: 1
EndChar

StartChar: atilde
Encoding: 227 227 123
Width: 410
Flags: W
HStem: 75 21G<335.721 355.221> 75.21 71<139.617 266.63> 453.79 71<139.619 266.63>
VStem: 24 71<192.31 407.698> 309.721 71<77.8125 111.15 189.352 410.648 488.85 522.188>
LayerCount: 2
Fore
SplineSet
345.720703125 75 m 4xb8
 325.720703125 75 309.720703125 91 309.720703125 111 c 6
 309.720703125 111.150390625 l 5
 279.868164062 88.5703125 242.689453125 75.2138671875 202.360351562 75.2099609375 c 4x78
 104 75.2099609375 24 155.23046875 24 253.5703125 c 6
 24 346.4296875 l 6
 24 444.790039062 104.010742188 524.790039062 202.360351562 524.790039062 c 4
 242.689453125 524.786132812 279.868164062 511.4296875 309.720703125 488.849609375 c 5
 309.720703125 489 l 6
 309.720703125 509 325.720703125 525 345.720703125 525 c 4
 364.720703125 525 380.720703125 509 380.720703125 489 c 6
 380.720703125 111 l 6
 380.720703125 91 364.720703125 75 345.720703125 75 c 4xb8
309.720703125 346.4296875 m 6
 309.720703125 405.68359375 261.614257812 453.790039062 202.360351562 453.790039062 c 4
 143.106445312 453.790039062 95 405.68359375 95 346.4296875 c 6
 95 253.5703125 l 6
 95 194.31640625 143.106445312 146.209960938 202.360351562 146.209960938 c 4
 261.614257812 146.209960938 309.720703125 194.31640625 309.720703125 253.5703125 c 6
 309.720703125 346.4296875 l 6
EndSplineSet
Validated: 1
EndChar

StartChar: adieresis
Encoding: 228 228 124
Width: 410
Flags: W
HStem: 75 21G<335.721 355.221> 75.21 71<139.617 266.63> 453.79 71<139.619 266.63> 575 107.14<60.5332 146.389 256.953 342.809>
VStem: 24 71<192.31 407.698> 49.8906 107.141<585.643 671.497> 246.311 107.141<585.643 671.497> 309.721 71<77.8125 111.15 189.352 410.648 488.85 522.188>
LayerCount: 2
Fore
SplineSet
246.310546875 628.5703125 m 4x32
 246.310546875 658.15625 270.294921875 682.139648438 299.880859375 682.139648438 c 4
 329.466796875 682.139648438 353.451171875 658.15625 353.451171875 628.5703125 c 4
 353.451171875 598.984375 329.466796875 575 299.880859375 575 c 4
 270.294921875 575 246.310546875 598.984375 246.310546875 628.5703125 c 4x32
49.890625 628.5703125 m 4x34
 49.890625 658.15625 73.875 682.139648438 103.4609375 682.139648438 c 4
 133.046875 682.139648438 157.03125 658.15625 157.03125 628.5703125 c 4
 157.03125 598.984375 133.046875 575 103.4609375 575 c 4
 73.875 575 49.890625 598.984375 49.890625 628.5703125 c 4x34
345.720703125 75 m 0xb9
 325.720703125 75 309.720703125 91 309.720703125 111 c 2
 309.720703125 111.150390625 l 1
 279.868164062 88.5703125 242.689453125 75.2138671875 202.360351562 75.2099609375 c 0x79
 104 75.2099609375 24 155.23046875 24 253.5703125 c 2
 24 346.4296875 l 2
 24 444.790039062 104.010742188 524.790039062 202.360351562 524.790039062 c 0
 242.689453125 524.786132812 279.868164062 511.4296875 309.720703125 488.849609375 c 1
 309.720703125 489 l 2
 309.720703125 509 325.720703125 525 345.720703125 525 c 0
 364.720703125 525 380.720703125 509 380.720703125 489 c 2
 380.720703125 111 l 2
 380.720703125 91 364.720703125 75 345.720703125 75 c 0xb9
309.720703125 346.4296875 m 2
 309.720703125 405.68359375 261.614257812 453.790039062 202.360351562 453.790039062 c 0
 143.106445312 453.790039062 95 405.68359375 95 346.4296875 c 2
 95 253.5703125 l 2
 95 194.31640625 143.106445312 146.209960938 202.360351562 146.209960938 c 0
 261.614257812 146.209960938 309.720703125 194.31640625 309.720703125 253.5703125 c 2
 309.720703125 346.4296875 l 2
EndSplineSet
Validated: 1
EndChar

StartChar: aring
Encoding: 229 229 125
Width: 410
Flags: W
HStem: 75 21G<335.721 355.221> 75.21 71<139.617 266.63> 453.79 71<139.619 266.63>
VStem: 24 71<192.31 407.698> 309.721 71<77.8125 111.15 189.352 410.648 488.85 522.188>
LayerCount: 2
Fore
SplineSet
345.720703125 75 m 4xb8
 325.720703125 75 309.720703125 91 309.720703125 111 c 6
 309.720703125 111.150390625 l 5
 279.868164062 88.5703125 242.689453125 75.2138671875 202.360351562 75.2099609375 c 4x78
 104 75.2099609375 24 155.23046875 24 253.5703125 c 6
 24 346.4296875 l 6
 24 444.790039062 104.010742188 524.790039062 202.360351562 524.790039062 c 4
 242.689453125 524.786132812 279.868164062 511.4296875 309.720703125 488.849609375 c 5
 309.720703125 489 l 6
 309.720703125 509 325.720703125 525 345.720703125 525 c 4
 364.720703125 525 380.720703125 509 380.720703125 489 c 6
 380.720703125 111 l 6
 380.720703125 91 364.720703125 75 345.720703125 75 c 4xb8
309.720703125 346.4296875 m 6
 309.720703125 405.68359375 261.614257812 453.790039062 202.360351562 453.790039062 c 4
 143.106445312 453.790039062 95 405.68359375 95 346.4296875 c 6
 95 253.5703125 l 6
 95 194.31640625 143.106445312 146.209960938 202.360351562 146.209960938 c 4
 261.614257812 146.209960938 309.720703125 194.31640625 309.720703125 253.5703125 c 6
 309.720703125 346.4296875 l 6
EndSplineSet
Validated: 1
EndChar

StartChar: egrave
Encoding: 232 232 126
Width: 397
Flags: HW
HStem: 75.21 70.9932<135.901 263.382> 264.5 71<91.2793 306> 453.79 71<135.896 261.383>
VStem: 20.2793 71<192.302 264.5 335.5 407.69> 306 71<335.5 407.698>
LayerCount: 2
Fore
SplineSet
226.548828125 561.341796875 m 0
 226.591796875 561.326171875 226.635742188 561.310546875 226.678710938 561.294921875 c 0
 245.094726562 554.591796875 265.48828125 564.1015625 272.19140625 582.517578125 c 0
 277.481445312 597.049804688 272.640625 612.754882812 261.369140625 622.096679688 c 2
 179.61328125 689.85546875 l 2
 176.564453125 692.381835938 173.038085938 694.435546875 169.106445312 695.8671875 c 0
 150.68359375 702.572265625 130.283203125 693.059570312 123.577148438 674.63671875 c 0
 118.302734375 660.145507812 123.052734375 644.4609375 134.288085938 635.1484375 c 2
 216.040039062 567.380859375 l 2
 219.08984375 564.852539062 222.6171875 562.7734375 226.548828125 561.341796875 c 0
198.639648438 75.2099609375 m 0
 100.290039062 75.2099609375 20.279296875 155.209960938 20.279296875 253.5703125 c 2
 20.279296875 346.4296875 l 6
 20.279296875 444.76953125 100.279296875 524.790039062 198.639648438 524.790039062 c 0
 297 524.790039062 377 444.790039062 377 346.4296875 c 2
 377 300 l 2
 377 280.407226562 361.092773438 264.5 341.5 264.5 c 2
 91.279296875 264.5 l 1
 91.279296875 253.5703125 l 2
 91.28125 194.3125 139.391601562 146.203125 198.649414062 146.203125 c 0
 238.624023438 146.203125 273.45703125 167.981445312 291.939453125 200.419921875 c 0
 298.05859375 211.13671875 309.59765625 218.368164062 322.8125 218.368164062 c 0
 342.418945312 218.368164062 358.336914062 202.44921875 358.336914062 182.842773438 c 0
 358.336914062 176.450195312 356.599609375 170.374023438 353.639648438 165.190429688 c 0
 322.833984375 111.396484375 265 75.291015625 198.639648438 75.2099609375 c 0
91.279296875 335.5 m 1
 306 335.5 l 1
 306 346.4296875 l 2
 306 405.68359375 257.893554688 453.790039062 198.639648438 453.790039062 c 0
 139.385742188 453.790039062 91.279296875 405.68359375 91.279296875 346.4296875 c 2
 91.279296875 335.5 l 1
EndSplineSet
EndChar

StartChar: eacute
Encoding: 233 233 127
Width: 397
Flags: W
HStem: 75.21 70.9932<135.901 263.375> 264.5 71<91.2793 306> 453.79 71<135.896 261.383>
VStem: 20.2793 71<192.302 264.5 335.5 407.69> 306 71<335.5 407.698>
LayerCount: 2
Fore
SplineSet
169.219726562 561.341796875 m 4
 169.176757812 561.326171875 169.1328125 561.310546875 169.08984375 561.294921875 c 4
 150.673828125 554.591796875 130.280273438 564.1015625 123.577148438 582.517578125 c 4
 118.287109375 597.049804688 123.127929688 612.754882812 134.399414062 622.096679688 c 6
 216.155273438 689.85546875 l 6
 219.204101562 692.381835938 222.73046875 694.435546875 226.662109375 695.8671875 c 4
 245.084960938 702.572265625 265.485351562 693.059570312 272.19140625 674.63671875 c 4
 277.465820312 660.145507812 272.715820312 644.4609375 261.48046875 635.1484375 c 6
 179.728515625 567.380859375 l 6
 176.678710938 564.852539062 173.151367188 562.7734375 169.219726562 561.341796875 c 4
198.639648438 75.2099609375 m 0
 100.290039062 75.2099609375 20.279296875 155.209960938 20.279296875 253.5703125 c 2
 20.279296875 346.4296875 l 2
 20.279296875 444.76953125 100.279296875 524.790039062 198.639648438 524.790039062 c 0
 297 524.790039062 377 444.790039062 377 346.4296875 c 2
 377 300 l 2
 377 280.407226562 361.092773438 264.5 341.5 264.5 c 2
 91.279296875 264.5 l 1
 91.279296875 253.5703125 l 2
 91.279296875 194.3125 139.391601562 146.203125 198.649414062 146.203125 c 0
 238.624023438 146.203125 273.427240419 167.998437319 291.939453125 200.419921875 c 0
 298.05859375 211.13671875 309.59765625 218.368164062 322.8125 218.368164062 c 0
 342.418945312 218.368164062 358.336914062 202.44921875 358.336914062 182.842773438 c 0
 358.336914062 176.450195312 356.605996035 170.370371275 353.639648438 165.190429688 c 0
 322.833984375 111.396484375 265.000049501 75.2099609375 198.639648438 75.2099609375 c 0
91.279296875 335.5 m 1
 306 335.5 l 1
 306 346.4296875 l 2
 306 405.68359375 257.893554688 453.790039062 198.639648438 453.790039062 c 0
 139.385742188 453.790039062 91.279296875 405.68359375 91.279296875 346.4296875 c 2
 91.279296875 335.5 l 1
EndSplineSet
Validated: 33
EndChar

StartChar: ecircumflex
Encoding: 234 234 128
Width: 397
Flags: W
HStem: 75.21 70.9932<135.901 263.382> 264.5 71<91.2793 306> 453.79 71<135.896 261.383>
VStem: 20.2793 71<192.302 264.5 335.5 407.69> 306 71<335.5 407.698>
LayerCount: 2
Fore
SplineSet
262.200195312 575.530273438 m 6
 256.249486605 576.813759629 250.177734375 577.181640625 245.091796875 580.009765625 c 6
 198.091796875 606.139648438 l 5
 150.950195312 580 l 6
 146.436847926 577.497384263 139.7734375 575.3515625 133.385742188 575.3515625 c 4
 113.79296875 575.3515625 97.8857421875 591.258789062 97.8857421875 610.8515625 c 4
 97.8857421875 624.3515625 105.435025631 635.928491816 116.469726562 642.059570312 c 6
 180.759765625 677.780273438 l 6
 185.856789117 680.612271452 191.723632812 682.220703125 197.962890625 682.220703125 c 4
 204.201171875 682.220703125 210.143210883 680.612271452 215.240234375 677.780273438 c 6
 279.530273438 642.059570312 l 6
 290.434060428 636.001229958 297.8125 624.356445312 297.8125 611.0078125 c 4
 297.8125 591.409179688 281.900390625 575.498046875 262.302734375 575.498046875 c 4
 262.297851562 575.498046875 262.254665759 575.51852491 262.25 575.51953125 c 6
 262.200195312 575.530273438 l 6
198.639648438 75.2099609375 m 0
 100.290039062 75.2099609375 20.279296875 155.209960938 20.279296875 253.5703125 c 2
 20.279296875 346.4296875 l 2
 20.279296875 444.76953125 100.279296875 524.790039062 198.639648438 524.790039062 c 0
 297 524.790039062 377 444.790039062 377 346.4296875 c 2
 377 300 l 2
 377 280.407226562 361.092773438 264.5 341.5 264.5 c 2
 91.279296875 264.5 l 1
 91.279296875 253.5703125 l 2
 91.28125 194.3125 139.391601562 146.203125 198.649414062 146.203125 c 0
 238.624023438 146.203125 273.45703125 167.981445312 291.939453125 200.419921875 c 0
 298.05859375 211.13671875 309.59765625 218.368164062 322.8125 218.368164062 c 0
 342.418945312 218.368164062 358.336914062 202.44921875 358.336914062 182.842773438 c 0
 358.336914062 176.450195312 356.599609375 170.374023438 353.639648438 165.190429688 c 0
 322.833984375 111.396484375 265 75.291015625 198.639648438 75.2099609375 c 0
91.279296875 335.5 m 1
 306 335.5 l 1
 306 346.4296875 l 2
 306 405.68359375 257.893554688 453.790039062 198.639648438 453.790039062 c 0
 139.385742188 453.790039062 91.279296875 405.68359375 91.279296875 346.4296875 c 2
 91.279296875 335.5 l 1
EndSplineSet
Validated: 1
EndChar

StartChar: igrave
Encoding: 236 236 129
Width: 147
Flags: W
HStem: 75.21 21G<63.6333 83.2261> 75.21 21G<63.6333 83.2261> 504.79 20G<63.6333 83.2261>
VStem: 37.9297 71<78.0016 521.998>
LayerCount: 2
Fore
SplineSet
101.357421875 561.341796875 m 0x30
 101.400390625 561.326171875 101.444335938 561.310546875 101.487304688 561.294921875 c 0
 119.903320312 554.591796875 140.296875 564.1015625 147 582.517578125 c 0
 152.290039062 597.049804688 147.44921875 612.754882812 136.177734375 622.096679688 c 2
 54.421875 689.85546875 l 2
 51.373046875 692.381835938 47.8466796875 694.435546875 43.9150390625 695.8671875 c 0
 25.4921875 702.572265625 5.091796875 693.059570312 -1.6142578125 674.63671875 c 0
 -6.888671875 660.145507812 -2.138671875 644.4609375 9.0966796875 635.1484375 c 2
 90.8486328125 567.380859375 l 2
 93.8984375 564.852539062 97.42578125 562.7734375 101.357421875 561.341796875 c 0x30
73.4296875 75.2099609375 m 0xb0
 53.8369140625 75.2099609375 37.9296875 91.1171875 37.9296875 110.709960938 c 2
 37.9296875 489.290039062 l 2
 37.9296875 508.8828125 53.8369140625 524.790039062 73.4296875 524.790039062 c 0
 93.0224609375 524.790039062 108.9296875 508.8828125 108.9296875 489.290039062 c 2
 108.9296875 110.709960938 l 2
 108.9296875 91.1171875 93.0224609375 75.2099609375 73.4296875 75.2099609375 c 0xb0
EndSplineSet
Validated: 41
EndChar

StartChar: edieresis
Encoding: 235 235 130
Width: 397
Flags: W
HStem: 75.21 70.9932<135.901 263.382> 264.5 71<91.2793 306> 453.79 71<135.896 261.383> 575 107.14<56.8125 142.668 253.232 339.088>
VStem: 20.2793 71<192.302 264.5 335.5 407.69> 46.1699 107.141<585.643 671.497> 242.59 107.141<585.643 671.497> 306 71<335.5 407.698>
LayerCount: 2
Fore
SplineSet
242.58984375 628.5703125 m 4xf2
 242.58984375 658.15625 266.57421875 682.139648438 296.16015625 682.139648438 c 4
 325.74609375 682.139648438 349.73046875 658.15625 349.73046875 628.5703125 c 4
 349.73046875 598.984375 325.74609375 575 296.16015625 575 c 4
 266.57421875 575 242.58984375 598.984375 242.58984375 628.5703125 c 4xf2
46.169921875 628.5703125 m 4xf4
 46.169921875 658.15625 70.154296875 682.139648438 99.740234375 682.139648438 c 4
 129.326171875 682.139648438 153.310546875 658.15625 153.310546875 628.5703125 c 4
 153.310546875 598.984375 129.326171875 575 99.740234375 575 c 4
 70.154296875 575 46.169921875 598.984375 46.169921875 628.5703125 c 4xf4
198.639648438 75.2099609375 m 0
 100.290039062 75.2099609375 20.279296875 155.209960938 20.279296875 253.5703125 c 2
 20.279296875 346.4296875 l 2
 20.279296875 444.76953125 100.279296875 524.790039062 198.639648438 524.790039062 c 0
 297 524.790039062 377 444.790039062 377 346.4296875 c 2
 377 300 l 2
 377 280.407226562 361.092773438 264.5 341.5 264.5 c 2
 91.279296875 264.5 l 1
 91.279296875 253.5703125 l 2xf9
 91.28125 194.3125 139.391601562 146.203125 198.649414062 146.203125 c 0
 238.624023438 146.203125 273.45703125 167.981445312 291.939453125 200.419921875 c 0
 298.05859375 211.13671875 309.59765625 218.368164062 322.8125 218.368164062 c 0
 342.418945312 218.368164062 358.336914062 202.44921875 358.336914062 182.842773438 c 0
 358.336914062 176.450195312 356.599609375 170.374023438 353.639648438 165.190429688 c 0
 322.833984375 111.396484375 265 75.291015625 198.639648438 75.2099609375 c 0
91.279296875 335.5 m 1
 306 335.5 l 1
 306 346.4296875 l 2
 306 405.68359375 257.893554688 453.790039062 198.639648438 453.790039062 c 0
 139.385742188 453.790039062 91.279296875 405.68359375 91.279296875 346.4296875 c 2
 91.279296875 335.5 l 1
EndSplineSet
Validated: 1
EndChar

StartChar: iacute
Encoding: 237 237 131
Width: 147
Flags: W
HStem: 75.21 21G<63.6333 83.2261> 75.21 21G<63.6333 83.2261> 504.79 20G<63.6333 83.2261>
VStem: 37.9297 71<78.0016 521.998>
LayerCount: 2
Fore
SplineSet
44.0283203125 561.341796875 m 4x30
 43.9853515625 561.326171875 43.94140625 561.310546875 43.8984375 561.294921875 c 4
 25.482421875 554.591796875 5.0888671875 564.1015625 -1.6142578125 582.517578125 c 4
 -6.904296875 597.049804688 -2.0634765625 612.754882812 9.2080078125 622.096679688 c 6
 90.9638671875 689.85546875 l 6
 94.0126953125 692.381835938 97.5390625 694.435546875 101.470703125 695.8671875 c 4
 119.893554688 702.572265625 140.293945312 693.059570312 147 674.63671875 c 4
 152.274414062 660.145507812 147.524414062 644.4609375 136.2890625 635.1484375 c 6
 54.537109375 567.380859375 l 6
 51.4873046875 564.852539062 47.9599609375 562.7734375 44.0283203125 561.341796875 c 4x30
73.4296875 75.2099609375 m 0xb0
 53.8369140625 75.2099609375 37.9296875 91.1171875 37.9296875 110.709960938 c 2
 37.9296875 489.290039062 l 2
 37.9296875 508.8828125 53.8369140625 524.790039062 73.4296875 524.790039062 c 0
 93.0224609375 524.790039062 108.9296875 508.8828125 108.9296875 489.290039062 c 2
 108.9296875 110.709960938 l 2
 108.9296875 91.1171875 93.0224609375 75.2099609375 73.4296875 75.2099609375 c 0xb0
EndSplineSet
Validated: 33
EndChar

StartChar: icircumflex
Encoding: 238 238 132
Width: 147
Flags: W
HStem: 75.21 21G<63.6333 83.2261> 75.21 21G<63.6333 83.2261> 504.79 20G<63.6333 83.2261>
VStem: 37.9297 71<78.0016 521.998>
LayerCount: 2
Fore
SplineSet
138.108398438 574.309570312 m 2x30
 132.157226562 575.592773438 126.0859375 575.9609375 121 578.7890625 c 2
 74 604.918945312 l 1
 26.8583984375 578.779296875 l 2
 22.3447265625 576.276367188 15.681640625 574.130859375 9.2939453125 574.130859375 c 0
 -10.298828125 574.130859375 -26.2060546875 590.038085938 -26.2060546875 609.630859375 c 0
 -26.2060546875 623.130859375 -18.6572265625 634.708007812 -7.6220703125 640.838867188 c 2
 56.66796875 676.559570312 l 2
 61.7646484375 679.391601562 67.6318359375 681 73.87109375 681 c 0
 80.109375 681 86.0517578125 679.391601562 91.1484375 676.559570312 c 2
 155.438476562 640.838867188 l 2
 166.341796875 634.780273438 173.720703125 623.135742188 173.720703125 609.787109375 c 0
 173.720703125 590.188476562 157.80859375 574.27734375 138.2109375 574.27734375 c 0
 138.206054688 574.27734375 138.163085938 574.297851562 138.158203125 574.298828125 c 2
 138.108398438 574.309570312 l 2x30
73.4296875 75.2099609375 m 0xb0
 53.8369140625 75.2099609375 37.9296875 91.1171875 37.9296875 110.709960938 c 2
 37.9296875 489.290039062 l 2
 37.9296875 508.8828125 53.8369140625 524.790039062 73.4296875 524.790039062 c 0
 93.0224609375 524.790039062 108.9296875 508.8828125 108.9296875 489.290039062 c 2
 108.9296875 110.709960938 l 2
 108.9296875 91.1171875 93.0224609375 75.2099609375 73.4296875 75.2099609375 c 0xb0
EndSplineSet
Validated: 1
EndChar

StartChar: idieresis
Encoding: 239 239 133
Width: 147
Flags: W
HStem: 75.21 21G<63.6333 83.2261> 75.21 21G<63.6333 83.2261> 504.79 20G<63.6333 83.2261> 607.14 107.141<30.5019 116.357>
VStem: 19.8594 107.141<617.782 703.638> 37.9297 71<78.0016 521.998>
LayerCount: 2
Fore
SplineSet
19.859375 660.709960938 m 4x38
 19.859375 690.295898438 43.84375 714.280273438 73.4296875 714.280273438 c 4
 103.015625 714.280273438 127 690.295898438 127 660.709960938 c 4
 127 631.124023438 103.015625 607.139648438 73.4296875 607.139648438 c 4
 43.84375 607.139648438 19.859375 631.124023438 19.859375 660.709960938 c 4x38
73.4296875 75.2099609375 m 4xb4
 53.8369140625 75.2099609375 37.9296875 91.1171875 37.9296875 110.709960938 c 6
 37.9296875 489.290039062 l 6
 37.9296875 508.8828125 53.8369140625 524.790039062 73.4296875 524.790039062 c 4
 93.0224609375 524.790039062 108.9296875 508.8828125 108.9296875 489.290039062 c 6
 108.9296875 110.709960938 l 6
 108.9296875 91.1171875 93.0224609375 75.2099609375 73.4296875 75.2099609375 c 4xb4
EndSplineSet
Validated: 1
EndChar

StartChar: ograve
Encoding: 242 242 134
Width: 385
Flags: W
HStem: 75.21 71<139.899 265.381> 453.79 71<139.913 265.366>
VStem: 24.2793 71<192.302 407.69> 310 71<192.31 407.698>
LayerCount: 2
Fore
SplineSet
230.548828125 561.341796875 m 4
 230.591796875 561.326171875 230.635742188 561.310546875 230.678710938 561.294921875 c 4
 249.094726562 554.591796875 269.48828125 564.1015625 276.19140625 582.517578125 c 4
 281.481445312 597.049804688 276.640625 612.754882812 265.369140625 622.096679688 c 6
 183.61328125 689.85546875 l 6
 180.564453125 692.381835938 177.038085938 694.435546875 173.106445312 695.8671875 c 4
 154.68359375 702.572265625 134.283203125 693.059570312 127.577148438 674.63671875 c 4
 122.302734375 660.145507812 127.052734375 644.4609375 138.288085938 635.1484375 c 6
 220.040039062 567.380859375 l 6
 223.08984375 564.852539062 226.6171875 562.7734375 230.548828125 561.341796875 c 4
202.639648438 75.2099609375 m 0
 104.290039062 75.2099609375 24.279296875 155.209960938 24.279296875 253.5703125 c 2
 24.279296875 346.4296875 l 2
 24.279296875 444.76953125 104.279296875 524.790039062 202.639648438 524.790039062 c 0
 301 524.790039062 381 444.790039062 381 346.4296875 c 2
 381 253.5703125 l 2
 381 155.23046875 300.989257812 75.2099609375 202.639648438 75.2099609375 c 0
202.639648438 453.790039062 m 0
 143.416992188 453.723632812 95.345703125 405.653320312 95.279296875 346.4296875 c 2
 95.279296875 253.5703125 l 2
 95.279296875 194.31640625 143.385742188 146.209960938 202.639648438 146.209960938 c 0
 261.893554688 146.209960938 310 194.31640625 310 253.5703125 c 2
 310 346.4296875 l 2
 309.93359375 405.653320312 261.862304688 453.723632812 202.639648438 453.790039062 c 0
EndSplineSet
Validated: 41
EndChar

StartChar: oacute
Encoding: 243 243 135
Width: 385
Flags: W
HStem: 75.21 71<139.899 265.381> 453.79 71<139.913 265.366>
VStem: 24.2793 71<192.302 407.69> 310 71<192.31 407.698>
LayerCount: 2
Fore
SplineSet
173.219726562 561.341796875 m 4
 173.176757812 561.326171875 173.1328125 561.310546875 173.08984375 561.294921875 c 4
 154.673828125 554.591796875 134.280273438 564.1015625 127.577148438 582.517578125 c 4
 122.287109375 597.049804688 127.127929688 612.754882812 138.399414062 622.096679688 c 6
 220.155273438 689.85546875 l 6
 223.204101562 692.381835938 226.73046875 694.435546875 230.662109375 695.8671875 c 4
 249.084960938 702.572265625 269.485351562 693.059570312 276.19140625 674.63671875 c 4
 281.465820312 660.145507812 276.715820312 644.4609375 265.48046875 635.1484375 c 6
 183.728515625 567.380859375 l 6
 180.678710938 564.852539062 177.151367188 562.7734375 173.219726562 561.341796875 c 4
202.639648438 75.2099609375 m 0
 104.290039062 75.2099609375 24.279296875 155.209960938 24.279296875 253.5703125 c 2
 24.279296875 346.4296875 l 2
 24.279296875 444.76953125 104.279296875 524.790039062 202.639648438 524.790039062 c 0
 301 524.790039062 381 444.790039062 381 346.4296875 c 2
 381 253.5703125 l 2
 381 155.23046875 300.989257812 75.2099609375 202.639648438 75.2099609375 c 0
202.639648438 453.790039062 m 0
 143.416992188 453.723632812 95.345703125 405.653320312 95.279296875 346.4296875 c 2
 95.279296875 253.5703125 l 2
 95.279296875 194.31640625 143.385742188 146.209960938 202.639648438 146.209960938 c 0
 261.893554688 146.209960938 310 194.31640625 310 253.5703125 c 2
 310 346.4296875 l 2
 309.93359375 405.653320312 261.862304688 453.723632812 202.639648438 453.790039062 c 0
EndSplineSet
Validated: 33
EndChar

StartChar: ocircumflex
Encoding: 244 244 136
Width: 405
Flags: W
HStem: 75.21 71<139.899 265.381> 453.79 71<139.913 265.366>
VStem: 24.2793 71<192.302 407.69> 310 71<192.31 407.698>
LayerCount: 2
Fore
SplineSet
266.200195312 575.530273438 m 6
 260.249023438 576.813476562 254.177734375 577.181640625 249.091796875 580.009765625 c 6
 202.091796875 606.139648438 l 5
 154.950195312 580 l 6
 150.436523438 577.497070312 143.7734375 575.3515625 137.385742188 575.3515625 c 4
 117.79296875 575.3515625 101.885742188 591.258789062 101.885742188 610.8515625 c 4
 101.885742188 624.3515625 109.434570312 635.928710938 120.469726562 642.059570312 c 6
 184.759765625 677.780273438 l 6
 189.856445312 680.612304688 195.723632812 682.220703125 201.962890625 682.220703125 c 4
 208.201171875 682.220703125 214.142578125 680.612304688 219.240234375 677.780273438 c 6
 283.530273438 642.059570312 l 6
 294.43359375 636.000976562 301.8125 624.356445312 301.8125 611.0078125 c 4
 301.8125 591.409179688 285.900390625 575.498046875 266.302734375 575.498046875 c 4
 266.297851562 575.498046875 266.25390625 575.518554688 266.25 575.51953125 c 6
 266.200195312 575.530273438 l 6
202.639648438 75.2099609375 m 0
 104.290039062 75.2099609375 24.279296875 155.209960938 24.279296875 253.5703125 c 2
 24.279296875 346.4296875 l 2
 24.279296875 444.76953125 104.279296875 524.790039062 202.639648438 524.790039062 c 0
 301 524.790039062 381 444.790039062 381 346.4296875 c 2
 381 253.5703125 l 2
 381 155.23046875 300.989257812 75.2099609375 202.639648438 75.2099609375 c 0
202.639648438 453.790039062 m 0
 143.416992188 453.723632812 95.345703125 405.653320312 95.279296875 346.4296875 c 2
 95.279296875 253.5703125 l 2
 95.279296875 194.31640625 143.385742188 146.209960938 202.639648438 146.209960938 c 0
 261.893554688 146.209960938 310 194.31640625 310 253.5703125 c 2
 310 346.4296875 l 2
 309.93359375 405.653320312 261.862304688 453.723632812 202.639648438 453.790039062 c 0
EndSplineSet
Validated: 1
EndChar

StartChar: otilde
Encoding: 245 245 137
Width: 405
Flags: W
HStem: 75.21 71<139.899 265.381> 453.79 71<139.913 265.366>
VStem: 24.2793 71<192.302 407.69> 310 71<192.31 407.698>
LayerCount: 2
Fore
SplineSet
202.639648438 75.2099609375 m 4
 104.290039062 75.2099609375 24.279296875 155.209960938 24.279296875 253.5703125 c 6
 24.279296875 346.4296875 l 6
 24.279296875 444.76953125 104.279296875 524.790039062 202.639648438 524.790039062 c 4
 301 524.790039062 381 444.790039062 381 346.4296875 c 6
 381 253.5703125 l 6
 381 155.23046875 300.989257812 75.2099609375 202.639648438 75.2099609375 c 4
202.639648438 453.790039062 m 4
 143.416992188 453.723632812 95.345703125 405.653320312 95.279296875 346.4296875 c 6
 95.279296875 253.5703125 l 6
 95.279296875 194.31640625 143.385742188 146.209960938 202.639648438 146.209960938 c 4
 261.893554688 146.209960938 310 194.31640625 310 253.5703125 c 6
 310 346.4296875 l 6
 309.93359375 405.653320312 261.862304688 453.723632812 202.639648438 453.790039062 c 4
EndSplineSet
Validated: 1
EndChar

StartChar: odieresis
Encoding: 246 246 138
Width: 405
Flags: W
HStem: 75.21 71<139.899 265.381> 453.79 71<139.913 265.366> 575 107.14<60.8125 146.668 257.232 343.088>
VStem: 24.2793 71<192.302 407.69> 50.1699 107.141<585.643 671.497> 246.59 107.141<585.643 671.497> 310 71<192.31 407.698>
LayerCount: 2
Fore
SplineSet
246.58984375 628.5703125 m 4xe4
 246.58984375 658.15625 270.57421875 682.139648438 300.16015625 682.139648438 c 4
 329.74609375 682.139648438 353.73046875 658.15625 353.73046875 628.5703125 c 4
 353.73046875 598.984375 329.74609375 575 300.16015625 575 c 4
 270.57421875 575 246.58984375 598.984375 246.58984375 628.5703125 c 4xe4
50.169921875 628.5703125 m 4xe8
 50.169921875 658.15625 74.154296875 682.139648438 103.740234375 682.139648438 c 4
 133.326171875 682.139648438 157.310546875 658.15625 157.310546875 628.5703125 c 4
 157.310546875 598.984375 133.326171875 575 103.740234375 575 c 4
 74.154296875 575 50.169921875 598.984375 50.169921875 628.5703125 c 4xe8
202.639648438 75.2099609375 m 0
 104.290039062 75.2099609375 24.279296875 155.209960938 24.279296875 253.5703125 c 2
 24.279296875 346.4296875 l 2
 24.279296875 444.76953125 104.279296875 524.790039062 202.639648438 524.790039062 c 0
 301 524.790039062 381 444.790039062 381 346.4296875 c 2
 381 253.5703125 l 2xf2
 381 155.23046875 300.989257812 75.2099609375 202.639648438 75.2099609375 c 0
202.639648438 453.790039062 m 0
 143.416992188 453.723632812 95.345703125 405.653320312 95.279296875 346.4296875 c 2
 95.279296875 253.5703125 l 2
 95.279296875 194.31640625 143.385742188 146.209960938 202.639648438 146.209960938 c 0
 261.893554688 146.209960938 310 194.31640625 310 253.5703125 c 2
 310 346.4296875 l 2
 309.93359375 405.653320312 261.862304688 453.723632812 202.639648438 453.790039062 c 0
EndSplineSet
Validated: 1
EndChar

StartChar: ntilde
Encoding: 241 241 139
Width: 397
Flags: W
HStem: 75.21 21G<45.9844 65.5762 331.703 351.295> 75.21 21G<45.9844 65.5762 331.703 351.295> 453.79 71<134.385 261.383>
VStem: 20.2793 71<78.0019 410.648 488.776 521.998> 306 71<78.0019 407.698>
LayerCount: 2
Fore
SplineSet
55.779296875 75.2099609375 m 4xb8
 36.189453125 75.2099609375 20.28515625 91.119140625 20.279296875 110.709960938 c 4
 20.279296875 489.290039062 l 4
 20.279296875 508.8828125 36.1865234375 524.790039062 55.779296875 524.790039062 c 4
 75.373046875 524.790039062 91.279296875 508.8828125 91.279296875 489.290039062 c 6
 91.279296875 488.775598047 l 5
 121.16638558 511.373188369 158.363798487 524.790039062 198.639648438 524.790039062 c 4
 297 524.790039062 377 444.790039062 377 346.4296875 c 6
 377 110.709960938 l 6
 376.994140625 91.119140625 361.08984375 75.2099609375 341.5 75.2099609375 c 4
 321.90625 75.2099609375 306 91.1171875 306 110.709960938 c 6
 306 346.4296875 l 6
 306 405.68359375 257.893554688 453.790039062 198.639648438 453.790039062 c 4
 139.385742188 453.790039062 91.279296875 405.68359375 91.279296875 346.4296875 c 6
 91.279296875 110.709960938 l 6
 91.279296875 91.1171875 75.373046875 75.2099609375 55.779296875 75.2099609375 c 4xb8
  Spiro
    55.7793 75.21 o
    37.8861 80.0509 o
    25.1231 92.815 o
    20.2793 110.71 o
    20.2793 489.29 o
    25.1198 507.186 o
    37.8835 519.95 o
    55.7793 524.79 o
    73.6756 519.95 o
    86.439 507.186 o
    91.2793 489.29 [
    91.2793 488.776 v
    123.412 508.14 o
    159.584 520.483 o
    198.64 524.79 o
    288.518 500.453 o
    352.663 436.308 o
    377 346.43 [
    377 110.71 ]
    372.156 92.815 o
    359.393 80.0509 o
    341.5 75.21 o
    323.604 80.0505 o
    310.84 92.8141 o
    306 110.71 [
    306 346.43 ]
    291.361 400.551 o
    252.761 439.151 o
    198.64 453.79 o
    144.518 439.151 o
    105.918 400.551 o
    91.2793 346.43 [
    91.2793 110.71 ]
    86.439 92.8141 o
    73.6756 80.0505 o
    0 0 z
  EndSpiro
EndSplineSet
Validated: 1
EndChar

StartChar: tt
Encoding: 262 -1 140
Width: 524
Flags: W
HStem: 75.21 71<180.304 266.208 405.304 491.208> 453.79 71<32.9321 105.141 176.141 330.141 401.141 473.349>
VStem: 105.141 71<150.374 453.79 524.79 639.848> 330.141 71<150.374 453.79 524.79 639.848>
LayerCount: 2
Fore
SplineSet
458.5 146.209960938 m 2
 478.09375 146.209960938 494 130.302734375 494 110.709960938 c 0
 494 91.1171875 478.09375 75.2099609375 458.5 75.2099609375 c 2
 437.0703125 75.2099609375 l 2
 378.084960938 75.2763671875 330.206054688 123.154296875 330.140625 182.139648438 c 2
 330.140625 453.790039062 l 1
 176.140625 453.790039062 l 1
 176.140625 182.139648438 l 2
 176.178710938 162.327148438 192.2578125 146.248046875 212.0703125 146.209960938 c 2
 233.5 146.209960938 l 2
 253.09375 146.209960938 269 130.302734375 269 110.709960938 c 0
 269 91.1171875 253.09375 75.2099609375 233.5 75.2099609375 c 2
 212.0703125 75.2099609375 l 2
 153.084960938 75.2763671875 105.206054688 123.154296875 105.140625 182.139648438 c 2
 105.140625 453.790039062 l 1
 65.640625 453.790039062 l 2
 46.046875 453.790039062 30.140625 469.697265625 30.140625 489.290039062 c 0
 30.140625 508.8828125 46.046875 524.790039062 65.640625 524.790039062 c 2
 105.140625 524.790039062 l 1
 105.140625 607.139648438 l 2
 105.140625 626.733398438 121.046875 642.639648438 140.640625 642.639648438 c 0
 160.233398438 642.639648438 176.140625 626.733398438 176.140625 607.139648438 c 2
 176.140625 524.790039062 l 1
 330.140625 524.790039062 l 1
 330.140625 607.139648438 l 2
 330.140625 626.733398438 346.046875 642.639648438 365.640625 642.639648438 c 0
 385.233398438 642.639648438 401.140625 626.733398438 401.140625 607.139648438 c 2
 401.140625 524.790039062 l 1
 440.640625 524.790039062 l 2
 460.233398438 524.790039062 476.140625 508.8828125 476.140625 489.290039062 c 0
 476.140625 469.697265625 460.233398438 453.790039062 440.640625 453.790039062 c 2
 401.140625 453.790039062 l 1
 401.140625 182.139648438 l 2
 401.178710938 162.327148438 417.2578125 146.248046875 437.0703125 146.209960938 c 2
 458.5 146.209960938 l 2
EndSplineSet
Validated: 1
LCarets2: 1 0
Ligature2: "'liga'-1" t t
EndChar

StartChar: fl
Encoding: 263 64258 141
Width: 442
Flags: W
HStem: 75.21 21G<129.073 148.666 369.703 389.296> 75.21 21G<129.073 148.666 369.703 389.296> 453.79 71<30.8512 103.369 174.369 286.878> 646.75 71<192.36 343.416>
VStem: 103.369 71<78.0016 453.79 524.79 628.793> 344 71<78.0016 640.038>
LayerCount: 2
Fore
SplineSet
407.619140625 662.120117188 m 0xbc
 412.237304688 656.124023438 415 648.587890625 415 640.442382812 c 0
 415 640.431640625 415 640.420898438 415 640.41015625 c 2
 415 110.709960938 l 2
 415 91.1171875 399.092773438 75.2099609375 379.5 75.2099609375 c 0
 359.90625 75.2099609375 344 91.1171875 344 110.709960938 c 2
 344 626.919921875 l 1
 332.849609375 637.330078125 314.299804688 646.75 277.799804688 646.75 c 2
 238.869140625 646.75 l 2
 203.2890625 646.711914062 174.408203125 617.831054688 174.369140625 582.25 c 2
 174.369140625 524.790039062 l 1
 254.169921875 524.790039062 l 2
 273.762695312 524.790039062 289.669921875 508.8828125 289.669921875 489.290039062 c 0
 289.669921875 469.697265625 273.762695312 453.790039062 254.169921875 453.790039062 c 2
 174.369140625 453.790039062 l 1
 174.369140625 110.709960938 l 2
 174.369140625 91.1171875 158.462890625 75.2099609375 138.869140625 75.2099609375 c 0
 119.276367188 75.2099609375 103.369140625 91.1171875 103.369140625 110.709960938 c 2
 103.369140625 453.790039062 l 1
 63.5595703125 453.790039062 l 2
 43.966796875 453.790039062 28.0595703125 469.697265625 28.0595703125 489.290039062 c 0
 28.0595703125 508.8828125 43.966796875 524.790039062 63.5595703125 524.790039062 c 2
 103.399414062 524.790039062 l 1
 103.399414062 582.25 l 2
 103.399414062 656.969726562 164.189453125 717.75 238.899414062 717.75 c 2
 277.829101562 717.75 l 2
 336.239257812 717.75 378.689453125 699.549804688 407.619140625 662.120117188 c 0xbc
EndSplineSet
Validated: 1
LCarets2: 1 0
Ligature2: "'liga'-1" f l
EndChar

